M48
METRIC,LZ,000.000
;FILE_FORMAT=3:3
;TYPE=PLATED
;Layer: PTH_Through
;EasyEDA v6.5.57, 2026-07-01 22:14:42
;15a076fc9ded47d28cba514a5cb7d71c,8490137ff82c4f019f8b52c78a78dcac,10
;Gerber Generator version 0.2
;Holesize 1 = 0.501 mm
T01C0.501
;Holesize 2 = 0.701 mm
T02C0.701
;Holesize 3 = 0.712 mm
T03C0.712
;Holesize 4 = 0.800 mm
T04C0.800
;Holesize 5 = 0.900 mm
T05C0.900
;Holesize 6 = 0.901 mm
T06C0.901
;Holesize 7 = 0.915 mm
T07C0.915
;Holesize 8 = 1.001 mm
T08C1.001
;Holesize 9 = 1.200 mm
T09C1.200
%
G05
G90
T01
X032375Y-078615G85X033175Y-078615
X032375Y-069975G85X033175Y-069975
T02
X063119Y-050292
X063119Y-049022
X063119Y-047752
X081026Y-066548
X081026Y-067818
X081026Y-069088
X087376Y-082169
X087376Y-080899
X087376Y-079629
T03
X050292Y-032766
X050292Y-030226
X052451Y-039751
X054991Y-039751
X062357Y-054610
X062357Y-057150
X045339Y-064389
X045339Y-066929
X075819Y-081280
X073279Y-081280
X068326Y-074549
X070866Y-074549
X076454Y-072263
X076454Y-069723
X083439Y-055880
X080899Y-055880
X080010Y-074930
X082550Y-074930
X080010Y-081026
X082550Y-081026
X088141Y-061427
X090681Y-061427
X085598Y-067945
X088138Y-067945
X100457Y-066167
X100457Y-063627
X098171Y-057912
X100711Y-057912
X087757Y-046228
X090297Y-046228
T04
X042418Y-072279
X042418Y-074279
X080899Y-030115
X080899Y-032115
X080899Y-038719
X080899Y-036719
X037759Y-055899G85X037759Y-055099
X043109Y-050499G85X042409Y-050499
X043109Y-052999G85X042409Y-052999
X043109Y-057999G85X042409Y-057999
X043109Y-060499G85X042409Y-060499
T05
X099568Y-052705
X099568Y-042545
X068580Y-049530
X068580Y-057150
X065151Y-059055
X065151Y-066675
X077216Y-050292
X089916Y-050292
X088900Y-073406
X101600Y-073406
X049022Y-080645
X038862Y-080645
X041529Y-040386
X041529Y-030226
X047752Y-044958
X057912Y-044958
X069215Y-040132
X069215Y-029972
X047625Y-049911
X057785Y-049911
X047498Y-054483
X057658Y-054483
X047879Y-068199
X058039Y-068199
X074295Y-040132
X074295Y-029972
X074295Y-059563
X074295Y-049403
X052832Y-075565
X062992Y-075565
X102489Y-078613
X092329Y-078613
T06
X061261Y-082341G85X061215Y-082341
X064260Y-078441G85X064215Y-078441
X049657Y-074168
X047117Y-074168
T07
X035965Y-043326
X035965Y-045104
T08
X048946Y-061976
X053924Y-059487
X053924Y-064465
T09
X092202Y-034036
M30
