G04 Layer: TopLayer*
G04 EasyEDA v6.5.57, 2026-07-01 22:14:42*
G04 15a076fc9ded47d28cba514a5cb7d71c,8490137ff82c4f019f8b52c78a78dcac,10*
G04 Gerber Generator version 0.2*
G04 Scale: 100 percent, Rotated: No, Reflected: No *
G04 Dimensions in millimeters *
G04 leading zeros omitted , absolute positions ,4 integer and 5 decimal *
%FSLAX45Y45*%
%MOMM*%

%ADD10C,0.2032*%
%ADD11R,1.6000X0.9000*%
%ADD12R,1.6000X0.8000*%
%ADD13R,1.6000X0.7000*%
%ADD14R,1.0000X2.0000*%
%ADD15C,1.8796*%
%ADD16C,1.3000*%
%ADD17C,1.1938*%
%ADD18O,1.599997X0.999998*%
%ADD19O,0.0131X0.999998*%
%ADD20O,1.399997X2.199996*%
%ADD21O,2.199996X1.399997*%
%ADD22C,2.0000*%
%ADD23C,1.5000*%
%ADD24C,1.6510*%
%ADD25C,1.5240*%
%ADD26C,1.3995*%
%ADD27O,1.599997X0.899998*%

%LPD*%
D10*
X9574022Y-3336289D02*
G01*
X9537700Y-3431794D01*
X9574022Y-3336289D02*
G01*
X9610343Y-3431794D01*
X9551415Y-3400044D02*
G01*
X9596881Y-3400044D01*
X9640315Y-3336289D02*
G01*
X9640315Y-3431794D01*
X9640315Y-3336289D02*
G01*
X9704070Y-3431794D01*
X9704070Y-3336289D02*
G01*
X9704070Y-3431794D01*
X9765791Y-3336289D02*
G01*
X9765791Y-3431794D01*
X9734041Y-3336289D02*
G01*
X9797795Y-3336289D01*
D11*
G01*
X3707511Y-7154499D03*
D12*
G01*
X3707511Y-7277511D03*
D13*
G01*
X3707511Y-7379492D03*
G01*
X3707511Y-7479492D03*
D12*
G01*
X3707511Y-7581498D03*
D11*
G01*
X3707511Y-7704510D03*
D14*
G01*
X3657498Y-6897502D03*
G01*
X3657498Y-7961508D03*
D15*
G01*
X9956800Y-5270500D03*
G01*
X9956800Y-4254500D03*
D16*
G01*
X4241805Y-7227890D03*
G01*
X4241805Y-7427889D03*
G01*
X8089905Y-3011490D03*
G01*
X8089905Y-3211489D03*
G01*
X8089894Y-3871909D03*
G01*
X8089894Y-3671910D03*
D17*
G01*
X5029200Y-3276600D03*
G01*
X5029200Y-3022600D03*
G01*
X5245100Y-3975100D03*
G01*
X5499100Y-3975100D03*
G01*
X6235700Y-5461000D03*
G01*
X6235700Y-5715000D03*
G01*
X4533900Y-6438900D03*
G01*
X4533900Y-6692900D03*
G01*
X7581900Y-8128000D03*
G01*
X7327900Y-8128000D03*
G01*
X6832600Y-7454900D03*
G01*
X7086600Y-7454900D03*
G01*
X7645400Y-7226300D03*
G01*
X7645400Y-6972300D03*
G01*
X8343900Y-5588000D03*
G01*
X8089900Y-5588000D03*
G01*
X8001000Y-7493000D03*
G01*
X8255000Y-7493000D03*
G01*
X8001000Y-8102600D03*
G01*
X8255000Y-8102600D03*
G01*
X8814054Y-6142736D03*
G01*
X9068054Y-6142736D03*
G01*
X8559800Y-6794500D03*
G01*
X8813800Y-6794500D03*
G01*
X10045700Y-6616700D03*
G01*
X10045700Y-6362700D03*
G01*
X9817100Y-5791200D03*
G01*
X10071100Y-5791200D03*
G01*
X8775700Y-4622800D03*
G01*
X9029700Y-4622800D03*
D15*
G01*
X6858000Y-4953000D03*
G01*
X6858000Y-5715000D03*
G01*
X6515100Y-5905500D03*
G01*
X6515100Y-6667500D03*
D18*
G01*
X3277488Y-7861508D03*
G01*
X3277488Y-6997501D03*
D20*
G01*
X3775900Y-5549902D03*
D21*
G01*
X4275899Y-5049903D03*
G01*
X4275899Y-5299890D03*
G01*
X4275899Y-5799889D03*
G01*
X4275899Y-6049901D03*
D22*
G01*
X9220200Y-3403600D03*
D23*
G01*
X6123807Y-8234095D03*
G01*
X6423807Y-7844104D03*
D15*
G01*
X7721600Y-5029200D03*
G01*
X8991600Y-5029200D03*
G01*
X8890000Y-7340600D03*
G01*
X10160000Y-7340600D03*
D24*
G01*
X4965700Y-7416797D03*
G01*
X4711700Y-7416797D03*
D25*
G01*
X3596510Y-4332579D03*
G01*
X3596510Y-4510379D03*
D15*
G01*
X4902200Y-8064500D03*
G01*
X3886200Y-8064500D03*
G01*
X4152900Y-4038600D03*
G01*
X4152900Y-3022600D03*
G01*
X4775200Y-4495800D03*
G01*
X5791200Y-4495800D03*
G01*
X6921500Y-4013200D03*
G01*
X6921500Y-2997200D03*
G01*
X4762500Y-4991100D03*
G01*
X5778500Y-4991100D03*
G01*
X4749800Y-5448300D03*
G01*
X5765800Y-5448300D03*
G01*
X4787900Y-6819900D03*
G01*
X5803900Y-6819900D03*
G01*
X7429500Y-4013200D03*
G01*
X7429500Y-2997200D03*
G01*
X7429500Y-5956300D03*
G01*
X7429500Y-4940300D03*
G01*
X5283200Y-7556500D03*
G01*
X6299200Y-7556500D03*
G01*
X10248900Y-7861300D03*
G01*
X9232900Y-7861300D03*
D26*
G01*
X4894579Y-6197600D03*
G01*
X5392420Y-5948679D03*
G01*
X5392420Y-6446520D03*
D11*
G01*
X6311900Y-5029200D03*
D27*
G01*
X6311900Y-4902200D03*
G01*
X6311900Y-4775200D03*
G01*
X8102600Y-6654800D03*
G01*
X8102600Y-6781800D03*
D11*
G01*
X8102600Y-6908800D03*
G01*
X8737600Y-8216900D03*
D27*
G01*
X8737600Y-8089900D03*
G01*
X8737600Y-7962900D03*
M02*
