G04 Layer: TopSilkscreenLayer*
G04 EasyEDA v6.5.57, 2026-07-01 22:14:42*
G04 15a076fc9ded47d28cba514a5cb7d71c,8490137ff82c4f019f8b52c78a78dcac,10*
G04 Gerber Generator version 0.2*
G04 Scale: 100 percent, Rotated: No, Reflected: No *
G04 Dimensions in millimeters *
G04 leading zeros omitted , absolute positions ,4 integer and 5 decimal *
%FSLAX45Y45*%
%MOMM*%

%ADD10C,0.1524*%
%ADD11C,0.2540*%
%ADD12C,0.2007*%
%ADD13C,0.3000*%
%ADD14C,0.0500*%
%ADD15C,0.0195*%

%LPD*%
D10*
X9663684Y-4762500D02*
G01*
X9772650Y-4762500D01*
X9772650Y-4762500D02*
G01*
X9772650Y-4700270D01*
X9663684Y-4613910D02*
G01*
X9736327Y-4665979D01*
X9736327Y-4588002D01*
X9663684Y-4613910D02*
G01*
X9772650Y-4613910D01*
X4610587Y-7383642D02*
G01*
X4621001Y-7378308D01*
X4631415Y-7367894D01*
X4636495Y-7357734D01*
X4636495Y-7336906D01*
X4631415Y-7326492D01*
X4621001Y-7316078D01*
X4610587Y-7310744D01*
X4594839Y-7305664D01*
X4568931Y-7305664D01*
X4553437Y-7310744D01*
X4543023Y-7316078D01*
X4532609Y-7326492D01*
X4527529Y-7336906D01*
X4527529Y-7357734D01*
X4532609Y-7367894D01*
X4543023Y-7378308D01*
X4553437Y-7383642D01*
X4615667Y-7417932D02*
G01*
X4621001Y-7428346D01*
X4636495Y-7443840D01*
X4527529Y-7443840D01*
X8458687Y-3167242D02*
G01*
X8469101Y-3161908D01*
X8479515Y-3151494D01*
X8484595Y-3141334D01*
X8484595Y-3120506D01*
X8479515Y-3110092D01*
X8469101Y-3099678D01*
X8458687Y-3094344D01*
X8442939Y-3089264D01*
X8417031Y-3089264D01*
X8401537Y-3094344D01*
X8391123Y-3099678D01*
X8380709Y-3110092D01*
X8375629Y-3120506D01*
X8375629Y-3141334D01*
X8380709Y-3151494D01*
X8391123Y-3161908D01*
X8401537Y-3167242D01*
X8484595Y-3211946D02*
G01*
X8484595Y-3269096D01*
X8442939Y-3237854D01*
X8442939Y-3253348D01*
X8437859Y-3263762D01*
X8432779Y-3269096D01*
X8417031Y-3274176D01*
X8406617Y-3274176D01*
X8391123Y-3269096D01*
X8380709Y-3258682D01*
X8375629Y-3242934D01*
X8375629Y-3227440D01*
X8380709Y-3211946D01*
X8385789Y-3206612D01*
X8396203Y-3201532D01*
X7721112Y-3716157D02*
G01*
X7710698Y-3721491D01*
X7700284Y-3731905D01*
X7695204Y-3742065D01*
X7695204Y-3762893D01*
X7700284Y-3773307D01*
X7710698Y-3783721D01*
X7721112Y-3789055D01*
X7736860Y-3794135D01*
X7762768Y-3794135D01*
X7778262Y-3789055D01*
X7788676Y-3783721D01*
X7799090Y-3773307D01*
X7804170Y-3762893D01*
X7804170Y-3742065D01*
X7799090Y-3731905D01*
X7788676Y-3721491D01*
X7778262Y-3716157D01*
X7695204Y-3630051D02*
G01*
X7767848Y-3681867D01*
X7767848Y-3603889D01*
X7695204Y-3630051D02*
G01*
X7804170Y-3630051D01*
X4754372Y-3094481D02*
G01*
X4743958Y-3099815D01*
X4733543Y-3110229D01*
X4728463Y-3120389D01*
X4728463Y-3141218D01*
X4733543Y-3151631D01*
X4743958Y-3162045D01*
X4754372Y-3167379D01*
X4770120Y-3172460D01*
X4796027Y-3172460D01*
X4811522Y-3167379D01*
X4821936Y-3162045D01*
X4832350Y-3151631D01*
X4837429Y-3141218D01*
X4837429Y-3120389D01*
X4832350Y-3110229D01*
X4821936Y-3099815D01*
X4811522Y-3094481D01*
X4754372Y-3055112D02*
G01*
X4749291Y-3055112D01*
X4738877Y-3049778D01*
X4733543Y-3044697D01*
X4728463Y-3034284D01*
X4728463Y-3013455D01*
X4733543Y-3003042D01*
X4738877Y-2997962D01*
X4749291Y-2992628D01*
X4759706Y-2992628D01*
X4770120Y-2997962D01*
X4785613Y-3008376D01*
X4837429Y-3060192D01*
X4837429Y-2987547D01*
X5427218Y-3700271D02*
G01*
X5421884Y-3689857D01*
X5411470Y-3679444D01*
X5401309Y-3674363D01*
X5380481Y-3674363D01*
X5370068Y-3679444D01*
X5359654Y-3689857D01*
X5354320Y-3700271D01*
X5349240Y-3716020D01*
X5349240Y-3741928D01*
X5354320Y-3757421D01*
X5359654Y-3767836D01*
X5370068Y-3778250D01*
X5380481Y-3783329D01*
X5401309Y-3783329D01*
X5411470Y-3778250D01*
X5421884Y-3767836D01*
X5427218Y-3757421D01*
X5513324Y-3674363D02*
G01*
X5461508Y-3747007D01*
X5539486Y-3747007D01*
X5513324Y-3674363D02*
G01*
X5513324Y-3783329D01*
X5573775Y-3819905D02*
G01*
X5667247Y-3819905D01*
X5779515Y-3700271D02*
G01*
X5774181Y-3689857D01*
X5763768Y-3679444D01*
X5753354Y-3674363D01*
X5732779Y-3674363D01*
X5722365Y-3679444D01*
X5711952Y-3689857D01*
X5706618Y-3700271D01*
X5701538Y-3716020D01*
X5701538Y-3741928D01*
X5706618Y-3757421D01*
X5711952Y-3767836D01*
X5722365Y-3778250D01*
X5732779Y-3783329D01*
X5753354Y-3783329D01*
X5763768Y-3778250D01*
X5774181Y-3767836D01*
X5779515Y-3757421D01*
X5813806Y-3674363D02*
G01*
X5813806Y-3783329D01*
X5813806Y-3674363D02*
G01*
X5881370Y-3674363D01*
X5813806Y-3726179D02*
G01*
X5855208Y-3726179D01*
X5813806Y-3783329D02*
G01*
X5881370Y-3783329D01*
X5915659Y-3674363D02*
G01*
X5915659Y-3783329D01*
X5915659Y-3674363D02*
G01*
X5962395Y-3674363D01*
X5977890Y-3679444D01*
X5982970Y-3684778D01*
X5988304Y-3695192D01*
X5988304Y-3705605D01*
X5982970Y-3716020D01*
X5977890Y-3721100D01*
X5962395Y-3726179D01*
X5915659Y-3726179D01*
X5951981Y-3726179D02*
G01*
X5988304Y-3783329D01*
X6510527Y-5643118D02*
G01*
X6520941Y-5637784D01*
X6531356Y-5627370D01*
X6536436Y-5617210D01*
X6536436Y-5596381D01*
X6531356Y-5585968D01*
X6520941Y-5575554D01*
X6510527Y-5570220D01*
X6494779Y-5565139D01*
X6468872Y-5565139D01*
X6453377Y-5570220D01*
X6442963Y-5575554D01*
X6432550Y-5585968D01*
X6427470Y-5596381D01*
X6427470Y-5617210D01*
X6432550Y-5627370D01*
X6442963Y-5637784D01*
X6453377Y-5643118D01*
X6536436Y-5739637D02*
G01*
X6536436Y-5687821D01*
X6489700Y-5682487D01*
X6494779Y-5687821D01*
X6500113Y-5703315D01*
X6500113Y-5718810D01*
X6494779Y-5734557D01*
X6484620Y-5744971D01*
X6468872Y-5750052D01*
X6458458Y-5750052D01*
X6442963Y-5744971D01*
X6432550Y-5734557D01*
X6427470Y-5718810D01*
X6427470Y-5703315D01*
X6432550Y-5687821D01*
X6437629Y-5682487D01*
X6448043Y-5677407D01*
X4808727Y-6621018D02*
G01*
X4819141Y-6615684D01*
X4829556Y-6605270D01*
X4834636Y-6595110D01*
X4834636Y-6574281D01*
X4829556Y-6563868D01*
X4819141Y-6553454D01*
X4808727Y-6548120D01*
X4792979Y-6543039D01*
X4767072Y-6543039D01*
X4751577Y-6548120D01*
X4741163Y-6553454D01*
X4730750Y-6563868D01*
X4725670Y-6574281D01*
X4725670Y-6595110D01*
X4730750Y-6605270D01*
X4741163Y-6615684D01*
X4751577Y-6621018D01*
X4834636Y-6717537D02*
G01*
X4834636Y-6665721D01*
X4787900Y-6660387D01*
X4792979Y-6665721D01*
X4798313Y-6681215D01*
X4798313Y-6696710D01*
X4792979Y-6712458D01*
X4782820Y-6722871D01*
X4767072Y-6727952D01*
X4756658Y-6727952D01*
X4741163Y-6722871D01*
X4730750Y-6712458D01*
X4725670Y-6696710D01*
X4725670Y-6681215D01*
X4730750Y-6665721D01*
X4735829Y-6660387D01*
X4746243Y-6655308D01*
X4850129Y-6772655D02*
G01*
X4819141Y-6772655D01*
X7399781Y-8402828D02*
G01*
X7405115Y-8413242D01*
X7415529Y-8423655D01*
X7425690Y-8428736D01*
X7446518Y-8428736D01*
X7456931Y-8423655D01*
X7467345Y-8413242D01*
X7472679Y-8402828D01*
X7477759Y-8387079D01*
X7477759Y-8361171D01*
X7472679Y-8345678D01*
X7467345Y-8335263D01*
X7456931Y-8324850D01*
X7446518Y-8319770D01*
X7425690Y-8319770D01*
X7415529Y-8324850D01*
X7405115Y-8335263D01*
X7399781Y-8345678D01*
X7303261Y-8413242D02*
G01*
X7308341Y-8423655D01*
X7324090Y-8428736D01*
X7334250Y-8428736D01*
X7349997Y-8423655D01*
X7360411Y-8407908D01*
X7365491Y-8382000D01*
X7365491Y-8356092D01*
X7360411Y-8335263D01*
X7349997Y-8324850D01*
X7334250Y-8319770D01*
X7329170Y-8319770D01*
X7313675Y-8324850D01*
X7303261Y-8335263D01*
X7297927Y-8350758D01*
X7297927Y-8356092D01*
X7303261Y-8371586D01*
X7313675Y-8382000D01*
X7329170Y-8387079D01*
X7334250Y-8387079D01*
X7349997Y-8382000D01*
X7360411Y-8371586D01*
X7365491Y-8356092D01*
X7014718Y-7180071D02*
G01*
X7009384Y-7169658D01*
X6998970Y-7159244D01*
X6988809Y-7154163D01*
X6967981Y-7154163D01*
X6957568Y-7159244D01*
X6947154Y-7169658D01*
X6941820Y-7180071D01*
X6936740Y-7195820D01*
X6936740Y-7221728D01*
X6941820Y-7237221D01*
X6947154Y-7247636D01*
X6957568Y-7258050D01*
X6967981Y-7263129D01*
X6988809Y-7263129D01*
X6998970Y-7258050D01*
X7009384Y-7247636D01*
X7014718Y-7237221D01*
X7121652Y-7154163D02*
G01*
X7069836Y-7263129D01*
X7049008Y-7154163D02*
G01*
X7121652Y-7154163D01*
X7370572Y-7044181D02*
G01*
X7360158Y-7049515D01*
X7349743Y-7059929D01*
X7344663Y-7070089D01*
X7344663Y-7090918D01*
X7349743Y-7101331D01*
X7360158Y-7111745D01*
X7370572Y-7117079D01*
X7386320Y-7122160D01*
X7412227Y-7122160D01*
X7427722Y-7117079D01*
X7438136Y-7111745D01*
X7448550Y-7101331D01*
X7453629Y-7090918D01*
X7453629Y-7070089D01*
X7448550Y-7059929D01*
X7438136Y-7049515D01*
X7427722Y-7044181D01*
X7344663Y-6983984D02*
G01*
X7349743Y-6999478D01*
X7360158Y-7004812D01*
X7370572Y-7004812D01*
X7380986Y-6999478D01*
X7386320Y-6989063D01*
X7391400Y-6968489D01*
X7396479Y-6952742D01*
X7406893Y-6942328D01*
X7417308Y-6937247D01*
X7433056Y-6937247D01*
X7443470Y-6942328D01*
X7448550Y-6947662D01*
X7453629Y-6963155D01*
X7453629Y-6983984D01*
X7448550Y-6999478D01*
X7443470Y-7004812D01*
X7433056Y-7009892D01*
X7417308Y-7009892D01*
X7406893Y-7004812D01*
X7396479Y-6994397D01*
X7391400Y-6978650D01*
X7386320Y-6958076D01*
X7380986Y-6947662D01*
X7370572Y-6942328D01*
X7360158Y-6942328D01*
X7349743Y-6947662D01*
X7344663Y-6963155D01*
X7344663Y-6983984D01*
X8161781Y-5862828D02*
G01*
X8167115Y-5873242D01*
X8177529Y-5883655D01*
X8187690Y-5888736D01*
X8208518Y-5888736D01*
X8218931Y-5883655D01*
X8229345Y-5873242D01*
X8234679Y-5862828D01*
X8239759Y-5847079D01*
X8239759Y-5821171D01*
X8234679Y-5805678D01*
X8229345Y-5795263D01*
X8218931Y-5784850D01*
X8208518Y-5779770D01*
X8187690Y-5779770D01*
X8177529Y-5784850D01*
X8167115Y-5795263D01*
X8161781Y-5805678D01*
X8059927Y-5852413D02*
G01*
X8065261Y-5836920D01*
X8075675Y-5826505D01*
X8091170Y-5821171D01*
X8096250Y-5821171D01*
X8111997Y-5826505D01*
X8122411Y-5836920D01*
X8127491Y-5852413D01*
X8127491Y-5857494D01*
X8122411Y-5873242D01*
X8111997Y-5883655D01*
X8096250Y-5888736D01*
X8091170Y-5888736D01*
X8075675Y-5883655D01*
X8065261Y-5873242D01*
X8059927Y-5852413D01*
X8059927Y-5826505D01*
X8065261Y-5800344D01*
X8075675Y-5784850D01*
X8091170Y-5779770D01*
X8101584Y-5779770D01*
X8117077Y-5784850D01*
X8122411Y-5795263D01*
X8183118Y-7218171D02*
G01*
X8177784Y-7207758D01*
X8167370Y-7197344D01*
X8157209Y-7192263D01*
X8136381Y-7192263D01*
X8125968Y-7197344D01*
X8115554Y-7207758D01*
X8110220Y-7218171D01*
X8105140Y-7233920D01*
X8105140Y-7259828D01*
X8110220Y-7275321D01*
X8115554Y-7285736D01*
X8125968Y-7296150D01*
X8136381Y-7301229D01*
X8157209Y-7301229D01*
X8167370Y-7296150D01*
X8177784Y-7285736D01*
X8183118Y-7275321D01*
X8217408Y-7213092D02*
G01*
X8227822Y-7207758D01*
X8243315Y-7192263D01*
X8243315Y-7301229D01*
X8308847Y-7192263D02*
G01*
X8293100Y-7197344D01*
X8282940Y-7213092D01*
X8277606Y-7239000D01*
X8277606Y-7254494D01*
X8282940Y-7280655D01*
X8293100Y-7296150D01*
X8308847Y-7301229D01*
X8319261Y-7301229D01*
X8334756Y-7296150D01*
X8345170Y-7280655D01*
X8350250Y-7254494D01*
X8350250Y-7239000D01*
X8345170Y-7213092D01*
X8334756Y-7197344D01*
X8319261Y-7192263D01*
X8308847Y-7192263D01*
X8183118Y-7827771D02*
G01*
X8177784Y-7817358D01*
X8167370Y-7806944D01*
X8157209Y-7801863D01*
X8136381Y-7801863D01*
X8125968Y-7806944D01*
X8115554Y-7817358D01*
X8110220Y-7827771D01*
X8105140Y-7843520D01*
X8105140Y-7869428D01*
X8110220Y-7884921D01*
X8115554Y-7895336D01*
X8125968Y-7905750D01*
X8136381Y-7910829D01*
X8157209Y-7910829D01*
X8167370Y-7905750D01*
X8177784Y-7895336D01*
X8183118Y-7884921D01*
X8217408Y-7822692D02*
G01*
X8227822Y-7817358D01*
X8243315Y-7801863D01*
X8243315Y-7910829D01*
X8277606Y-7822692D02*
G01*
X8288020Y-7817358D01*
X8303513Y-7801863D01*
X8303513Y-7910829D01*
X8996172Y-5867907D02*
G01*
X8990838Y-5857494D01*
X8980424Y-5847079D01*
X8970263Y-5842000D01*
X8949436Y-5842000D01*
X8939022Y-5847079D01*
X8928608Y-5857494D01*
X8923274Y-5867907D01*
X8918193Y-5883655D01*
X8918193Y-5909563D01*
X8923274Y-5925057D01*
X8928608Y-5935471D01*
X8939022Y-5945886D01*
X8949436Y-5950965D01*
X8970263Y-5950965D01*
X8980424Y-5945886D01*
X8990838Y-5935471D01*
X8996172Y-5925057D01*
X9030461Y-5862828D02*
G01*
X9040875Y-5857494D01*
X9056370Y-5842000D01*
X9056370Y-5950965D01*
X9095993Y-5867907D02*
G01*
X9095993Y-5862828D01*
X9101074Y-5852413D01*
X9106154Y-5847079D01*
X9116568Y-5842000D01*
X9137395Y-5842000D01*
X9147809Y-5847079D01*
X9153143Y-5852413D01*
X9158224Y-5862828D01*
X9158224Y-5873242D01*
X9153143Y-5883655D01*
X9142729Y-5899150D01*
X9090659Y-5950965D01*
X9163304Y-5950965D01*
X8741918Y-6519671D02*
G01*
X8736584Y-6509257D01*
X8726170Y-6498844D01*
X8716009Y-6493763D01*
X8695181Y-6493763D01*
X8684768Y-6498844D01*
X8674354Y-6509257D01*
X8669020Y-6519671D01*
X8663940Y-6535420D01*
X8663940Y-6561328D01*
X8669020Y-6576821D01*
X8674354Y-6587236D01*
X8684768Y-6597650D01*
X8695181Y-6602729D01*
X8716009Y-6602729D01*
X8726170Y-6597650D01*
X8736584Y-6587236D01*
X8741918Y-6576821D01*
X8776208Y-6514592D02*
G01*
X8786622Y-6509257D01*
X8802115Y-6493763D01*
X8802115Y-6602729D01*
X8846820Y-6493763D02*
G01*
X8903970Y-6493763D01*
X8872727Y-6535420D01*
X8888475Y-6535420D01*
X8898890Y-6540500D01*
X8903970Y-6545579D01*
X8909050Y-6561328D01*
X8909050Y-6571742D01*
X8903970Y-6587236D01*
X8893556Y-6597650D01*
X8878061Y-6602729D01*
X8862313Y-6602729D01*
X8846820Y-6597650D01*
X8841740Y-6592570D01*
X8836406Y-6582155D01*
X9770872Y-6434581D02*
G01*
X9760458Y-6439915D01*
X9750043Y-6450329D01*
X9744963Y-6460489D01*
X9744963Y-6481318D01*
X9750043Y-6491731D01*
X9760458Y-6502145D01*
X9770872Y-6507479D01*
X9786620Y-6512560D01*
X9812527Y-6512560D01*
X9828022Y-6507479D01*
X9838436Y-6502145D01*
X9848850Y-6491731D01*
X9853929Y-6481318D01*
X9853929Y-6460489D01*
X9848850Y-6450329D01*
X9838436Y-6439915D01*
X9828022Y-6434581D01*
X9765791Y-6400292D02*
G01*
X9760458Y-6389878D01*
X9744963Y-6374384D01*
X9853929Y-6374384D01*
X9744963Y-6288023D02*
G01*
X9817608Y-6340094D01*
X9817608Y-6262115D01*
X9744963Y-6288023D02*
G01*
X9853929Y-6288023D01*
X9999218Y-5516371D02*
G01*
X9993884Y-5505957D01*
X9983470Y-5495544D01*
X9973309Y-5490463D01*
X9952481Y-5490463D01*
X9942068Y-5495544D01*
X9931654Y-5505957D01*
X9926320Y-5516371D01*
X9921240Y-5532120D01*
X9921240Y-5558028D01*
X9926320Y-5573521D01*
X9931654Y-5583936D01*
X9942068Y-5594350D01*
X9952481Y-5599429D01*
X9973309Y-5599429D01*
X9983470Y-5594350D01*
X9993884Y-5583936D01*
X9999218Y-5573521D01*
X10033508Y-5511292D02*
G01*
X10043922Y-5505957D01*
X10059415Y-5490463D01*
X10059415Y-5599429D01*
X10156190Y-5490463D02*
G01*
X10104120Y-5490463D01*
X10099040Y-5537200D01*
X10104120Y-5532120D01*
X10119613Y-5526786D01*
X10135361Y-5526786D01*
X10150856Y-5532120D01*
X10161270Y-5542279D01*
X10166350Y-5558028D01*
X10166350Y-5568442D01*
X10161270Y-5583936D01*
X10150856Y-5594350D01*
X10135361Y-5599429D01*
X10119613Y-5599429D01*
X10104120Y-5594350D01*
X10099040Y-5589270D01*
X10093706Y-5578855D01*
X8957818Y-4347971D02*
G01*
X8952484Y-4337557D01*
X8942070Y-4327144D01*
X8931909Y-4322063D01*
X8911081Y-4322063D01*
X8900668Y-4327144D01*
X8890254Y-4337557D01*
X8884920Y-4347971D01*
X8879840Y-4363720D01*
X8879840Y-4389628D01*
X8884920Y-4405121D01*
X8890254Y-4415536D01*
X8900668Y-4425950D01*
X8911081Y-4431029D01*
X8931909Y-4431029D01*
X8942070Y-4425950D01*
X8952484Y-4415536D01*
X8957818Y-4405121D01*
X8992108Y-4342892D02*
G01*
X9002522Y-4337557D01*
X9018015Y-4322063D01*
X9018015Y-4431029D01*
X9114790Y-4337557D02*
G01*
X9109456Y-4327144D01*
X9093961Y-4322063D01*
X9083547Y-4322063D01*
X9067800Y-4327144D01*
X9057640Y-4342892D01*
X9052306Y-4368800D01*
X9052306Y-4394707D01*
X9057640Y-4415536D01*
X9067800Y-4425950D01*
X9083547Y-4431029D01*
X9088627Y-4431029D01*
X9104375Y-4425950D01*
X9114790Y-4415536D01*
X9119870Y-4400042D01*
X9119870Y-4394707D01*
X9114790Y-4379213D01*
X9104375Y-4368800D01*
X9088627Y-4363720D01*
X9083547Y-4363720D01*
X9067800Y-4368800D01*
X9057640Y-4379213D01*
X9052306Y-4394707D01*
X7100315Y-5334000D02*
G01*
X6991350Y-5334000D01*
X7100315Y-5334000D02*
G01*
X7100315Y-5370321D01*
X7095236Y-5386070D01*
X7084822Y-5396229D01*
X7074408Y-5401563D01*
X7058659Y-5406644D01*
X7032752Y-5406644D01*
X7017258Y-5401563D01*
X7006843Y-5396229D01*
X6996429Y-5386070D01*
X6991350Y-5370321D01*
X6991350Y-5334000D01*
X7074408Y-5446268D02*
G01*
X7079488Y-5446268D01*
X7089902Y-5451347D01*
X7095236Y-5456681D01*
X7100315Y-5467095D01*
X7100315Y-5487670D01*
X7095236Y-5498084D01*
X7089902Y-5503418D01*
X7079488Y-5508497D01*
X7069074Y-5508497D01*
X7058659Y-5503418D01*
X7043165Y-5493004D01*
X6991350Y-5440934D01*
X6991350Y-5513831D01*
X6757415Y-6286500D02*
G01*
X6648450Y-6286500D01*
X6757415Y-6286500D02*
G01*
X6757415Y-6322821D01*
X6752336Y-6338570D01*
X6741922Y-6348729D01*
X6731508Y-6354063D01*
X6715759Y-6359144D01*
X6689852Y-6359144D01*
X6674358Y-6354063D01*
X6663943Y-6348729D01*
X6653529Y-6338570D01*
X6648450Y-6322821D01*
X6648450Y-6286500D01*
X6757415Y-6403847D02*
G01*
X6757415Y-6460997D01*
X6715759Y-6430010D01*
X6715759Y-6445504D01*
X6710679Y-6455918D01*
X6705600Y-6460997D01*
X6689852Y-6466331D01*
X6679438Y-6466331D01*
X6663943Y-6460997D01*
X6653529Y-6450584D01*
X6648450Y-6435089D01*
X6648450Y-6419595D01*
X6653529Y-6403847D01*
X6658609Y-6398768D01*
X6669024Y-6393434D01*
X3971569Y-7462316D02*
G01*
X3888511Y-7462316D01*
X3872763Y-7456982D01*
X3867683Y-7451902D01*
X3862603Y-7441488D01*
X3862603Y-7431074D01*
X3867683Y-7420660D01*
X3872763Y-7415326D01*
X3888511Y-7410246D01*
X3898925Y-7410246D01*
X3950741Y-7496606D02*
G01*
X3956075Y-7506766D01*
X3971569Y-7522514D01*
X3862603Y-7522514D01*
X2949384Y-5523229D02*
G01*
X3032442Y-5523229D01*
X3048190Y-5528563D01*
X3053270Y-5533644D01*
X3058350Y-5544057D01*
X3058350Y-5554471D01*
X3053270Y-5564886D01*
X3048190Y-5570220D01*
X3032442Y-5575300D01*
X3022028Y-5575300D01*
X2975292Y-5483860D02*
G01*
X2970212Y-5483860D01*
X2959798Y-5478779D01*
X2954464Y-5473445D01*
X2949384Y-5463031D01*
X2949384Y-5442204D01*
X2954464Y-5431789D01*
X2959798Y-5426710D01*
X2970212Y-5421629D01*
X2980626Y-5421629D01*
X2991040Y-5426710D01*
X3006534Y-5437123D01*
X3058350Y-5488939D01*
X3058350Y-5416295D01*
X9272270Y-3135884D02*
G01*
X9272270Y-3218942D01*
X9266936Y-3234689D01*
X9261856Y-3239770D01*
X9251441Y-3244850D01*
X9241027Y-3244850D01*
X9230613Y-3239770D01*
X9225279Y-3234689D01*
X9220200Y-3218942D01*
X9220200Y-3208528D01*
X9306559Y-3135884D02*
G01*
X9306559Y-3244850D01*
X9306559Y-3135884D02*
G01*
X9353295Y-3135884D01*
X9368790Y-3140963D01*
X9373870Y-3146297D01*
X9379204Y-3156712D01*
X9379204Y-3172205D01*
X9373870Y-3182620D01*
X9368790Y-3187700D01*
X9353295Y-3193034D01*
X9306559Y-3193034D01*
X9413493Y-3156712D02*
G01*
X9423908Y-3151378D01*
X9439402Y-3135884D01*
X9439402Y-3244850D01*
X6271399Y-7601788D02*
G01*
X6271399Y-7710754D01*
X6271399Y-7710754D02*
G01*
X6333629Y-7710754D01*
X6367919Y-7622616D02*
G01*
X6378333Y-7617282D01*
X6394081Y-7601788D01*
X6394081Y-7710754D01*
X8356600Y-4710684D02*
G01*
X8356600Y-4819650D01*
X8356600Y-4819650D02*
G01*
X8418829Y-4819650D01*
X8458454Y-4736592D02*
G01*
X8458454Y-4731512D01*
X8463534Y-4721097D01*
X8468868Y-4715763D01*
X8479281Y-4710684D01*
X8500109Y-4710684D01*
X8510270Y-4715763D01*
X8515604Y-4721097D01*
X8520684Y-4731512D01*
X8520684Y-4741926D01*
X8515604Y-4752339D01*
X8505190Y-4767834D01*
X8453120Y-4819650D01*
X8526018Y-4819650D01*
X9525000Y-7022084D02*
G01*
X9525000Y-7131050D01*
X9525000Y-7131050D02*
G01*
X9587229Y-7131050D01*
X9631934Y-7022084D02*
G01*
X9689084Y-7022084D01*
X9658095Y-7063739D01*
X9673590Y-7063739D01*
X9684004Y-7068820D01*
X9689084Y-7073900D01*
X9694418Y-7089647D01*
X9694418Y-7100062D01*
X9689084Y-7115555D01*
X9678670Y-7125970D01*
X9663175Y-7131050D01*
X9647681Y-7131050D01*
X9631934Y-7125970D01*
X9626854Y-7120889D01*
X9621520Y-7110476D01*
X5192268Y-7391400D02*
G01*
X5083302Y-7391400D01*
X5083302Y-7391400D02*
G01*
X5083302Y-7453629D01*
X5192268Y-7487920D02*
G01*
X5083302Y-7487920D01*
X5192268Y-7487920D02*
G01*
X5192268Y-7555484D01*
X5140452Y-7487920D02*
G01*
X5140452Y-7529576D01*
X5083302Y-7487920D02*
G01*
X5083302Y-7555484D01*
X5192268Y-7589773D02*
G01*
X5083302Y-7589773D01*
X5192268Y-7589773D02*
G01*
X5192268Y-7626350D01*
X5187188Y-7641844D01*
X5176774Y-7652258D01*
X5166359Y-7657337D01*
X5150611Y-7662671D01*
X5124704Y-7662671D01*
X5109209Y-7657337D01*
X5098795Y-7652258D01*
X5088381Y-7641844D01*
X5083302Y-7626350D01*
X5083302Y-7589773D01*
X5171440Y-7696962D02*
G01*
X5176774Y-7707376D01*
X5192268Y-7722870D01*
X5083302Y-7722870D01*
X3632200Y-3961384D02*
G01*
X3632200Y-4070350D01*
X3632200Y-3961384D02*
G01*
X3673856Y-4070350D01*
X3715258Y-3961384D02*
G01*
X3673856Y-4070350D01*
X3715258Y-3961384D02*
G01*
X3715258Y-4070350D01*
X3749547Y-3961384D02*
G01*
X3749547Y-4070350D01*
X3861815Y-3987292D02*
G01*
X3856736Y-3976878D01*
X3846322Y-3966463D01*
X3835908Y-3961384D01*
X3815079Y-3961384D01*
X3804665Y-3966463D01*
X3794252Y-3976878D01*
X3789172Y-3987292D01*
X3783838Y-4003039D01*
X3783838Y-4028947D01*
X3789172Y-4044442D01*
X3794252Y-4054855D01*
X3804665Y-4065270D01*
X3815079Y-4070350D01*
X3835908Y-4070350D01*
X3846322Y-4065270D01*
X3856736Y-4054855D01*
X3861815Y-4044442D01*
X4394200Y-8332215D02*
G01*
X4394200Y-8223250D01*
X4394200Y-8332215D02*
G01*
X4347463Y-8332215D01*
X4331970Y-8327136D01*
X4326636Y-8321802D01*
X4321556Y-8311387D01*
X4321556Y-8300973D01*
X4326636Y-8290560D01*
X4331970Y-8285479D01*
X4347463Y-8280400D01*
X4394200Y-8280400D01*
X4357877Y-8280400D02*
G01*
X4321556Y-8223250D01*
X4287265Y-8311387D02*
G01*
X4276852Y-8316721D01*
X4261104Y-8332215D01*
X4261104Y-8223250D01*
X3885184Y-3530600D02*
G01*
X3994150Y-3530600D01*
X3885184Y-3530600D02*
G01*
X3885184Y-3483863D01*
X3890263Y-3468370D01*
X3895597Y-3463036D01*
X3906011Y-3457955D01*
X3916425Y-3457955D01*
X3926840Y-3463036D01*
X3931920Y-3468370D01*
X3937000Y-3483863D01*
X3937000Y-3530600D01*
X3937000Y-3494278D02*
G01*
X3994150Y-3457955D01*
X3911091Y-3418331D02*
G01*
X3906011Y-3418331D01*
X3895597Y-3413252D01*
X3890263Y-3407918D01*
X3885184Y-3397504D01*
X3885184Y-3376929D01*
X3890263Y-3366515D01*
X3895597Y-3361181D01*
X3906011Y-3356102D01*
X3916425Y-3356102D01*
X3926840Y-3361181D01*
X3942334Y-3371595D01*
X3994150Y-3423665D01*
X3994150Y-3350768D01*
X5283200Y-4228084D02*
G01*
X5283200Y-4337050D01*
X5283200Y-4228084D02*
G01*
X5329936Y-4228084D01*
X5345429Y-4233163D01*
X5350763Y-4238497D01*
X5355843Y-4248912D01*
X5355843Y-4259326D01*
X5350763Y-4269739D01*
X5345429Y-4274820D01*
X5329936Y-4279900D01*
X5283200Y-4279900D01*
X5319522Y-4279900D02*
G01*
X5355843Y-4337050D01*
X5400547Y-4228084D02*
G01*
X5457697Y-4228084D01*
X5426709Y-4269739D01*
X5442204Y-4269739D01*
X5452618Y-4274820D01*
X5457697Y-4279900D01*
X5463031Y-4295647D01*
X5463031Y-4306062D01*
X5457697Y-4321555D01*
X5447284Y-4331970D01*
X5431790Y-4337050D01*
X5416295Y-4337050D01*
X5400547Y-4331970D01*
X5395468Y-4326889D01*
X5390134Y-4316476D01*
X6653784Y-3505200D02*
G01*
X6762750Y-3505200D01*
X6653784Y-3505200D02*
G01*
X6653784Y-3458463D01*
X6658863Y-3442970D01*
X6664197Y-3437636D01*
X6674611Y-3432555D01*
X6685025Y-3432555D01*
X6695440Y-3437636D01*
X6700520Y-3442970D01*
X6705600Y-3458463D01*
X6705600Y-3505200D01*
X6705600Y-3468878D02*
G01*
X6762750Y-3432555D01*
X6653784Y-3346195D02*
G01*
X6726427Y-3398265D01*
X6726427Y-3320287D01*
X6653784Y-3346195D02*
G01*
X6762750Y-3346195D01*
X5270500Y-4723384D02*
G01*
X5270500Y-4832350D01*
X5270500Y-4723384D02*
G01*
X5317236Y-4723384D01*
X5332729Y-4728463D01*
X5338063Y-4733797D01*
X5343143Y-4744212D01*
X5343143Y-4754626D01*
X5338063Y-4765039D01*
X5332729Y-4770120D01*
X5317236Y-4775200D01*
X5270500Y-4775200D01*
X5306822Y-4775200D02*
G01*
X5343143Y-4832350D01*
X5439918Y-4723384D02*
G01*
X5387847Y-4723384D01*
X5382768Y-4770120D01*
X5387847Y-4765039D01*
X5403595Y-4759705D01*
X5419090Y-4759705D01*
X5434584Y-4765039D01*
X5444997Y-4775200D01*
X5450331Y-4790947D01*
X5450331Y-4801362D01*
X5444997Y-4816855D01*
X5434584Y-4827270D01*
X5419090Y-4832350D01*
X5403595Y-4832350D01*
X5387847Y-4827270D01*
X5382768Y-4822189D01*
X5377434Y-4811776D01*
X5257800Y-5180584D02*
G01*
X5257800Y-5289550D01*
X5257800Y-5180584D02*
G01*
X5304536Y-5180584D01*
X5320029Y-5185663D01*
X5325363Y-5190997D01*
X5330443Y-5201412D01*
X5330443Y-5211826D01*
X5325363Y-5222239D01*
X5320029Y-5227320D01*
X5304536Y-5232400D01*
X5257800Y-5232400D01*
X5294122Y-5232400D02*
G01*
X5330443Y-5289550D01*
X5427218Y-5196078D02*
G01*
X5421884Y-5185663D01*
X5406390Y-5180584D01*
X5395975Y-5180584D01*
X5380481Y-5185663D01*
X5370068Y-5201412D01*
X5364734Y-5227320D01*
X5364734Y-5253228D01*
X5370068Y-5274055D01*
X5380481Y-5284470D01*
X5395975Y-5289550D01*
X5401309Y-5289550D01*
X5416804Y-5284470D01*
X5427218Y-5274055D01*
X5432297Y-5258562D01*
X5432297Y-5253228D01*
X5427218Y-5237734D01*
X5416804Y-5227320D01*
X5401309Y-5222239D01*
X5395975Y-5222239D01*
X5380481Y-5227320D01*
X5370068Y-5237734D01*
X5364734Y-5253228D01*
X5295900Y-6552184D02*
G01*
X5295900Y-6661150D01*
X5295900Y-6552184D02*
G01*
X5342636Y-6552184D01*
X5358129Y-6557263D01*
X5363463Y-6562597D01*
X5368543Y-6573012D01*
X5368543Y-6583426D01*
X5363463Y-6593839D01*
X5358129Y-6598920D01*
X5342636Y-6604000D01*
X5295900Y-6604000D01*
X5332222Y-6604000D02*
G01*
X5368543Y-6661150D01*
X5475731Y-6552184D02*
G01*
X5423661Y-6661150D01*
X5402834Y-6552184D02*
G01*
X5475731Y-6552184D01*
X7161784Y-3505200D02*
G01*
X7270750Y-3505200D01*
X7161784Y-3505200D02*
G01*
X7161784Y-3458463D01*
X7166863Y-3442970D01*
X7172197Y-3437636D01*
X7182611Y-3432555D01*
X7193025Y-3432555D01*
X7203440Y-3437636D01*
X7208520Y-3442970D01*
X7213600Y-3458463D01*
X7213600Y-3505200D01*
X7213600Y-3468878D02*
G01*
X7270750Y-3432555D01*
X7161784Y-3372104D02*
G01*
X7166863Y-3387852D01*
X7177277Y-3392931D01*
X7187691Y-3392931D01*
X7198106Y-3387852D01*
X7203440Y-3377437D01*
X7208520Y-3356610D01*
X7213600Y-3341115D01*
X7224013Y-3330702D01*
X7234427Y-3325368D01*
X7250175Y-3325368D01*
X7260590Y-3330702D01*
X7265670Y-3335781D01*
X7270750Y-3351529D01*
X7270750Y-3372104D01*
X7265670Y-3387852D01*
X7260590Y-3392931D01*
X7250175Y-3398265D01*
X7234427Y-3398265D01*
X7224013Y-3392931D01*
X7213600Y-3382518D01*
X7208520Y-3367023D01*
X7203440Y-3346195D01*
X7198106Y-3335781D01*
X7187691Y-3330702D01*
X7177277Y-3330702D01*
X7166863Y-3335781D01*
X7161784Y-3351529D01*
X7161784Y-3372104D01*
X7161784Y-5448300D02*
G01*
X7270750Y-5448300D01*
X7161784Y-5448300D02*
G01*
X7161784Y-5401563D01*
X7166863Y-5386070D01*
X7172197Y-5380736D01*
X7182611Y-5375655D01*
X7193025Y-5375655D01*
X7203440Y-5380736D01*
X7208520Y-5386070D01*
X7213600Y-5401563D01*
X7213600Y-5448300D01*
X7213600Y-5411978D02*
G01*
X7270750Y-5375655D01*
X7198106Y-5273802D02*
G01*
X7213600Y-5278881D01*
X7224013Y-5289295D01*
X7229347Y-5304789D01*
X7229347Y-5310123D01*
X7224013Y-5325618D01*
X7213600Y-5336031D01*
X7198106Y-5341365D01*
X7193025Y-5341365D01*
X7177277Y-5336031D01*
X7166863Y-5325618D01*
X7161784Y-5310123D01*
X7161784Y-5304789D01*
X7166863Y-5289295D01*
X7177277Y-5278881D01*
X7198106Y-5273802D01*
X7224013Y-5273802D01*
X7250175Y-5278881D01*
X7265670Y-5289295D01*
X7270750Y-5304789D01*
X7270750Y-5315204D01*
X7265670Y-5330952D01*
X7255256Y-5336031D01*
X5791200Y-7288784D02*
G01*
X5791200Y-7397750D01*
X5791200Y-7288784D02*
G01*
X5837936Y-7288784D01*
X5853429Y-7293863D01*
X5858763Y-7299197D01*
X5863843Y-7309612D01*
X5863843Y-7320026D01*
X5858763Y-7330439D01*
X5853429Y-7335520D01*
X5837936Y-7340600D01*
X5791200Y-7340600D01*
X5827522Y-7340600D02*
G01*
X5863843Y-7397750D01*
X5898134Y-7309612D02*
G01*
X5908547Y-7304278D01*
X5924295Y-7288784D01*
X5924295Y-7397750D01*
X5989574Y-7288784D02*
G01*
X5974079Y-7293863D01*
X5963665Y-7309612D01*
X5958586Y-7335520D01*
X5958586Y-7351013D01*
X5963665Y-7377176D01*
X5974079Y-7392670D01*
X5989574Y-7397750D01*
X5999988Y-7397750D01*
X6015736Y-7392670D01*
X6026150Y-7377176D01*
X6031229Y-7351013D01*
X6031229Y-7335520D01*
X6026150Y-7309612D01*
X6015736Y-7293863D01*
X5999988Y-7288784D01*
X5989574Y-7288784D01*
X9776459Y-8180831D02*
G01*
X9776459Y-8071865D01*
X9776459Y-8180831D02*
G01*
X9729724Y-8180831D01*
X9714229Y-8175752D01*
X9708895Y-8170418D01*
X9703815Y-8160004D01*
X9703815Y-8149589D01*
X9708895Y-8139176D01*
X9714229Y-8134095D01*
X9729724Y-8129015D01*
X9776459Y-8129015D01*
X9740138Y-8129015D02*
G01*
X9703815Y-8071865D01*
X9669525Y-8160004D02*
G01*
X9659111Y-8165337D01*
X9643363Y-8180831D01*
X9643363Y-8071865D01*
X9609074Y-8160004D02*
G01*
X9598659Y-8165337D01*
X9583165Y-8180831D01*
X9583165Y-8071865D01*
X4647184Y-6197600D02*
G01*
X4756150Y-6197600D01*
X4647184Y-6197600D02*
G01*
X4647184Y-6150863D01*
X4652263Y-6135370D01*
X4657597Y-6130036D01*
X4668011Y-6124955D01*
X4678425Y-6124955D01*
X4688840Y-6130036D01*
X4693920Y-6135370D01*
X4699000Y-6150863D01*
X4699000Y-6197600D01*
X4699000Y-6161278D02*
G01*
X4756150Y-6124955D01*
X4647184Y-6090665D02*
G01*
X4756150Y-6064504D01*
X4647184Y-6038595D02*
G01*
X4756150Y-6064504D01*
X4647184Y-6038595D02*
G01*
X4756150Y-6012687D01*
X4647184Y-5986779D02*
G01*
X4756150Y-6012687D01*
X5891784Y-4883657D02*
G01*
X5896863Y-4894071D01*
X5907277Y-4904486D01*
X5917691Y-4909820D01*
X5933440Y-4914900D01*
X5959347Y-4914900D01*
X5974841Y-4909820D01*
X5985256Y-4904486D01*
X5995670Y-4894071D01*
X6000750Y-4883657D01*
X6000750Y-4862829D01*
X5995670Y-4852670D01*
X5985256Y-4842255D01*
X5974841Y-4836921D01*
X5959347Y-4831842D01*
X5933440Y-4831842D01*
X5917691Y-4836921D01*
X5907277Y-4842255D01*
X5896863Y-4852670D01*
X5891784Y-4862829D01*
X5891784Y-4883657D01*
X5980175Y-4868163D02*
G01*
X6011163Y-4836921D01*
X5912611Y-4797552D02*
G01*
X5907277Y-4787137D01*
X5891784Y-4771389D01*
X6000750Y-4771389D01*
X7669784Y-6775958D02*
G01*
X7674863Y-6786371D01*
X7685277Y-6796786D01*
X7695691Y-6802120D01*
X7711440Y-6807200D01*
X7737347Y-6807200D01*
X7752841Y-6802120D01*
X7763256Y-6796786D01*
X7773670Y-6786371D01*
X7778750Y-6775958D01*
X7778750Y-6755129D01*
X7773670Y-6744970D01*
X7763256Y-6734555D01*
X7752841Y-6729221D01*
X7737347Y-6724142D01*
X7711440Y-6724142D01*
X7695691Y-6729221D01*
X7685277Y-6734555D01*
X7674863Y-6744970D01*
X7669784Y-6755129D01*
X7669784Y-6775958D01*
X7758175Y-6760463D02*
G01*
X7789163Y-6729221D01*
X7695691Y-6684518D02*
G01*
X7690611Y-6684518D01*
X7680197Y-6679437D01*
X7674863Y-6674104D01*
X7669784Y-6663689D01*
X7669784Y-6643115D01*
X7674863Y-6632702D01*
X7680197Y-6627368D01*
X7690611Y-6622287D01*
X7701025Y-6622287D01*
X7711440Y-6627368D01*
X7726934Y-6637781D01*
X7778750Y-6689852D01*
X7778750Y-6616954D01*
X8317484Y-8071358D02*
G01*
X8322563Y-8081771D01*
X8332977Y-8092186D01*
X8343391Y-8097520D01*
X8359140Y-8102600D01*
X8385047Y-8102600D01*
X8400541Y-8097520D01*
X8410956Y-8092186D01*
X8421370Y-8081771D01*
X8426450Y-8071358D01*
X8426450Y-8050529D01*
X8421370Y-8040370D01*
X8410956Y-8029955D01*
X8400541Y-8024621D01*
X8385047Y-8019542D01*
X8359140Y-8019542D01*
X8343391Y-8024621D01*
X8332977Y-8029955D01*
X8322563Y-8040370D01*
X8317484Y-8050529D01*
X8317484Y-8071358D01*
X8405875Y-8055863D02*
G01*
X8436863Y-8024621D01*
X8317484Y-7974837D02*
G01*
X8317484Y-7917687D01*
X8359140Y-7948929D01*
X8359140Y-7933181D01*
X8364220Y-7922768D01*
X8369300Y-7917687D01*
X8385047Y-7912354D01*
X8395461Y-7912354D01*
X8410956Y-7917687D01*
X8421370Y-7928102D01*
X8426450Y-7943595D01*
X8426450Y-7959089D01*
X8421370Y-7974837D01*
X8416290Y-7979918D01*
X8405875Y-7985252D01*
G36*
X4076700Y-7507325D02*
G01*
X4086453Y-7516875D01*
X4096715Y-7525867D01*
X4107535Y-7534249D01*
X4118813Y-7541971D01*
X4130548Y-7548981D01*
X4142689Y-7555280D01*
X4155186Y-7560818D01*
X4167936Y-7565644D01*
X4181043Y-7569657D01*
X4194301Y-7572908D01*
X4207764Y-7575346D01*
X4221327Y-7576972D01*
X4234942Y-7577785D01*
X4248607Y-7577785D01*
X4262272Y-7576972D01*
X4275836Y-7575346D01*
X4289298Y-7572908D01*
X4302556Y-7569657D01*
X4315612Y-7565644D01*
X4328414Y-7560818D01*
X4340910Y-7555280D01*
X4353052Y-7548981D01*
X4364786Y-7541971D01*
X4376064Y-7534249D01*
X4386884Y-7525867D01*
X4397146Y-7516875D01*
X4406900Y-7507325D01*
G37*
G36*
X7924800Y-3290925D02*
G01*
X7934553Y-3300476D01*
X7944815Y-3309467D01*
X7955635Y-3317849D01*
X7966913Y-3325571D01*
X7978648Y-3332581D01*
X7990789Y-3338880D01*
X8003286Y-3344418D01*
X8016036Y-3349244D01*
X8029143Y-3353257D01*
X8042402Y-3356508D01*
X8055864Y-3358946D01*
X8069427Y-3360572D01*
X8083042Y-3361385D01*
X8096707Y-3361385D01*
X8110372Y-3360572D01*
X8123936Y-3358946D01*
X8137398Y-3356508D01*
X8150656Y-3353257D01*
X8163712Y-3349244D01*
X8176514Y-3344418D01*
X8189010Y-3338880D01*
X8201152Y-3332581D01*
X8212886Y-3325571D01*
X8224164Y-3317849D01*
X8234984Y-3309467D01*
X8245246Y-3300476D01*
X8255000Y-3290925D01*
G37*
G36*
X8089900Y-3521913D02*
G01*
X8076234Y-3522319D01*
X8062620Y-3523538D01*
X8049107Y-3525570D01*
X8035747Y-3528415D01*
X8022590Y-3532073D01*
X8016087Y-3534156D01*
X8003286Y-3538982D01*
X7990789Y-3544519D01*
X7978648Y-3550818D01*
X7966913Y-3557828D01*
X7955635Y-3565550D01*
X7944815Y-3573932D01*
X7934553Y-3582924D01*
X7924800Y-3592474D01*
X8255000Y-3592474D01*
X8245246Y-3582924D01*
X8234984Y-3573932D01*
X8224164Y-3565550D01*
X8212886Y-3557828D01*
X8201152Y-3550818D01*
X8189010Y-3544519D01*
X8176514Y-3538982D01*
X8163763Y-3534156D01*
X8150656Y-3530142D01*
X8137398Y-3526891D01*
X8123936Y-3524453D01*
X8110372Y-3522827D01*
X8096758Y-3522014D01*
G37*
D11*
X10076179Y-5077460D02*
G01*
X9837420Y-5077460D01*
X9837420Y-5077460D02*
G01*
X9837420Y-4447539D01*
X9837420Y-4447539D02*
G01*
X10076179Y-4447539D01*
X10076179Y-4447539D02*
G01*
X10076179Y-5077460D01*
X4436417Y-7262472D02*
G01*
X4356417Y-7262472D01*
X4396417Y-7222472D02*
G01*
X4396417Y-7302472D01*
X8284517Y-3046072D02*
G01*
X8204517Y-3046072D01*
X8244517Y-3006072D02*
G01*
X8244517Y-3086072D01*
X7895282Y-3837327D02*
G01*
X7975282Y-3837327D01*
X7935282Y-3877327D02*
G01*
X7935282Y-3797327D01*
D12*
X4902454Y-2895854D02*
G01*
X4902454Y-3403854D01*
X5156454Y-3403854D01*
X5156454Y-2895854D01*
X4902454Y-2895854D01*
X5625845Y-3848354D02*
G01*
X5117845Y-3848354D01*
X5117845Y-4102354D01*
X5625845Y-4102354D01*
X5625845Y-3848354D01*
X6362445Y-5841745D02*
G01*
X6362445Y-5333745D01*
X6108445Y-5333745D01*
X6108445Y-5841745D01*
X6362445Y-5841745D01*
X4660645Y-6819645D02*
G01*
X4660645Y-6311645D01*
X4406645Y-6311645D01*
X4406645Y-6819645D01*
X4660645Y-6819645D01*
X7201154Y-8254745D02*
G01*
X7709154Y-8254745D01*
X7709154Y-8000745D01*
X7201154Y-8000745D01*
X7201154Y-8254745D01*
X7213345Y-7328154D02*
G01*
X6705345Y-7328154D01*
X6705345Y-7582154D01*
X7213345Y-7582154D01*
X7213345Y-7328154D01*
X7518654Y-6845554D02*
G01*
X7518654Y-7353554D01*
X7772654Y-7353554D01*
X7772654Y-6845554D01*
X7518654Y-6845554D01*
X7963154Y-5714745D02*
G01*
X8471154Y-5714745D01*
X8471154Y-5460745D01*
X7963154Y-5460745D01*
X7963154Y-5714745D01*
X8381745Y-7366254D02*
G01*
X7873745Y-7366254D01*
X7873745Y-7620254D01*
X8381745Y-7620254D01*
X8381745Y-7366254D01*
X8381745Y-7975854D02*
G01*
X7873745Y-7975854D01*
X7873745Y-8229854D01*
X8381745Y-8229854D01*
X8381745Y-7975854D01*
X9194800Y-6015989D02*
G01*
X8686800Y-6015989D01*
X8686800Y-6269989D01*
X9194800Y-6269989D01*
X9194800Y-6015989D01*
X8940545Y-6667754D02*
G01*
X8432545Y-6667754D01*
X8432545Y-6921754D01*
X8940545Y-6921754D01*
X8940545Y-6667754D01*
X9918954Y-6235954D02*
G01*
X9918954Y-6743954D01*
X10172954Y-6743954D01*
X10172954Y-6235954D01*
X9918954Y-6235954D01*
X10197845Y-5664454D02*
G01*
X9689845Y-5664454D01*
X9689845Y-5918454D01*
X10197845Y-5918454D01*
X10197845Y-5664454D01*
X9156445Y-4496054D02*
G01*
X8648445Y-4496054D01*
X8648445Y-4750054D01*
X9156445Y-4750054D01*
X9156445Y-4496054D01*
D11*
X6934200Y-5080000D02*
G01*
X6934200Y-5588000D01*
X6934200Y-5588000D02*
G01*
X6858000Y-5588000D01*
X6858000Y-5588000D02*
G01*
X6781800Y-5588000D01*
X6781800Y-5588000D02*
G01*
X6781800Y-5080000D01*
X6781800Y-5080000D02*
G01*
X6858000Y-5080000D01*
X6858000Y-5080000D02*
G01*
X6934200Y-5080000D01*
X6858000Y-5588000D02*
G01*
X6858000Y-5613400D01*
X6858000Y-5080000D02*
G01*
X6858000Y-5054600D01*
X6921500Y-5524500D02*
G01*
X6794500Y-5524500D01*
X6591300Y-6032500D02*
G01*
X6591300Y-6540500D01*
X6591300Y-6540500D02*
G01*
X6515100Y-6540500D01*
X6515100Y-6540500D02*
G01*
X6438900Y-6540500D01*
X6438900Y-6540500D02*
G01*
X6438900Y-6032500D01*
X6438900Y-6032500D02*
G01*
X6515100Y-6032500D01*
X6515100Y-6032500D02*
G01*
X6591300Y-6032500D01*
X6515100Y-6540500D02*
G01*
X6515100Y-6565900D01*
X6515100Y-6032500D02*
G01*
X6515100Y-6007100D01*
X6578600Y-6477000D02*
G01*
X6451600Y-6477000D01*
X3730614Y-7879504D02*
G01*
X3740152Y-7879504D01*
X3740152Y-7772402D01*
X3365657Y-7879504D02*
G01*
X3584384Y-7879504D01*
X3017504Y-7879504D02*
G01*
X3163945Y-7879504D01*
X3730614Y-6979503D02*
G01*
X3740152Y-6979503D01*
X3740152Y-7086386D01*
X3378357Y-6979503D02*
G01*
X3584384Y-6979503D01*
X3017504Y-6979503D02*
G01*
X3176645Y-6979503D01*
X3017504Y-6979503D02*
G01*
X3017504Y-7879504D01*
X3125901Y-5849899D02*
G01*
X3125901Y-5249900D01*
X3325901Y-5849899D02*
G01*
X3125901Y-5849899D01*
X3325901Y-5249900D02*
G01*
X3125901Y-5249900D01*
X3425901Y-6149898D02*
G01*
X4525899Y-6149898D01*
X3425901Y-4949901D02*
G01*
X4525899Y-4949901D01*
X3325901Y-6052525D02*
G01*
X3325901Y-5049901D01*
X3425901Y-5049901D02*
G01*
X3425901Y-4949901D01*
X3425901Y-5049901D02*
G01*
X3325901Y-5049901D01*
X3425901Y-6049898D02*
G01*
X3425901Y-6149898D01*
X3325901Y-6052525D02*
G01*
X3425901Y-6052525D01*
X3425901Y-6049898D02*
G01*
X3425901Y-5049901D01*
X4525899Y-6149898D02*
G01*
X4525899Y-4949901D01*
X6448800Y-7938970D02*
G01*
X6448800Y-8259099D01*
X6218666Y-8259099D01*
X6328933Y-7819100D02*
G01*
X6098801Y-7819100D01*
X6098801Y-8139229D01*
X7907020Y-5194300D02*
G01*
X7907020Y-4864100D01*
X7907020Y-4864100D02*
G01*
X8806179Y-4864100D01*
X8806179Y-4864100D02*
G01*
X8806179Y-5194300D01*
X8806179Y-5194300D02*
G01*
X7907020Y-5194300D01*
X9075420Y-7505700D02*
G01*
X9075420Y-7175500D01*
X9075420Y-7175500D02*
G01*
X9974579Y-7175500D01*
X9974579Y-7175500D02*
G01*
X9974579Y-7505700D01*
X9974579Y-7505700D02*
G01*
X9075420Y-7505700D01*
X4688700Y-7284511D02*
G01*
X4688700Y-7311737D01*
X4688700Y-7521862D02*
G01*
X4688700Y-7549088D01*
X3889413Y-4225996D02*
G01*
X3989415Y-4225996D01*
X3989415Y-4236003D01*
X3889413Y-4236003D01*
X3889413Y-4225996D01*
X3934396Y-4180987D02*
G01*
X3944406Y-4180987D01*
X3944406Y-4280987D01*
X3934396Y-4280987D01*
X3934396Y-4180987D01*
X4709159Y-7945120D02*
G01*
X4709159Y-8183879D01*
X4709159Y-8183879D02*
G01*
X4079240Y-8183879D01*
X4079240Y-8183879D02*
G01*
X4079240Y-7945120D01*
X4079240Y-7945120D02*
G01*
X4709159Y-7945120D01*
X4272279Y-3845560D02*
G01*
X4033520Y-3845560D01*
X4033520Y-3845560D02*
G01*
X4033520Y-3215639D01*
X4033520Y-3215639D02*
G01*
X4272279Y-3215639D01*
X4272279Y-3215639D02*
G01*
X4272279Y-3845560D01*
X4968240Y-4615179D02*
G01*
X4968240Y-4376420D01*
X4968240Y-4376420D02*
G01*
X5598159Y-4376420D01*
X5598159Y-4376420D02*
G01*
X5598159Y-4615179D01*
X5598159Y-4615179D02*
G01*
X4968240Y-4615179D01*
X7040879Y-3820160D02*
G01*
X6802120Y-3820160D01*
X6802120Y-3820160D02*
G01*
X6802120Y-3190239D01*
X6802120Y-3190239D02*
G01*
X7040879Y-3190239D01*
X7040879Y-3190239D02*
G01*
X7040879Y-3820160D01*
X4955540Y-5110479D02*
G01*
X4955540Y-4871720D01*
X4955540Y-4871720D02*
G01*
X5585459Y-4871720D01*
X5585459Y-4871720D02*
G01*
X5585459Y-5110479D01*
X5585459Y-5110479D02*
G01*
X4955540Y-5110479D01*
X4942840Y-5567679D02*
G01*
X4942840Y-5328920D01*
X4942840Y-5328920D02*
G01*
X5572759Y-5328920D01*
X5572759Y-5328920D02*
G01*
X5572759Y-5567679D01*
X5572759Y-5567679D02*
G01*
X4942840Y-5567679D01*
X4980940Y-6939279D02*
G01*
X4980940Y-6700520D01*
X4980940Y-6700520D02*
G01*
X5610859Y-6700520D01*
X5610859Y-6700520D02*
G01*
X5610859Y-6939279D01*
X5610859Y-6939279D02*
G01*
X4980940Y-6939279D01*
X7548879Y-3820160D02*
G01*
X7310120Y-3820160D01*
X7310120Y-3820160D02*
G01*
X7310120Y-3190239D01*
X7310120Y-3190239D02*
G01*
X7548879Y-3190239D01*
X7548879Y-3190239D02*
G01*
X7548879Y-3820160D01*
X7548879Y-5763260D02*
G01*
X7310120Y-5763260D01*
X7310120Y-5763260D02*
G01*
X7310120Y-5133339D01*
X7310120Y-5133339D02*
G01*
X7548879Y-5133339D01*
X7548879Y-5133339D02*
G01*
X7548879Y-5763260D01*
X5476240Y-7675879D02*
G01*
X5476240Y-7437120D01*
X5476240Y-7437120D02*
G01*
X6106159Y-7437120D01*
X6106159Y-7437120D02*
G01*
X6106159Y-7675879D01*
X6106159Y-7675879D02*
G01*
X5476240Y-7675879D01*
X10055859Y-7741920D02*
G01*
X10055859Y-7980679D01*
X10055859Y-7980679D02*
G01*
X9425940Y-7980679D01*
X9425940Y-7980679D02*
G01*
X9425940Y-7741920D01*
X9425940Y-7741920D02*
G01*
X10055859Y-7741920D01*
X4803140Y-6388100D02*
G01*
X4803140Y-6007100D01*
X4803140Y-6007100D02*
G01*
X4953000Y-5857239D01*
X4953000Y-5857239D02*
G01*
X5613400Y-5857239D01*
X5613400Y-5857239D02*
G01*
X5613400Y-6070600D01*
X5613400Y-6070600D02*
G01*
X5552440Y-6070600D01*
X5552440Y-6070600D02*
G01*
X5552440Y-6324600D01*
X5552440Y-6324600D02*
G01*
X5613400Y-6324600D01*
X5613400Y-6324600D02*
G01*
X5613400Y-6537960D01*
X5613400Y-6537960D02*
G01*
X4953000Y-6537960D01*
X4953000Y-6537960D02*
G01*
X4803140Y-6388100D01*
X4975859Y-6240779D02*
G01*
X5100320Y-6240779D01*
X4975859Y-6154420D02*
G01*
X5100320Y-6154420D01*
X5186679Y-6240779D02*
G01*
X5311140Y-6240779D01*
X5186679Y-6154420D02*
G01*
X5311140Y-6154420D01*
X5100320Y-6365239D02*
G01*
X5100320Y-6029960D01*
X5186679Y-6365239D02*
G01*
X5186679Y-6029960D01*
X6446520Y-5102654D02*
G01*
X6446481Y-4701755D01*
X8252586Y-6583809D02*
G01*
X8252586Y-6979790D01*
X8872220Y-8290354D02*
G01*
X8872181Y-7889455D01*
G75*
G01*
X6193800Y-8164096D02*
G03*
X6278725Y-8046204I38623J61712D01*
G75*
G01*
X6278893Y-8039740D02*
G03*
X6358956Y-7918341I37013J62690D01*
G75*
G01*
X5014140Y-7320778D02*
G03*
X4688700Y-7284512I-175441J-96022D01*
G75*
G01*
X4688700Y-7549088D02*
G03*
X5014140Y-7512822I149999J132288D01*
G75*
G01*
X6446502Y-4701756D02*
G03*
X6446482Y-5102654I-134345J-200442D01*
G75*
G01*
X8252714Y-6583680D02*
G03*
X8252714Y-6979920I-149840J-198120D01*
G75*
G01*
X8872202Y-7889456D02*
G03*
X8872182Y-8290354I-134345J-200442D01*
D13*
G75*
G01
X4491817Y-7327890D02*
G03X4491817Y-7327890I-250012J0D01*
G75*
G01
X8339917Y-3111490D02*
G03X8339917Y-3111490I-250012J0D01*
G75*
G01
X8339907Y-3771910D02*
G03X8339907Y-3771910I-250012J0D01*
D14*
G75*
G01
X3896510Y-4421505D02*
G03X3896510Y-4421505I-299999J0D01*
D11*
G75*
G01
X5316220Y-6197600D02*
G03X5316220Y-6197600I-172720J0D01*
M02*
