G04 Layer: TopPasteMaskLayer*
G04 EasyEDA v6.5.57, 2026-07-01 22:14:42*
G04 15a076fc9ded47d28cba514a5cb7d71c,8490137ff82c4f019f8b52c78a78dcac,10*
G04 Gerber Generator version 0.2*
G04 Scale: 100 percent, Rotated: No, Reflected: No *
G04 Dimensions in millimeters *
G04 leading zeros omitted , absolute positions ,4 integer and 5 decimal *
%FSLAX45Y45*%
%MOMM*%

%ADD10C,0.0184*%

%LPD*%
G36*
X3627475Y-7109510D02*
G01*
X3627475Y-7199477D01*
X3787495Y-7199477D01*
X3787495Y-7109510D01*
G37*
G36*
X3627475Y-7237475D02*
G01*
X3627475Y-7317486D01*
X3787495Y-7317486D01*
X3787495Y-7237475D01*
G37*
G36*
X3627475Y-7344511D02*
G01*
X3627475Y-7414514D01*
X3787495Y-7414514D01*
X3787495Y-7344511D01*
G37*
G36*
X3627475Y-7444486D02*
G01*
X3627475Y-7514488D01*
X3787495Y-7514488D01*
X3787495Y-7444486D01*
G37*
G36*
X3627475Y-7541514D02*
G01*
X3627475Y-7621473D01*
X3787495Y-7621473D01*
X3787495Y-7541514D01*
G37*
G36*
X3627475Y-7659522D02*
G01*
X3627475Y-7749489D01*
X3787495Y-7749489D01*
X3787495Y-7659522D01*
G37*
G36*
X3607511Y-6797497D02*
G01*
X3607511Y-6997496D01*
X3707485Y-6997496D01*
X3707485Y-6797497D01*
G37*
G36*
X3607511Y-7861503D02*
G01*
X3607511Y-8061502D01*
X3707485Y-8061502D01*
X3707485Y-7861503D01*
G37*
G36*
X3247491Y-6947509D02*
G01*
X3242513Y-6947763D01*
X3237585Y-6948474D01*
X3232759Y-6949694D01*
X3228086Y-6951421D01*
X3223564Y-6953605D01*
X3219297Y-6956196D01*
X3215335Y-6959193D01*
X3211677Y-6962597D01*
X3208375Y-6966305D01*
X3205480Y-6970369D01*
X3202990Y-6974687D01*
X3200958Y-6979208D01*
X3199333Y-6983933D01*
X3198266Y-6988809D01*
X3197606Y-6993737D01*
X3197504Y-6998766D01*
X3197860Y-7003694D01*
X3198723Y-7008622D01*
X3200095Y-7013397D01*
X3201924Y-7018070D01*
X3204210Y-7022490D01*
X3206902Y-7026706D01*
X3210001Y-7030567D01*
X3213506Y-7034123D01*
X3217316Y-7037374D01*
X3221431Y-7040168D01*
X3225800Y-7042556D01*
X3230372Y-7044486D01*
X3235147Y-7045959D01*
X3240024Y-7046925D01*
X3245002Y-7047433D01*
X3307486Y-7047484D01*
X3312464Y-7047230D01*
X3317392Y-7046518D01*
X3322218Y-7045299D01*
X3326892Y-7043572D01*
X3331413Y-7041388D01*
X3335629Y-7038797D01*
X3339642Y-7035800D01*
X3343300Y-7032396D01*
X3346602Y-7028688D01*
X3349498Y-7024624D01*
X3351987Y-7020306D01*
X3354019Y-7015784D01*
X3355594Y-7011060D01*
X3356711Y-7006183D01*
X3357372Y-7001256D01*
X3357473Y-6996226D01*
X3357118Y-6991299D01*
X3356254Y-6986371D01*
X3354882Y-6981596D01*
X3353054Y-6976922D01*
X3350768Y-6972503D01*
X3348075Y-6968286D01*
X3344976Y-6964425D01*
X3341522Y-6960819D01*
X3337661Y-6957618D01*
X3333546Y-6954824D01*
X3329178Y-6952437D01*
X3324606Y-6950506D01*
X3319830Y-6949033D01*
X3314954Y-6948068D01*
X3309975Y-6947560D01*
G37*
G36*
X3234791Y-7811516D02*
G01*
X3229813Y-7811770D01*
X3224885Y-7812481D01*
X3220059Y-7813700D01*
X3215386Y-7815427D01*
X3210864Y-7817612D01*
X3206597Y-7820202D01*
X3202635Y-7823200D01*
X3198977Y-7826603D01*
X3195675Y-7830312D01*
X3192780Y-7834375D01*
X3190290Y-7838694D01*
X3188258Y-7843215D01*
X3186633Y-7847939D01*
X3185566Y-7852816D01*
X3184906Y-7857744D01*
X3184804Y-7862773D01*
X3185160Y-7867700D01*
X3186023Y-7872628D01*
X3187395Y-7877403D01*
X3189224Y-7882077D01*
X3191510Y-7886496D01*
X3194202Y-7890713D01*
X3197301Y-7894574D01*
X3200806Y-7898130D01*
X3204616Y-7901381D01*
X3208731Y-7904175D01*
X3213100Y-7906562D01*
X3217672Y-7908493D01*
X3222447Y-7909966D01*
X3227324Y-7910931D01*
X3232302Y-7911439D01*
X3294786Y-7911490D01*
X3299764Y-7911236D01*
X3304692Y-7910525D01*
X3309518Y-7909306D01*
X3314192Y-7907578D01*
X3318713Y-7905394D01*
X3322929Y-7902803D01*
X3326942Y-7899806D01*
X3330600Y-7896402D01*
X3333902Y-7892694D01*
X3336798Y-7888630D01*
X3339287Y-7884312D01*
X3341319Y-7879791D01*
X3342894Y-7875066D01*
X3344011Y-7870190D01*
X3344672Y-7865262D01*
X3344773Y-7860233D01*
X3344418Y-7855305D01*
X3343554Y-7850378D01*
X3342182Y-7845602D01*
X3340354Y-7840929D01*
X3338068Y-7836509D01*
X3335375Y-7832293D01*
X3332276Y-7828432D01*
X3328822Y-7824876D01*
X3324961Y-7821625D01*
X3320846Y-7818831D01*
X3316478Y-7816443D01*
X3311906Y-7814513D01*
X3307130Y-7813040D01*
X3302254Y-7812074D01*
X3297275Y-7811566D01*
G37*
M02*
