G04 Layer: BottomLayer*
G04 EasyEDA v6.5.57, 2026-07-01 22:14:42*
G04 15a076fc9ded47d28cba514a5cb7d71c,8490137ff82c4f019f8b52c78a78dcac,10*
G04 Gerber Generator version 0.2*
G04 Scale: 100 percent, Rotated: No, Reflected: No *
G04 Dimensions in millimeters *
G04 leading zeros omitted , absolute positions ,4 integer and 5 decimal *
%FSLAX45Y45*%
%MOMM*%

%ADD10C,0.2540*%
%ADD11C,1.8796*%
%ADD12C,1.3000*%
%ADD13C,1.1938*%
%ADD14O,1.599997X0.999998*%
%ADD15O,1.399997X2.199996*%
%ADD16O,0.0176X2.199996*%
%ADD17O,2.199996X1.399997*%
%ADD18C,2.0000*%
%ADD19C,1.5000*%
%ADD20C,1.6510*%
%ADD21C,1.5240*%
%ADD22C,1.3995*%
%ADD23R,1.6000X0.9000*%
%ADD24O,1.599997X0.899998*%

%LPD*%
G36*
X3134868Y-8534400D02*
G01*
X3130956Y-8533638D01*
X3127705Y-8531402D01*
X3125470Y-8528151D01*
X3124708Y-8524240D01*
X3124708Y-2779369D01*
X3125470Y-2775508D01*
X3127705Y-2772206D01*
X3131007Y-2769971D01*
X3134918Y-2769209D01*
X10682782Y-2794406D01*
X10686643Y-2795168D01*
X10689945Y-2797352D01*
X10692130Y-2800654D01*
X10692892Y-2804566D01*
X10692892Y-8524240D01*
X10692130Y-8528151D01*
X10689894Y-8531402D01*
X10686643Y-8533638D01*
X10682732Y-8534400D01*
G37*

%LPC*%
G36*
X4207967Y-8424418D02*
G01*
X8736177Y-8424418D01*
X8744204Y-8423605D01*
X8751417Y-8421420D01*
X8758072Y-8417864D01*
X8764320Y-8412734D01*
X9196324Y-7980730D01*
X9199270Y-7978648D01*
X9202724Y-7977784D01*
X9221825Y-7980680D01*
X9236608Y-7981137D01*
X9251289Y-7979765D01*
X9265716Y-7976616D01*
X9279636Y-7971688D01*
X9292844Y-7965084D01*
X9305137Y-7956956D01*
X9316364Y-7947355D01*
X9326270Y-7936433D01*
X9334804Y-7924393D01*
X9341815Y-7911388D01*
X9347149Y-7897622D01*
X9350705Y-7883347D01*
X9352534Y-7868666D01*
X9352534Y-7853934D01*
X9350705Y-7839252D01*
X9347149Y-7824978D01*
X9341815Y-7811211D01*
X9334804Y-7798206D01*
X9326270Y-7786166D01*
X9316364Y-7775244D01*
X9305137Y-7765643D01*
X9292844Y-7757515D01*
X9279636Y-7750911D01*
X9265716Y-7745984D01*
X9251289Y-7742834D01*
X9236608Y-7741513D01*
X9221825Y-7741920D01*
X9207246Y-7744206D01*
X9193072Y-7748270D01*
X9186265Y-7751114D01*
X9182354Y-7751927D01*
X9178442Y-7751165D01*
X9175140Y-7748930D01*
X8931605Y-7505395D01*
X8929370Y-7502093D01*
X8928608Y-7498181D01*
X8928608Y-7460894D01*
X8929370Y-7457033D01*
X8931554Y-7453782D01*
X8934805Y-7451547D01*
X8943441Y-7447889D01*
X8956192Y-7440523D01*
X8967978Y-7431633D01*
X8978595Y-7421372D01*
X8987840Y-7409840D01*
X8995613Y-7397292D01*
X9001760Y-7383881D01*
X9006230Y-7369860D01*
X9008973Y-7355331D01*
X9009888Y-7340600D01*
X9008973Y-7325868D01*
X9006230Y-7311339D01*
X9001760Y-7297318D01*
X8995613Y-7283907D01*
X8987840Y-7271359D01*
X8978595Y-7259828D01*
X8967978Y-7249566D01*
X8956192Y-7240676D01*
X8943441Y-7233310D01*
X8929827Y-7227570D01*
X8915654Y-7223506D01*
X8901074Y-7221220D01*
X8886291Y-7220813D01*
X8871610Y-7222134D01*
X8864752Y-7223658D01*
X8860231Y-7223607D01*
X8856218Y-7221626D01*
X8853424Y-7218121D01*
X8852408Y-7213752D01*
X8852408Y-6876694D01*
X8853068Y-6873138D01*
X8854897Y-6870039D01*
X8857691Y-6867804D01*
X8860078Y-6866483D01*
X8869832Y-6859168D01*
X8878468Y-6850532D01*
X8885783Y-6840778D01*
X8891625Y-6830059D01*
X8895892Y-6818630D01*
X8897112Y-6813194D01*
X8898890Y-6809231D01*
X8902141Y-6806438D01*
X8906306Y-6805218D01*
X8910574Y-6805828D01*
X8914180Y-6808165D01*
X10128097Y-8022031D01*
X10134346Y-8027162D01*
X10141000Y-8030718D01*
X10148214Y-8032902D01*
X10156240Y-8033715D01*
X10288828Y-8033715D01*
X10296855Y-8032902D01*
X10304068Y-8030718D01*
X10310723Y-8027162D01*
X10316972Y-8022031D01*
X10408564Y-7930438D01*
X10413695Y-7924241D01*
X10417251Y-7917535D01*
X10419435Y-7910322D01*
X10420248Y-7902295D01*
X10420248Y-7562697D01*
X10419435Y-7554671D01*
X10417251Y-7547457D01*
X10413695Y-7540802D01*
X10408564Y-7534554D01*
X10272420Y-7398410D01*
X10270134Y-7395006D01*
X10269423Y-7390942D01*
X10270337Y-7386980D01*
X10271760Y-7383881D01*
X10276230Y-7369860D01*
X10278973Y-7355331D01*
X10279888Y-7340600D01*
X10278973Y-7325868D01*
X10276230Y-7311339D01*
X10271760Y-7297318D01*
X10265613Y-7283907D01*
X10257840Y-7271359D01*
X10248595Y-7259828D01*
X10237978Y-7249566D01*
X10226192Y-7240676D01*
X10213441Y-7233310D01*
X10199827Y-7227570D01*
X10185654Y-7223506D01*
X10171074Y-7221220D01*
X10156291Y-7220813D01*
X10141610Y-7222134D01*
X10127183Y-7225284D01*
X10112603Y-7230465D01*
X10108895Y-7231024D01*
X10105186Y-7230211D01*
X10102037Y-7228078D01*
X10087305Y-7213295D01*
X10085070Y-7209993D01*
X10084308Y-7206081D01*
X10084308Y-6698894D01*
X10084968Y-6695338D01*
X10086797Y-6692239D01*
X10089591Y-6690004D01*
X10091978Y-6688683D01*
X10101732Y-6681368D01*
X10110368Y-6672732D01*
X10117683Y-6662978D01*
X10123525Y-6652259D01*
X10127792Y-6640830D01*
X10130383Y-6628892D01*
X10131247Y-6616700D01*
X10130383Y-6604508D01*
X10127792Y-6592570D01*
X10123525Y-6581140D01*
X10117683Y-6570421D01*
X10110368Y-6560667D01*
X10101732Y-6552031D01*
X10091978Y-6544716D01*
X10081260Y-6538874D01*
X10069830Y-6534607D01*
X10057892Y-6532016D01*
X10045700Y-6531152D01*
X10033508Y-6532016D01*
X10021570Y-6534607D01*
X10010140Y-6538874D01*
X9999421Y-6544716D01*
X9989667Y-6552031D01*
X9981031Y-6560667D01*
X9973716Y-6570421D01*
X9967874Y-6581140D01*
X9963607Y-6592570D01*
X9961016Y-6604508D01*
X9960152Y-6616700D01*
X9961016Y-6628892D01*
X9963607Y-6640830D01*
X9967874Y-6652259D01*
X9973716Y-6662978D01*
X9981031Y-6672732D01*
X9989667Y-6681368D01*
X9999421Y-6688683D01*
X10001808Y-6690004D01*
X10004602Y-6692239D01*
X10006431Y-6695338D01*
X10007092Y-6698894D01*
X10007092Y-7225792D01*
X10007904Y-7233818D01*
X10010089Y-7241031D01*
X10013645Y-7247737D01*
X10018776Y-7253935D01*
X10047579Y-7282789D01*
X10049764Y-7286040D01*
X10050576Y-7289800D01*
X10049865Y-7293660D01*
X10045750Y-7304278D01*
X10042194Y-7318552D01*
X10040366Y-7333234D01*
X10040366Y-7347966D01*
X10042194Y-7362647D01*
X10045750Y-7376922D01*
X10051084Y-7390688D01*
X10058095Y-7403693D01*
X10066629Y-7415733D01*
X10076535Y-7426655D01*
X10087762Y-7436256D01*
X10100056Y-7444384D01*
X10113264Y-7450988D01*
X10127183Y-7455916D01*
X10141610Y-7459065D01*
X10156291Y-7460437D01*
X10171074Y-7459980D01*
X10185654Y-7457694D01*
X10199827Y-7453630D01*
X10206634Y-7450785D01*
X10210546Y-7449972D01*
X10214457Y-7450734D01*
X10217759Y-7452969D01*
X10340035Y-7575245D01*
X10342219Y-7578547D01*
X10343032Y-7582408D01*
X10343032Y-7762290D01*
X10342270Y-7766050D01*
X10340238Y-7769301D01*
X10337088Y-7771536D01*
X10333380Y-7772450D01*
X10329570Y-7771892D01*
X10326217Y-7770012D01*
X10321137Y-7765643D01*
X10308844Y-7757515D01*
X10295636Y-7750911D01*
X10281716Y-7745984D01*
X10267289Y-7742834D01*
X10252608Y-7741513D01*
X10237825Y-7741920D01*
X10223246Y-7744206D01*
X10209072Y-7748270D01*
X10202265Y-7751114D01*
X10198354Y-7751927D01*
X10194442Y-7751165D01*
X10191140Y-7748930D01*
X9212783Y-6770573D01*
X9210548Y-6767271D01*
X9209786Y-6763359D01*
X9209786Y-6106871D01*
X9208973Y-6098844D01*
X9206788Y-6091631D01*
X9203232Y-6084976D01*
X9198102Y-6078728D01*
X9132570Y-6013196D01*
X9126321Y-6008065D01*
X9119666Y-6004509D01*
X9112453Y-6002324D01*
X9104426Y-6001512D01*
X8917178Y-6001512D01*
X8909151Y-6002324D01*
X8901938Y-6004509D01*
X8895232Y-6008065D01*
X8889034Y-6013196D01*
X8844889Y-6057290D01*
X8842146Y-6059271D01*
X8838895Y-6060236D01*
X8835542Y-6060033D01*
X8826246Y-6058052D01*
X8814054Y-6057188D01*
X8801862Y-6058052D01*
X8789924Y-6060643D01*
X8778494Y-6064910D01*
X8767775Y-6070752D01*
X8758021Y-6078067D01*
X8749385Y-6086703D01*
X8742070Y-6096457D01*
X8736228Y-6107176D01*
X8731961Y-6118606D01*
X8729370Y-6130544D01*
X8728506Y-6142736D01*
X8729370Y-6154928D01*
X8731961Y-6166866D01*
X8737854Y-6183122D01*
X8737346Y-6187287D01*
X8735212Y-6190843D01*
X8731859Y-6193282D01*
X8727744Y-6194145D01*
X8700109Y-6194145D01*
X8696198Y-6193383D01*
X8692896Y-6191148D01*
X8690711Y-6187897D01*
X8689949Y-6183985D01*
X8689949Y-5895898D01*
X8689136Y-5887872D01*
X8686952Y-5880658D01*
X8683396Y-5874004D01*
X8678265Y-5867755D01*
X8429345Y-5618835D01*
X8427364Y-5616092D01*
X8426399Y-5612841D01*
X8426602Y-5609488D01*
X8428583Y-5600192D01*
X8429447Y-5588000D01*
X8428583Y-5575808D01*
X8426602Y-5566511D01*
X8426399Y-5563158D01*
X8427364Y-5559907D01*
X8429345Y-5557164D01*
X8883040Y-5103469D01*
X8886444Y-5101234D01*
X8890457Y-5100472D01*
X8894419Y-5101386D01*
X8897721Y-5103825D01*
X8908135Y-5115255D01*
X8919362Y-5124856D01*
X8931656Y-5132984D01*
X8944864Y-5139588D01*
X8958783Y-5144516D01*
X8973210Y-5147665D01*
X8987891Y-5149037D01*
X9002674Y-5148580D01*
X9017254Y-5146294D01*
X9031427Y-5142230D01*
X9045041Y-5136489D01*
X9057792Y-5129123D01*
X9069578Y-5120233D01*
X9080195Y-5109972D01*
X9089440Y-5098440D01*
X9097213Y-5085892D01*
X9103360Y-5072481D01*
X9107830Y-5058460D01*
X9110573Y-5043932D01*
X9111488Y-5029200D01*
X9110573Y-5014468D01*
X9107830Y-4999939D01*
X9103360Y-4985918D01*
X9097213Y-4972507D01*
X9089440Y-4959959D01*
X9080195Y-4948428D01*
X9069578Y-4938166D01*
X9057792Y-4929276D01*
X9045041Y-4921910D01*
X9031427Y-4916170D01*
X9017254Y-4912106D01*
X9002674Y-4909820D01*
X8987891Y-4909413D01*
X8973210Y-4910734D01*
X8958783Y-4913884D01*
X8944864Y-4918811D01*
X8931656Y-4925415D01*
X8919362Y-4933543D01*
X8908135Y-4943144D01*
X8898229Y-4954066D01*
X8889695Y-4966106D01*
X8882684Y-4979111D01*
X8877350Y-4992878D01*
X8875674Y-4999583D01*
X8874658Y-5002123D01*
X8873032Y-5004308D01*
X8374735Y-5502554D01*
X8371992Y-5504535D01*
X8368741Y-5505500D01*
X8365388Y-5505297D01*
X8356092Y-5503316D01*
X8343900Y-5502452D01*
X8331708Y-5503316D01*
X8319770Y-5505907D01*
X8308340Y-5510174D01*
X8297621Y-5516016D01*
X8287867Y-5523331D01*
X8279231Y-5531967D01*
X8271916Y-5541721D01*
X8266074Y-5552440D01*
X8261807Y-5563870D01*
X8259216Y-5575808D01*
X8258352Y-5588000D01*
X8259216Y-5600192D01*
X8261807Y-5612130D01*
X8266074Y-5623560D01*
X8271916Y-5634278D01*
X8279231Y-5644032D01*
X8287867Y-5652668D01*
X8297621Y-5659983D01*
X8308340Y-5665825D01*
X8319770Y-5670092D01*
X8331708Y-5672683D01*
X8343900Y-5673547D01*
X8356092Y-5672683D01*
X8365388Y-5670702D01*
X8368741Y-5670499D01*
X8371992Y-5671464D01*
X8374735Y-5673445D01*
X8609736Y-5908446D01*
X8611920Y-5911748D01*
X8612733Y-5915609D01*
X8612733Y-6212535D01*
X8611920Y-6216446D01*
X8609736Y-6219748D01*
X8216239Y-6613194D01*
X8212937Y-6615430D01*
X8209076Y-6616192D01*
X8202218Y-6616192D01*
X8198002Y-6615277D01*
X8194497Y-6612636D01*
X8187740Y-6604660D01*
X8179257Y-6597446D01*
X8169757Y-6591655D01*
X8159496Y-6587388D01*
X8148675Y-6584797D01*
X8137194Y-6583883D01*
X8068005Y-6583883D01*
X8056524Y-6584797D01*
X8045703Y-6587388D01*
X8035442Y-6591655D01*
X8025942Y-6597446D01*
X8017459Y-6604660D01*
X8010245Y-6613144D01*
X8004454Y-6622643D01*
X8001203Y-6630517D01*
X7998968Y-6633819D01*
X7995666Y-6636003D01*
X7991805Y-6636766D01*
X7987893Y-6636003D01*
X7984591Y-6633819D01*
X7471105Y-6120282D01*
X7468870Y-6116980D01*
X7468108Y-6113068D01*
X7468108Y-6076594D01*
X7468920Y-6072632D01*
X7471206Y-6069330D01*
X7474610Y-6067145D01*
X7479588Y-6065215D01*
X7492593Y-6058204D01*
X7504633Y-6049670D01*
X7515555Y-6039764D01*
X7525156Y-6028537D01*
X7533284Y-6016244D01*
X7539888Y-6003036D01*
X7544816Y-5989116D01*
X7547965Y-5974689D01*
X7549337Y-5960008D01*
X7548880Y-5945225D01*
X7546594Y-5930646D01*
X7542530Y-5916472D01*
X7536789Y-5902858D01*
X7529423Y-5890107D01*
X7520533Y-5878322D01*
X7510272Y-5867704D01*
X7498740Y-5858459D01*
X7486192Y-5850686D01*
X7472781Y-5844540D01*
X7458760Y-5840069D01*
X7444231Y-5837326D01*
X7442149Y-5837224D01*
X7438390Y-5836259D01*
X7435291Y-5833973D01*
X7433259Y-5830671D01*
X7432598Y-5826861D01*
X7433411Y-5823102D01*
X7435596Y-5819902D01*
X7625892Y-5629605D01*
X7629194Y-5627370D01*
X7633055Y-5626608D01*
X8007705Y-5626608D01*
X8011261Y-5627268D01*
X8014360Y-5629097D01*
X8016646Y-5631891D01*
X8017916Y-5634278D01*
X8025231Y-5644032D01*
X8033867Y-5652668D01*
X8043621Y-5659983D01*
X8054340Y-5665825D01*
X8065770Y-5670092D01*
X8077708Y-5672683D01*
X8089900Y-5673547D01*
X8102092Y-5672683D01*
X8114030Y-5670092D01*
X8125459Y-5665825D01*
X8136178Y-5659983D01*
X8145932Y-5652668D01*
X8154568Y-5644032D01*
X8161883Y-5634278D01*
X8167725Y-5623560D01*
X8171992Y-5612130D01*
X8174583Y-5600192D01*
X8175447Y-5588000D01*
X8174583Y-5575808D01*
X8171992Y-5563870D01*
X8167725Y-5552440D01*
X8161883Y-5541721D01*
X8154568Y-5531967D01*
X8145932Y-5523331D01*
X8136178Y-5516016D01*
X8133791Y-5514746D01*
X8130997Y-5512460D01*
X8129168Y-5509361D01*
X8128508Y-5505805D01*
X8128508Y-5398008D01*
X8127695Y-5389981D01*
X8125510Y-5382768D01*
X8121954Y-5376062D01*
X8116824Y-5369864D01*
X7834020Y-5087010D01*
X7831734Y-5083606D01*
X7831023Y-5079542D01*
X7831937Y-5075580D01*
X7833359Y-5072481D01*
X7837830Y-5058460D01*
X7840573Y-5043932D01*
X7841488Y-5029200D01*
X7840573Y-5014468D01*
X7837830Y-4999939D01*
X7833359Y-4985918D01*
X7827213Y-4972507D01*
X7819440Y-4959959D01*
X7810195Y-4948428D01*
X7799578Y-4938166D01*
X7787792Y-4929276D01*
X7775041Y-4921910D01*
X7761427Y-4916170D01*
X7747253Y-4912106D01*
X7732674Y-4909820D01*
X7717891Y-4909413D01*
X7703210Y-4910734D01*
X7688783Y-4913884D01*
X7674305Y-4919014D01*
X7670596Y-4919573D01*
X7666939Y-4918811D01*
X7663840Y-4916728D01*
X7660386Y-4913376D01*
X7654137Y-4908245D01*
X7647431Y-4904689D01*
X7640218Y-4902504D01*
X7632192Y-4901692D01*
X7549794Y-4901692D01*
X7545933Y-4900930D01*
X7542682Y-4898745D01*
X7540447Y-4895494D01*
X7536789Y-4886858D01*
X7529423Y-4874107D01*
X7520533Y-4862322D01*
X7510272Y-4851704D01*
X7498740Y-4842459D01*
X7486192Y-4834686D01*
X7474000Y-4829098D01*
X7470902Y-4826863D01*
X7468819Y-4823612D01*
X7468108Y-4819853D01*
X7468108Y-4133494D01*
X7468920Y-4129532D01*
X7471206Y-4126229D01*
X7474610Y-4124045D01*
X7479588Y-4122115D01*
X7492593Y-4115104D01*
X7504633Y-4106570D01*
X7515555Y-4096664D01*
X7525156Y-4085437D01*
X7533284Y-4073144D01*
X7542479Y-4055059D01*
X7545882Y-4052671D01*
X7549946Y-4051808D01*
X7948117Y-4051808D01*
X7956143Y-4050995D01*
X7963357Y-4048810D01*
X7970012Y-4045254D01*
X7976260Y-4040124D01*
X8054797Y-3961587D01*
X8057743Y-3959555D01*
X8061198Y-3958640D01*
X8064804Y-3958996D01*
X8071002Y-3960774D01*
X8083550Y-3962552D01*
X8096250Y-3962552D01*
X8108797Y-3960774D01*
X8120989Y-3957320D01*
X8132572Y-3952138D01*
X8143341Y-3945432D01*
X8153044Y-3937254D01*
X8161528Y-3927856D01*
X8168589Y-3917340D01*
X8174177Y-3905961D01*
X8178088Y-3893870D01*
X8180273Y-3881424D01*
X8180730Y-3868724D01*
X8179409Y-3856126D01*
X8176361Y-3843832D01*
X8171586Y-3832047D01*
X8165236Y-3821074D01*
X8157464Y-3811066D01*
X8148320Y-3802278D01*
X8138058Y-3794810D01*
X8126882Y-3788867D01*
X8114995Y-3784549D01*
X8102193Y-3781856D01*
X8089900Y-3780993D01*
X8077250Y-3781907D01*
X8064855Y-3784549D01*
X8052917Y-3788867D01*
X8041741Y-3794810D01*
X8031480Y-3802278D01*
X8022386Y-3811066D01*
X8014563Y-3821074D01*
X8008213Y-3832047D01*
X8003489Y-3843832D01*
X8000390Y-3856126D01*
X7999069Y-3868724D01*
X7999526Y-3881424D01*
X8001711Y-3893870D01*
X8002625Y-3896715D01*
X8003133Y-3900373D01*
X8002270Y-3903979D01*
X8000187Y-3907028D01*
X7935569Y-3971594D01*
X7932267Y-3973829D01*
X7928406Y-3974592D01*
X7549794Y-3974592D01*
X7545933Y-3973829D01*
X7542682Y-3971645D01*
X7540447Y-3968394D01*
X7536789Y-3959758D01*
X7529423Y-3947007D01*
X7520533Y-3935222D01*
X7510272Y-3924604D01*
X7498740Y-3915359D01*
X7486192Y-3907586D01*
X7472781Y-3901440D01*
X7458760Y-3896969D01*
X7444231Y-3894226D01*
X7429500Y-3893312D01*
X7414768Y-3894226D01*
X7400239Y-3896969D01*
X7386218Y-3901440D01*
X7372807Y-3907586D01*
X7360259Y-3915359D01*
X7348728Y-3924604D01*
X7338466Y-3935222D01*
X7329576Y-3947007D01*
X7322210Y-3959758D01*
X7316470Y-3973372D01*
X7312406Y-3987546D01*
X7310120Y-4002125D01*
X7309713Y-4016908D01*
X7311034Y-4031589D01*
X7314184Y-4046016D01*
X7319111Y-4059936D01*
X7325715Y-4073144D01*
X7333843Y-4085437D01*
X7343444Y-4096664D01*
X7354366Y-4106570D01*
X7366406Y-4115104D01*
X7379411Y-4122115D01*
X7384389Y-4124045D01*
X7387793Y-4126229D01*
X7390079Y-4129532D01*
X7390892Y-4133494D01*
X7390892Y-4819853D01*
X7390180Y-4823612D01*
X7388098Y-4826863D01*
X7384999Y-4829098D01*
X7372807Y-4834686D01*
X7360259Y-4842459D01*
X7348728Y-4851704D01*
X7338466Y-4862322D01*
X7329576Y-4874107D01*
X7322210Y-4886858D01*
X7318552Y-4895494D01*
X7316317Y-4898745D01*
X7313066Y-4900930D01*
X7309205Y-4901692D01*
X6972401Y-4901692D01*
X6968744Y-4900980D01*
X6965543Y-4899050D01*
X6963308Y-4896053D01*
X6961784Y-4893056D01*
X6953656Y-4880762D01*
X6944055Y-4869535D01*
X6933133Y-4859629D01*
X6921093Y-4851095D01*
X6908088Y-4844084D01*
X6894322Y-4838750D01*
X6880047Y-4835194D01*
X6865366Y-4833366D01*
X6850634Y-4833366D01*
X6835952Y-4835194D01*
X6821678Y-4838750D01*
X6807911Y-4844084D01*
X6794906Y-4851095D01*
X6782866Y-4859629D01*
X6771944Y-4869535D01*
X6762343Y-4880762D01*
X6754215Y-4893056D01*
X6747611Y-4906264D01*
X6742684Y-4920183D01*
X6739534Y-4934610D01*
X6738213Y-4949291D01*
X6738620Y-4964074D01*
X6740906Y-4978654D01*
X6744970Y-4992827D01*
X6750710Y-5006441D01*
X6758076Y-5019192D01*
X6766966Y-5030978D01*
X6777228Y-5041595D01*
X6788759Y-5050840D01*
X6801307Y-5058613D01*
X6814718Y-5064760D01*
X6828739Y-5069230D01*
X6843268Y-5071973D01*
X6858000Y-5072888D01*
X6872731Y-5071973D01*
X6887260Y-5069230D01*
X6901281Y-5064760D01*
X6914692Y-5058613D01*
X6927240Y-5050840D01*
X6938772Y-5041595D01*
X6949033Y-5030978D01*
X6957923Y-5019192D01*
X6965289Y-5006441D01*
X6971030Y-4992827D01*
X6972909Y-4986274D01*
X6974992Y-4982464D01*
X6978446Y-4979822D01*
X6982714Y-4978908D01*
X7309053Y-4978908D01*
X7313117Y-4979771D01*
X7316520Y-4982159D01*
X7325715Y-5000244D01*
X7333843Y-5012537D01*
X7343444Y-5023764D01*
X7354366Y-5033670D01*
X7366406Y-5042204D01*
X7379411Y-5049215D01*
X7393178Y-5054549D01*
X7407452Y-5058105D01*
X7422134Y-5059934D01*
X7436866Y-5059934D01*
X7451547Y-5058105D01*
X7465822Y-5054549D01*
X7479588Y-5049215D01*
X7492593Y-5042204D01*
X7504633Y-5033670D01*
X7515555Y-5023764D01*
X7525156Y-5012537D01*
X7533284Y-5000244D01*
X7542479Y-4982159D01*
X7545882Y-4979771D01*
X7549946Y-4978908D01*
X7597952Y-4978908D01*
X7601813Y-4979670D01*
X7605064Y-4981803D01*
X7607300Y-4985054D01*
X7608112Y-4988864D01*
X7607350Y-4992878D01*
X7603794Y-5007152D01*
X7601966Y-5021834D01*
X7601966Y-5036566D01*
X7603794Y-5051247D01*
X7607350Y-5065522D01*
X7612684Y-5079288D01*
X7619695Y-5092293D01*
X7628229Y-5104333D01*
X7638135Y-5115255D01*
X7649362Y-5124856D01*
X7661656Y-5132984D01*
X7674864Y-5139588D01*
X7688783Y-5144516D01*
X7703210Y-5147665D01*
X7717891Y-5149037D01*
X7732674Y-5148580D01*
X7747253Y-5146294D01*
X7761427Y-5142230D01*
X7768234Y-5139385D01*
X7772146Y-5138572D01*
X7776057Y-5139334D01*
X7779359Y-5141569D01*
X8048294Y-5410504D01*
X8050530Y-5413806D01*
X8051292Y-5417718D01*
X8051292Y-5505805D01*
X8050631Y-5509361D01*
X8048802Y-5512460D01*
X8046008Y-5514746D01*
X8043621Y-5516016D01*
X8033867Y-5523331D01*
X8025231Y-5531967D01*
X8017916Y-5541721D01*
X8016646Y-5544108D01*
X8014360Y-5546902D01*
X8011261Y-5548731D01*
X8007705Y-5549392D01*
X7613345Y-5549392D01*
X7605318Y-5550204D01*
X7598105Y-5552389D01*
X7591450Y-5555945D01*
X7585202Y-5561076D01*
X7267752Y-5878525D01*
X7262622Y-5884773D01*
X7259066Y-5891428D01*
X7256881Y-5898642D01*
X7256068Y-5906668D01*
X7256068Y-6621068D01*
X7256881Y-6629095D01*
X7259066Y-6636308D01*
X7262622Y-6643014D01*
X7267752Y-6649212D01*
X7559954Y-6941464D01*
X7561935Y-6944207D01*
X7562900Y-6947458D01*
X7562697Y-6950811D01*
X7560716Y-6960108D01*
X7559852Y-6972300D01*
X7560716Y-6984492D01*
X7563307Y-6996430D01*
X7567574Y-7007859D01*
X7573416Y-7018578D01*
X7580731Y-7028332D01*
X7589367Y-7036968D01*
X7599121Y-7044283D01*
X7609840Y-7050125D01*
X7621270Y-7054392D01*
X7633208Y-7056983D01*
X7645400Y-7057847D01*
X7657592Y-7056983D01*
X7669530Y-7054392D01*
X7680959Y-7050125D01*
X7691678Y-7044283D01*
X7701432Y-7036968D01*
X7710068Y-7028332D01*
X7717383Y-7018578D01*
X7723225Y-7007859D01*
X7727492Y-6996430D01*
X7730083Y-6984492D01*
X7730947Y-6972300D01*
X7730083Y-6960108D01*
X7727492Y-6948170D01*
X7723225Y-6936740D01*
X7717383Y-6926021D01*
X7710068Y-6916267D01*
X7701432Y-6907631D01*
X7691678Y-6900316D01*
X7680959Y-6894474D01*
X7669530Y-6890207D01*
X7657592Y-6887616D01*
X7645400Y-6886752D01*
X7633208Y-6887616D01*
X7623911Y-6889597D01*
X7620558Y-6889800D01*
X7617307Y-6888835D01*
X7614564Y-6886854D01*
X7336281Y-6608572D01*
X7334046Y-6605270D01*
X7333284Y-6601358D01*
X7333284Y-6053480D01*
X7334046Y-6049670D01*
X7336129Y-6046419D01*
X7339330Y-6044184D01*
X7343140Y-6043320D01*
X7346950Y-6043980D01*
X7350302Y-6045962D01*
X7354366Y-6049670D01*
X7366406Y-6058204D01*
X7379411Y-6065215D01*
X7384389Y-6067145D01*
X7387793Y-6069330D01*
X7390079Y-6072632D01*
X7390892Y-6076594D01*
X7390892Y-6132779D01*
X7391704Y-6140805D01*
X7393889Y-6148019D01*
X7397445Y-6154724D01*
X7402575Y-6160922D01*
X7996428Y-6754825D01*
X7998409Y-6757619D01*
X7999323Y-6760921D01*
X7999120Y-6764375D01*
X7997393Y-6771538D01*
X7996377Y-6774129D01*
X7994700Y-6776364D01*
X7958937Y-6812127D01*
X7953806Y-6818375D01*
X7950250Y-6825030D01*
X7948066Y-6832244D01*
X7947304Y-6840270D01*
X7947304Y-7353249D01*
X7946491Y-7357109D01*
X7944307Y-7360412D01*
X7941005Y-7362596D01*
X7937144Y-7363409D01*
X7139990Y-7363409D01*
X7131964Y-7364171D01*
X7124750Y-7366355D01*
X7114946Y-7371892D01*
X7112000Y-7372603D01*
X7109002Y-7372400D01*
X7098792Y-7370216D01*
X7086600Y-7369352D01*
X7074408Y-7370216D01*
X7065111Y-7372197D01*
X7061758Y-7372400D01*
X7058507Y-7371435D01*
X7055764Y-7369454D01*
X6479235Y-6792975D01*
X6473037Y-6787845D01*
X6467144Y-6784695D01*
X6464300Y-6782409D01*
X6462420Y-6779310D01*
X6461760Y-6775754D01*
X6461760Y-6720840D01*
X6407759Y-6720840D01*
X6415176Y-6733692D01*
X6424066Y-6745478D01*
X6434328Y-6756095D01*
X6443218Y-6763207D01*
X6445859Y-6766407D01*
X6446977Y-6770420D01*
X6446418Y-6774484D01*
X6444284Y-6778040D01*
X6440881Y-6780428D01*
X6436817Y-6781292D01*
X5924346Y-6781292D01*
X5920587Y-6780580D01*
X5917336Y-6778498D01*
X5915101Y-6775399D01*
X5909513Y-6763207D01*
X5901740Y-6750659D01*
X5892495Y-6739128D01*
X5881878Y-6728866D01*
X5870092Y-6719976D01*
X5857341Y-6712610D01*
X5843727Y-6706870D01*
X5829554Y-6702806D01*
X5814974Y-6700520D01*
X5800191Y-6700113D01*
X5785510Y-6701434D01*
X5771083Y-6704584D01*
X5757164Y-6709511D01*
X5743956Y-6716115D01*
X5731662Y-6724243D01*
X5720435Y-6733844D01*
X5710529Y-6744766D01*
X5701995Y-6756806D01*
X5694984Y-6769811D01*
X5689650Y-6783578D01*
X5686094Y-6797852D01*
X5684266Y-6812534D01*
X5684266Y-6827266D01*
X5686094Y-6841947D01*
X5689650Y-6856222D01*
X5694984Y-6869988D01*
X5701995Y-6882993D01*
X5710529Y-6895033D01*
X5720435Y-6905955D01*
X5731662Y-6915556D01*
X5743956Y-6923684D01*
X5757164Y-6930288D01*
X5771083Y-6935216D01*
X5785510Y-6938365D01*
X5800191Y-6939737D01*
X5814974Y-6939280D01*
X5829554Y-6936994D01*
X5843727Y-6932930D01*
X5857341Y-6927189D01*
X5870092Y-6919823D01*
X5881878Y-6910933D01*
X5892495Y-6900672D01*
X5901740Y-6889140D01*
X5909513Y-6876592D01*
X5915101Y-6864400D01*
X5917336Y-6861302D01*
X5920587Y-6859219D01*
X5924346Y-6858508D01*
X6431381Y-6858508D01*
X6435293Y-6859270D01*
X6438595Y-6861505D01*
X7001154Y-7424064D01*
X7003135Y-7426807D01*
X7004100Y-7430058D01*
X7003897Y-7433411D01*
X7001916Y-7442708D01*
X7001052Y-7454900D01*
X7001916Y-7467092D01*
X7004507Y-7479030D01*
X7008774Y-7490459D01*
X7014972Y-7501636D01*
X7016800Y-7505700D01*
X7016699Y-7510170D01*
X7014718Y-7514183D01*
X7011212Y-7516926D01*
X7006844Y-7517892D01*
X6912356Y-7517892D01*
X6907987Y-7516926D01*
X6904481Y-7514183D01*
X6902500Y-7510170D01*
X6902399Y-7505700D01*
X6904583Y-7501178D01*
X6910425Y-7490459D01*
X6914692Y-7479030D01*
X6917283Y-7467092D01*
X6918147Y-7454900D01*
X6917283Y-7442708D01*
X6914692Y-7430770D01*
X6910425Y-7419340D01*
X6904583Y-7408621D01*
X6897268Y-7398867D01*
X6888632Y-7390231D01*
X6878878Y-7382916D01*
X6868159Y-7377074D01*
X6856730Y-7372807D01*
X6844792Y-7370216D01*
X6832600Y-7369352D01*
X6820408Y-7370216D01*
X6808470Y-7372807D01*
X6797040Y-7377074D01*
X6788403Y-7381798D01*
X6786067Y-7382713D01*
X6783527Y-7383018D01*
X6251448Y-7383018D01*
X6243421Y-7383830D01*
X6236208Y-7386015D01*
X6229502Y-7389571D01*
X6223304Y-7394702D01*
X6138824Y-7479182D01*
X6133693Y-7485380D01*
X6130137Y-7492085D01*
X6127953Y-7499299D01*
X6127140Y-7507325D01*
X6127140Y-8123428D01*
X6126378Y-8127238D01*
X6124295Y-8130489D01*
X6121095Y-8132724D01*
X6117336Y-8133588D01*
X6113678Y-8133689D01*
X6100419Y-8135924D01*
X6087516Y-8139938D01*
X6075324Y-8145627D01*
X6063945Y-8152841D01*
X6053683Y-8161578D01*
X6044641Y-8171586D01*
X6037021Y-8182660D01*
X6030925Y-8194700D01*
X6026505Y-8207451D01*
X6023813Y-8220659D01*
X6022898Y-8234070D01*
X6023813Y-8247532D01*
X6026505Y-8260740D01*
X6030925Y-8273491D01*
X6037021Y-8285480D01*
X6044641Y-8296605D01*
X6053683Y-8306612D01*
X6063945Y-8315299D01*
X6075324Y-8322564D01*
X6086602Y-8327796D01*
X6089751Y-8330082D01*
X6091834Y-8333435D01*
X6092494Y-8337245D01*
X6091631Y-8341055D01*
X6089446Y-8344306D01*
X6086195Y-8346440D01*
X6082334Y-8347202D01*
X4227677Y-8347202D01*
X4223816Y-8346389D01*
X4220514Y-8344204D01*
X3998620Y-8122310D01*
X3996436Y-8119059D01*
X3995623Y-8115300D01*
X3996334Y-8111439D01*
X4000449Y-8100822D01*
X4004005Y-8086547D01*
X4005834Y-8071866D01*
X4005834Y-8057134D01*
X4004005Y-8042452D01*
X4000449Y-8028178D01*
X3995115Y-8014411D01*
X3988104Y-8001406D01*
X3979570Y-7989366D01*
X3969664Y-7978444D01*
X3958437Y-7968843D01*
X3946144Y-7960715D01*
X3928059Y-7951520D01*
X3925671Y-7948117D01*
X3924808Y-7944053D01*
X3924808Y-7603693D01*
X3925570Y-7599832D01*
X3927805Y-7596530D01*
X4140657Y-7383678D01*
X4144365Y-7381290D01*
X4148683Y-7380731D01*
X4152900Y-7382052D01*
X4156151Y-7384999D01*
X4157827Y-7389063D01*
X4202938Y-7389063D01*
X4202938Y-7343952D01*
X4200855Y-7343597D01*
X4197451Y-7341412D01*
X4195216Y-7338110D01*
X4194403Y-7334199D01*
X4195165Y-7330287D01*
X4197350Y-7326934D01*
X4206494Y-7317790D01*
X4209237Y-7315860D01*
X4212437Y-7314895D01*
X4215790Y-7315047D01*
X4229506Y-7317943D01*
X4241800Y-7318806D01*
X4254449Y-7317892D01*
X4266844Y-7315250D01*
X4278782Y-7310932D01*
X4289958Y-7304989D01*
X4300220Y-7297521D01*
X4309313Y-7288733D01*
X4317136Y-7278725D01*
X4323486Y-7267752D01*
X4328210Y-7255967D01*
X4331309Y-7243673D01*
X4332630Y-7231075D01*
X4332173Y-7218375D01*
X4329988Y-7205929D01*
X4326077Y-7193838D01*
X4320489Y-7182459D01*
X4313428Y-7171944D01*
X4304944Y-7162546D01*
X4295190Y-7154367D01*
X4284472Y-7147661D01*
X4272889Y-7142480D01*
X4260697Y-7139025D01*
X4248150Y-7137247D01*
X4235450Y-7137247D01*
X4222902Y-7139025D01*
X4216704Y-7140803D01*
X4213098Y-7141159D01*
X4209643Y-7140244D01*
X4206697Y-7138212D01*
X3472281Y-6403797D01*
X3470097Y-6400495D01*
X3469335Y-6396583D01*
X3469335Y-6127953D01*
X3470198Y-6123787D01*
X3472738Y-6120333D01*
X3476447Y-6118250D01*
X3480714Y-6117894D01*
X3484778Y-6119266D01*
X3488944Y-6121857D01*
X3499815Y-6126429D01*
X3511245Y-6129426D01*
X3522979Y-6130747D01*
X3534765Y-6130290D01*
X3546348Y-6128156D01*
X3557524Y-6124346D01*
X3568039Y-6118961D01*
X3577640Y-6112052D01*
X3586175Y-6103874D01*
X3593388Y-6094526D01*
X3599129Y-6084214D01*
X3603345Y-6073190D01*
X3605936Y-6061659D01*
X3606800Y-6049924D01*
X3605936Y-6038138D01*
X3603345Y-6026607D01*
X3599129Y-6015583D01*
X3593388Y-6005271D01*
X3586175Y-5995924D01*
X3577640Y-5987745D01*
X3568039Y-5980836D01*
X3557524Y-5975451D01*
X3546348Y-5971641D01*
X3534765Y-5969508D01*
X3522979Y-5969050D01*
X3511245Y-5970371D01*
X3499815Y-5973368D01*
X3488944Y-5977991D01*
X3484778Y-5980531D01*
X3480714Y-5981903D01*
X3476447Y-5981547D01*
X3472738Y-5979464D01*
X3470198Y-5976010D01*
X3469335Y-5971844D01*
X3469335Y-5127955D01*
X3470198Y-5123789D01*
X3472738Y-5120335D01*
X3476447Y-5118252D01*
X3480714Y-5117896D01*
X3484778Y-5119268D01*
X3488944Y-5121859D01*
X3499815Y-5126431D01*
X3511245Y-5129428D01*
X3522979Y-5130749D01*
X3534765Y-5130292D01*
X3546348Y-5128158D01*
X3557524Y-5124348D01*
X3568039Y-5118963D01*
X3577640Y-5112054D01*
X3586175Y-5103876D01*
X3593388Y-5094528D01*
X3599129Y-5084216D01*
X3603345Y-5073192D01*
X3605936Y-5061661D01*
X3606800Y-5049926D01*
X3605936Y-5038140D01*
X3603345Y-5026609D01*
X3599129Y-5015585D01*
X3593388Y-5005273D01*
X3586175Y-4995926D01*
X3577640Y-4987747D01*
X3568039Y-4980838D01*
X3557524Y-4975453D01*
X3546348Y-4971643D01*
X3534765Y-4969510D01*
X3522979Y-4969052D01*
X3511245Y-4970373D01*
X3499815Y-4973370D01*
X3488944Y-4977993D01*
X3484778Y-4980533D01*
X3480714Y-4981905D01*
X3476447Y-4981549D01*
X3472738Y-4979466D01*
X3470198Y-4976012D01*
X3469335Y-4971846D01*
X3469335Y-3764991D01*
X3470097Y-3761130D01*
X3472281Y-3757828D01*
X4095089Y-3135020D01*
X4098340Y-3132836D01*
X4102100Y-3132023D01*
X4105960Y-3132734D01*
X4116578Y-3136849D01*
X4130852Y-3140405D01*
X4145534Y-3142234D01*
X4160265Y-3142234D01*
X4174947Y-3140405D01*
X4189222Y-3136849D01*
X4202988Y-3131515D01*
X4215993Y-3124504D01*
X4228033Y-3115970D01*
X4238955Y-3106064D01*
X4248556Y-3094837D01*
X4256684Y-3082544D01*
X4265879Y-3064459D01*
X4269282Y-3062071D01*
X4273346Y-3061208D01*
X4947005Y-3061208D01*
X4950561Y-3061868D01*
X4953660Y-3063697D01*
X4955946Y-3066491D01*
X4957216Y-3068878D01*
X4964531Y-3078632D01*
X4973167Y-3087268D01*
X4982921Y-3094583D01*
X4993640Y-3100425D01*
X5005070Y-3104692D01*
X5017008Y-3107283D01*
X5029200Y-3108147D01*
X5041392Y-3107283D01*
X5053330Y-3104692D01*
X5064760Y-3100425D01*
X5075478Y-3094583D01*
X5085232Y-3087268D01*
X5093868Y-3078632D01*
X5101183Y-3068878D01*
X5102504Y-3066491D01*
X5104739Y-3063697D01*
X5107838Y-3061868D01*
X5111394Y-3061208D01*
X6814921Y-3061208D01*
X6818223Y-3061766D01*
X6821119Y-3063341D01*
X6823405Y-3065780D01*
X6825843Y-3069437D01*
X6835444Y-3080664D01*
X6846366Y-3090570D01*
X6858406Y-3099104D01*
X6871411Y-3106115D01*
X6885178Y-3111449D01*
X6899452Y-3115005D01*
X6914134Y-3116834D01*
X6928866Y-3116834D01*
X6943547Y-3115005D01*
X6957822Y-3111449D01*
X6971588Y-3106115D01*
X6984593Y-3099104D01*
X6996633Y-3090570D01*
X7007555Y-3080664D01*
X7017156Y-3069437D01*
X7025284Y-3057144D01*
X7034479Y-3039059D01*
X7037882Y-3036671D01*
X7041946Y-3035808D01*
X7309053Y-3035808D01*
X7313117Y-3036671D01*
X7316520Y-3039059D01*
X7325715Y-3057144D01*
X7333843Y-3069437D01*
X7343444Y-3080664D01*
X7354366Y-3090570D01*
X7366406Y-3099104D01*
X7379411Y-3106115D01*
X7393178Y-3111449D01*
X7407452Y-3115005D01*
X7422134Y-3116834D01*
X7436866Y-3116834D01*
X7451547Y-3115005D01*
X7465822Y-3111449D01*
X7479588Y-3106115D01*
X7492593Y-3099104D01*
X7504633Y-3090570D01*
X7515555Y-3080664D01*
X7525156Y-3069437D01*
X7533284Y-3057144D01*
X7542479Y-3039059D01*
X7545882Y-3036671D01*
X7549946Y-3035808D01*
X7995056Y-3035808D01*
X7999018Y-3036570D01*
X8002320Y-3038805D01*
X8004505Y-3042158D01*
X8008213Y-3051352D01*
X8014563Y-3062325D01*
X8022336Y-3072333D01*
X8031480Y-3081121D01*
X8041741Y-3088589D01*
X8052917Y-3094532D01*
X8064804Y-3098850D01*
X8077606Y-3101543D01*
X8089900Y-3102406D01*
X8102549Y-3101492D01*
X8114944Y-3098850D01*
X8126882Y-3094532D01*
X8138058Y-3088589D01*
X8148320Y-3081121D01*
X8157413Y-3072333D01*
X8165236Y-3062325D01*
X8171586Y-3051352D01*
X8176310Y-3039567D01*
X8179409Y-3027273D01*
X8180730Y-3014675D01*
X8180273Y-3001975D01*
X8178088Y-2989529D01*
X8174177Y-2977438D01*
X8168589Y-2966059D01*
X8161528Y-2955544D01*
X8153044Y-2946146D01*
X8143290Y-2937967D01*
X8132572Y-2931261D01*
X8120989Y-2926080D01*
X8108797Y-2922625D01*
X8096250Y-2920847D01*
X8083550Y-2920847D01*
X8071002Y-2922625D01*
X8058810Y-2926080D01*
X8047228Y-2931261D01*
X8036458Y-2937967D01*
X8026755Y-2946146D01*
X8018576Y-2955239D01*
X8015122Y-2957728D01*
X8011007Y-2958592D01*
X7549794Y-2958592D01*
X7545933Y-2957830D01*
X7542682Y-2955645D01*
X7540447Y-2952394D01*
X7536789Y-2943758D01*
X7529423Y-2931007D01*
X7520533Y-2919222D01*
X7510272Y-2908604D01*
X7498740Y-2899359D01*
X7486192Y-2891586D01*
X7472781Y-2885440D01*
X7458760Y-2880969D01*
X7444231Y-2878226D01*
X7429500Y-2877312D01*
X7414768Y-2878226D01*
X7400239Y-2880969D01*
X7386218Y-2885440D01*
X7372807Y-2891586D01*
X7360259Y-2899359D01*
X7348728Y-2908604D01*
X7338466Y-2919222D01*
X7329576Y-2931007D01*
X7322210Y-2943758D01*
X7318552Y-2952394D01*
X7316317Y-2955645D01*
X7313066Y-2957830D01*
X7309205Y-2958592D01*
X7041794Y-2958592D01*
X7037933Y-2957830D01*
X7034682Y-2955645D01*
X7032447Y-2952394D01*
X7028789Y-2943758D01*
X7021423Y-2931007D01*
X7012533Y-2919222D01*
X7002272Y-2908604D01*
X6990740Y-2899359D01*
X6978192Y-2891586D01*
X6964781Y-2885440D01*
X6950760Y-2880969D01*
X6936231Y-2878226D01*
X6921500Y-2877312D01*
X6906768Y-2878226D01*
X6892239Y-2880969D01*
X6878218Y-2885440D01*
X6864807Y-2891586D01*
X6852259Y-2899359D01*
X6840728Y-2908604D01*
X6830466Y-2919222D01*
X6821576Y-2931007D01*
X6814210Y-2943758D01*
X6808470Y-2957372D01*
X6804406Y-2971546D01*
X6803796Y-2975406D01*
X6802628Y-2978759D01*
X6800392Y-2981553D01*
X6797294Y-2983382D01*
X6793788Y-2983992D01*
X5111394Y-2983992D01*
X5107838Y-2983331D01*
X5104739Y-2981502D01*
X5102504Y-2978708D01*
X5101183Y-2976321D01*
X5093868Y-2966567D01*
X5085232Y-2957931D01*
X5075478Y-2950616D01*
X5064760Y-2944774D01*
X5053330Y-2940507D01*
X5041392Y-2937916D01*
X5029200Y-2937052D01*
X5017008Y-2937916D01*
X5005070Y-2940507D01*
X4993640Y-2944774D01*
X4982921Y-2950616D01*
X4973167Y-2957931D01*
X4964531Y-2966567D01*
X4957216Y-2976321D01*
X4955946Y-2978708D01*
X4953660Y-2981502D01*
X4950561Y-2983331D01*
X4947005Y-2983992D01*
X4273194Y-2983992D01*
X4269333Y-2983230D01*
X4266082Y-2981045D01*
X4263847Y-2977794D01*
X4260189Y-2969158D01*
X4252823Y-2956407D01*
X4243933Y-2944622D01*
X4233672Y-2934004D01*
X4222140Y-2924759D01*
X4209592Y-2916986D01*
X4196181Y-2910840D01*
X4182160Y-2906369D01*
X4167632Y-2903626D01*
X4152900Y-2902712D01*
X4138168Y-2903626D01*
X4123639Y-2906369D01*
X4109618Y-2910840D01*
X4096207Y-2916986D01*
X4083659Y-2924759D01*
X4072128Y-2934004D01*
X4061866Y-2944622D01*
X4052976Y-2956407D01*
X4045610Y-2969158D01*
X4039870Y-2982772D01*
X4035806Y-2996946D01*
X4033520Y-3011525D01*
X4033113Y-3026308D01*
X4034434Y-3040989D01*
X4037584Y-3055416D01*
X4042765Y-3069996D01*
X4043324Y-3073704D01*
X4042511Y-3077413D01*
X4040378Y-3080562D01*
X3403752Y-3717137D01*
X3398621Y-3723386D01*
X3395065Y-3730040D01*
X3392881Y-3737254D01*
X3392068Y-3745280D01*
X3392068Y-6416294D01*
X3392881Y-6424320D01*
X3395065Y-6431534D01*
X3398621Y-6438239D01*
X3403752Y-6444437D01*
X4152036Y-7192772D01*
X4154170Y-7195820D01*
X4155033Y-7199426D01*
X4154525Y-7203084D01*
X4153611Y-7205929D01*
X4151426Y-7218375D01*
X4150969Y-7231075D01*
X4152290Y-7243673D01*
X4154728Y-7253427D01*
X4154982Y-7256881D01*
X4154068Y-7260234D01*
X4152036Y-7263079D01*
X3859276Y-7555839D01*
X3854145Y-7562088D01*
X3850589Y-7568742D01*
X3848404Y-7575956D01*
X3847592Y-7583982D01*
X3847592Y-7944205D01*
X3846829Y-7948066D01*
X3844645Y-7951317D01*
X3841394Y-7953552D01*
X3832758Y-7957210D01*
X3820007Y-7964576D01*
X3808222Y-7973466D01*
X3797604Y-7983728D01*
X3788359Y-7995259D01*
X3780586Y-8007807D01*
X3774440Y-8021218D01*
X3769969Y-8035239D01*
X3767226Y-8049768D01*
X3766312Y-8064500D01*
X3767226Y-8079231D01*
X3769969Y-8093760D01*
X3774440Y-8107781D01*
X3780586Y-8121192D01*
X3788359Y-8133740D01*
X3797604Y-8145272D01*
X3808222Y-8155533D01*
X3820007Y-8164423D01*
X3832758Y-8171789D01*
X3846372Y-8177530D01*
X3860546Y-8181594D01*
X3875125Y-8183880D01*
X3889908Y-8184337D01*
X3904589Y-8182965D01*
X3919016Y-8179816D01*
X3933596Y-8174634D01*
X3937304Y-8174075D01*
X3941013Y-8174888D01*
X3944162Y-8177022D01*
X4179824Y-8412734D01*
X4186072Y-8417864D01*
X4192727Y-8421420D01*
X4199940Y-8423605D01*
G37*
G36*
X4905908Y-8184337D02*
G01*
X4920589Y-8182965D01*
X4935016Y-8179816D01*
X4948936Y-8174888D01*
X4962144Y-8168284D01*
X4974437Y-8160156D01*
X4985664Y-8150555D01*
X4995570Y-8139633D01*
X5004104Y-8127593D01*
X5011115Y-8114588D01*
X5016449Y-8100822D01*
X5020005Y-8086547D01*
X5021834Y-8071866D01*
X5021834Y-8057134D01*
X5020005Y-8042452D01*
X5016449Y-8028178D01*
X5011115Y-8014411D01*
X5004104Y-8001406D01*
X4995570Y-7989366D01*
X4985664Y-7978444D01*
X4974437Y-7968843D01*
X4962144Y-7960715D01*
X4944059Y-7951520D01*
X4941671Y-7948117D01*
X4940808Y-7944053D01*
X4940808Y-7534452D01*
X4941671Y-7530388D01*
X4944008Y-7527036D01*
X4947564Y-7524902D01*
X4951628Y-7524292D01*
X4965700Y-7525258D01*
X4979873Y-7524292D01*
X4993741Y-7521549D01*
X5007203Y-7516977D01*
X5019903Y-7510729D01*
X5031689Y-7502804D01*
X5042357Y-7493457D01*
X5051704Y-7482789D01*
X5059629Y-7471003D01*
X5065877Y-7458303D01*
X5070449Y-7444841D01*
X5073192Y-7430973D01*
X5074158Y-7416800D01*
X5073192Y-7402626D01*
X5070449Y-7388758D01*
X5065877Y-7375296D01*
X5059629Y-7362596D01*
X5051704Y-7350810D01*
X5042357Y-7340142D01*
X5031689Y-7330795D01*
X5019903Y-7322870D01*
X5007203Y-7316622D01*
X4993741Y-7312050D01*
X4979873Y-7309307D01*
X4965700Y-7308342D01*
X4951526Y-7309307D01*
X4937658Y-7312050D01*
X4924196Y-7316622D01*
X4911496Y-7322870D01*
X4899710Y-7330795D01*
X4889042Y-7340142D01*
X4879695Y-7350810D01*
X4871770Y-7362596D01*
X4865522Y-7375296D01*
X4860950Y-7388758D01*
X4858207Y-7402626D01*
X4857242Y-7416800D01*
X4858207Y-7430973D01*
X4860950Y-7444841D01*
X4865776Y-7458760D01*
X4866792Y-7462469D01*
X4866386Y-7466228D01*
X4864404Y-7472781D01*
X4863592Y-7480808D01*
X4863592Y-7944205D01*
X4862830Y-7948066D01*
X4860645Y-7951317D01*
X4857394Y-7953552D01*
X4848758Y-7957210D01*
X4836007Y-7964576D01*
X4824222Y-7973466D01*
X4813604Y-7983728D01*
X4804359Y-7995259D01*
X4796586Y-8007807D01*
X4790440Y-8021218D01*
X4785969Y-8035239D01*
X4783226Y-8049768D01*
X4782312Y-8064500D01*
X4783226Y-8079231D01*
X4785969Y-8093760D01*
X4790440Y-8107781D01*
X4796586Y-8121192D01*
X4804359Y-8133740D01*
X4813604Y-8145272D01*
X4824222Y-8155533D01*
X4836007Y-8164423D01*
X4848758Y-8171789D01*
X4862372Y-8177530D01*
X4876546Y-8181594D01*
X4891125Y-8183880D01*
G37*
G36*
X3247898Y-7937398D02*
G01*
X3307130Y-7937398D01*
X3318814Y-7936534D01*
X3329889Y-7933994D01*
X3340404Y-7929880D01*
X3350260Y-7924190D01*
X3359099Y-7917129D01*
X3366820Y-7908798D01*
X3373221Y-7899450D01*
X3378149Y-7889240D01*
X3381501Y-7878368D01*
X3383178Y-7867192D01*
X3383178Y-7855813D01*
X3381501Y-7844637D01*
X3378149Y-7833766D01*
X3373221Y-7823555D01*
X3366820Y-7814208D01*
X3359099Y-7805877D01*
X3350260Y-7798816D01*
X3340404Y-7793126D01*
X3329889Y-7789011D01*
X3323996Y-7787640D01*
X3320846Y-7786370D01*
X3318306Y-7784084D01*
X3316681Y-7781086D01*
X3316122Y-7777734D01*
X3316122Y-7081266D01*
X3316681Y-7077913D01*
X3318306Y-7074916D01*
X3320846Y-7072630D01*
X3323996Y-7071359D01*
X3329889Y-7069988D01*
X3340404Y-7065873D01*
X3350260Y-7060184D01*
X3359099Y-7053122D01*
X3366820Y-7044791D01*
X3373221Y-7035444D01*
X3378149Y-7025233D01*
X3381501Y-7014362D01*
X3383178Y-7003186D01*
X3383178Y-6991807D01*
X3381501Y-6980631D01*
X3378149Y-6969759D01*
X3373221Y-6959549D01*
X3366820Y-6950202D01*
X3359099Y-6941870D01*
X3350260Y-6934809D01*
X3340404Y-6929120D01*
X3329889Y-6925005D01*
X3318814Y-6922465D01*
X3307130Y-6921601D01*
X3247898Y-6921601D01*
X3236214Y-6922465D01*
X3225139Y-6925005D01*
X3214573Y-6929120D01*
X3204768Y-6934809D01*
X3195878Y-6941870D01*
X3188157Y-6950202D01*
X3181807Y-6959549D01*
X3176879Y-6969759D01*
X3173526Y-6980631D01*
X3171850Y-6991807D01*
X3171850Y-7003186D01*
X3173526Y-7014362D01*
X3176879Y-7025233D01*
X3181807Y-7035444D01*
X3188157Y-7044791D01*
X3195878Y-7053122D01*
X3204768Y-7060184D01*
X3214573Y-7065873D01*
X3225139Y-7069988D01*
X3230981Y-7071359D01*
X3234131Y-7072630D01*
X3236671Y-7074916D01*
X3238296Y-7077913D01*
X3238906Y-7081266D01*
X3238906Y-7777734D01*
X3238296Y-7781086D01*
X3236671Y-7784084D01*
X3234131Y-7786370D01*
X3230981Y-7787640D01*
X3225139Y-7789011D01*
X3214573Y-7793126D01*
X3204768Y-7798816D01*
X3195878Y-7805877D01*
X3188157Y-7814208D01*
X3181807Y-7823555D01*
X3176879Y-7833766D01*
X3173526Y-7844637D01*
X3171850Y-7855813D01*
X3171850Y-7867192D01*
X3173526Y-7878368D01*
X3176879Y-7889240D01*
X3181807Y-7899450D01*
X3188157Y-7908798D01*
X3195878Y-7917129D01*
X3204768Y-7924190D01*
X3214573Y-7929880D01*
X3225139Y-7933994D01*
X3236214Y-7936534D01*
G37*
G36*
X5336540Y-7663840D02*
G01*
X5349392Y-7656423D01*
X5361178Y-7647533D01*
X5371795Y-7637272D01*
X5381040Y-7625740D01*
X5388813Y-7613192D01*
X5390337Y-7609840D01*
X5336540Y-7609840D01*
G37*
G36*
X5229860Y-7663586D02*
G01*
X5229860Y-7609840D01*
X5176062Y-7609840D01*
X5181295Y-7619593D01*
X5189829Y-7631633D01*
X5199735Y-7642555D01*
X5210962Y-7652156D01*
X5223256Y-7660284D01*
G37*
G36*
X4664100Y-7513980D02*
G01*
X4664100Y-7464450D01*
X4614519Y-7464450D01*
X4617770Y-7471003D01*
X4625695Y-7482789D01*
X4635042Y-7493457D01*
X4645710Y-7502804D01*
X4657496Y-7510729D01*
G37*
G36*
X4759350Y-7513980D02*
G01*
X4765903Y-7510729D01*
X4777689Y-7502804D01*
X4788357Y-7493457D01*
X4797704Y-7482789D01*
X4805629Y-7471003D01*
X4808880Y-7464450D01*
X4759350Y-7464450D01*
G37*
G36*
X4280662Y-7509916D02*
G01*
X4289958Y-7504988D01*
X4300220Y-7497521D01*
X4309313Y-7488732D01*
X4317136Y-7478725D01*
X4323486Y-7467752D01*
X4323892Y-7466736D01*
X4280662Y-7466736D01*
G37*
G36*
X4202938Y-7509916D02*
G01*
X4202938Y-7466736D01*
X4159707Y-7466736D01*
X4160113Y-7467752D01*
X4166463Y-7478725D01*
X4174236Y-7488732D01*
X4183379Y-7497521D01*
X4193641Y-7504988D01*
G37*
G36*
X5176062Y-7503159D02*
G01*
X5229860Y-7503159D01*
X5229860Y-7449413D01*
X5223256Y-7452715D01*
X5210962Y-7460843D01*
X5199735Y-7470444D01*
X5189829Y-7481366D01*
X5181295Y-7493406D01*
G37*
G36*
X5336540Y-7503159D02*
G01*
X5390337Y-7503159D01*
X5388813Y-7499807D01*
X5381040Y-7487259D01*
X5371795Y-7475728D01*
X5361178Y-7465466D01*
X5349392Y-7456576D01*
X5336540Y-7449159D01*
G37*
G36*
X4280662Y-7389063D02*
G01*
X4323740Y-7389063D01*
X4320489Y-7382459D01*
X4313428Y-7371943D01*
X4304944Y-7362545D01*
X4295190Y-7354366D01*
X4284472Y-7347661D01*
X4280662Y-7345934D01*
G37*
G36*
X4759350Y-7369200D02*
G01*
X4808880Y-7369200D01*
X4805629Y-7362596D01*
X4797704Y-7350810D01*
X4788357Y-7340142D01*
X4777689Y-7330795D01*
X4765903Y-7322870D01*
X4759350Y-7319619D01*
G37*
G36*
X4614519Y-7369200D02*
G01*
X4664100Y-7369200D01*
X4664100Y-7319619D01*
X4657496Y-7322870D01*
X4645710Y-7330795D01*
X4635042Y-7340142D01*
X4625695Y-7350810D01*
X4617770Y-7362596D01*
G37*
G36*
X7681620Y-7303770D02*
G01*
X7691678Y-7298283D01*
X7701432Y-7290968D01*
X7710068Y-7282332D01*
X7717383Y-7272578D01*
X7722870Y-7262520D01*
X7681620Y-7262520D01*
G37*
G36*
X7609230Y-7303770D02*
G01*
X7609230Y-7262520D01*
X7567930Y-7262520D01*
X7573416Y-7272578D01*
X7580731Y-7282332D01*
X7589367Y-7290968D01*
X7599121Y-7298283D01*
G37*
G36*
X7567930Y-7190130D02*
G01*
X7609230Y-7190130D01*
X7609230Y-7148830D01*
X7599121Y-7154316D01*
X7589367Y-7161631D01*
X7580731Y-7170267D01*
X7573416Y-7180021D01*
G37*
G36*
X7681620Y-7190130D02*
G01*
X7722870Y-7190130D01*
X7717383Y-7180021D01*
X7710068Y-7170267D01*
X7701432Y-7161631D01*
X7691678Y-7154316D01*
X7681620Y-7148830D01*
G37*
G36*
X4784191Y-6939737D02*
G01*
X4798974Y-6939280D01*
X4813554Y-6936994D01*
X4827727Y-6932930D01*
X4841341Y-6927189D01*
X4854092Y-6919823D01*
X4865878Y-6910933D01*
X4876495Y-6900672D01*
X4885740Y-6889140D01*
X4893513Y-6876592D01*
X4899660Y-6863181D01*
X4904130Y-6849160D01*
X4906873Y-6834631D01*
X4907788Y-6819900D01*
X4906873Y-6805168D01*
X4904130Y-6790639D01*
X4899660Y-6776618D01*
X4893513Y-6763207D01*
X4885740Y-6750659D01*
X4876495Y-6739128D01*
X4865878Y-6728866D01*
X4854092Y-6719976D01*
X4841341Y-6712610D01*
X4827727Y-6706870D01*
X4813554Y-6702806D01*
X4798974Y-6700520D01*
X4784191Y-6700113D01*
X4769510Y-6701434D01*
X4755083Y-6704584D01*
X4741164Y-6709511D01*
X4727956Y-6716115D01*
X4715662Y-6724243D01*
X4704435Y-6733844D01*
X4694529Y-6744766D01*
X4685995Y-6756806D01*
X4680712Y-6766610D01*
X4678375Y-6769557D01*
X4675073Y-6771386D01*
X4671364Y-6771944D01*
X4667707Y-6771081D01*
X4664608Y-6768998D01*
X4619345Y-6723735D01*
X4617364Y-6720992D01*
X4616399Y-6717741D01*
X4616602Y-6714388D01*
X4618583Y-6705092D01*
X4619447Y-6692900D01*
X4618583Y-6680708D01*
X4615992Y-6668770D01*
X4611725Y-6657340D01*
X4605883Y-6646621D01*
X4598568Y-6636867D01*
X4589932Y-6628231D01*
X4580178Y-6620916D01*
X4569460Y-6615074D01*
X4558030Y-6610807D01*
X4546092Y-6608216D01*
X4533900Y-6607352D01*
X4521708Y-6608216D01*
X4509770Y-6610807D01*
X4498340Y-6615074D01*
X4487621Y-6620916D01*
X4477867Y-6628231D01*
X4469231Y-6636867D01*
X4461916Y-6646621D01*
X4456074Y-6657340D01*
X4451807Y-6668770D01*
X4449216Y-6680708D01*
X4448352Y-6692900D01*
X4449216Y-6705092D01*
X4451807Y-6717030D01*
X4456074Y-6728459D01*
X4461916Y-6739178D01*
X4469231Y-6748932D01*
X4477867Y-6757568D01*
X4487621Y-6764883D01*
X4498340Y-6770725D01*
X4509770Y-6774992D01*
X4521708Y-6777583D01*
X4533900Y-6778447D01*
X4546092Y-6777583D01*
X4555388Y-6775602D01*
X4558741Y-6775399D01*
X4561992Y-6776364D01*
X4564735Y-6778345D01*
X4633264Y-6846824D01*
X4639462Y-6851954D01*
X4646168Y-6855510D01*
X4653381Y-6857695D01*
X4661408Y-6858508D01*
X4667605Y-6858508D01*
X4671568Y-6859320D01*
X4674870Y-6861606D01*
X4677054Y-6865010D01*
X4678984Y-6869988D01*
X4685995Y-6882993D01*
X4694529Y-6895033D01*
X4704435Y-6905955D01*
X4715662Y-6915556D01*
X4727956Y-6923684D01*
X4741164Y-6930288D01*
X4755083Y-6935216D01*
X4769510Y-6938365D01*
G37*
G36*
X6568440Y-6774637D02*
G01*
X6571792Y-6773113D01*
X6584340Y-6765340D01*
X6595872Y-6756095D01*
X6606133Y-6745478D01*
X6615023Y-6733692D01*
X6622440Y-6720840D01*
X6568440Y-6720840D01*
G37*
G36*
X6568440Y-6614159D02*
G01*
X6622186Y-6614159D01*
X6618884Y-6607556D01*
X6610756Y-6595262D01*
X6601155Y-6584035D01*
X6590233Y-6574129D01*
X6578193Y-6565595D01*
X6568440Y-6560362D01*
G37*
G36*
X6408013Y-6614159D02*
G01*
X6461760Y-6614159D01*
X6461760Y-6560362D01*
X6452006Y-6565595D01*
X6439966Y-6574129D01*
X6429044Y-6584035D01*
X6419443Y-6595262D01*
X6411315Y-6607556D01*
G37*
G36*
X5392420Y-6542379D02*
G01*
X5405475Y-6541465D01*
X5418277Y-6538823D01*
X5430621Y-6534454D01*
X5442204Y-6528409D01*
X5452922Y-6520891D01*
X5462473Y-6511950D01*
X5470753Y-6501790D01*
X5477916Y-6490004D01*
X5480151Y-6487414D01*
X5483148Y-6485737D01*
X5486552Y-6485128D01*
X5503672Y-6485128D01*
X5511698Y-6484315D01*
X5518912Y-6482130D01*
X5525617Y-6478574D01*
X5531815Y-6473444D01*
X6204864Y-5800445D01*
X6207607Y-5798464D01*
X6210858Y-5797499D01*
X6214211Y-5797702D01*
X6223508Y-5799683D01*
X6235700Y-5800547D01*
X6247892Y-5799683D01*
X6259830Y-5797092D01*
X6271260Y-5792825D01*
X6281978Y-5786983D01*
X6291732Y-5779668D01*
X6300368Y-5771032D01*
X6307683Y-5761278D01*
X6313525Y-5750560D01*
X6317792Y-5739130D01*
X6320383Y-5727192D01*
X6321247Y-5715000D01*
X6320383Y-5702808D01*
X6317792Y-5690870D01*
X6313525Y-5679440D01*
X6307683Y-5668721D01*
X6300368Y-5658967D01*
X6291732Y-5650331D01*
X6281978Y-5643016D01*
X6271260Y-5637174D01*
X6259830Y-5632907D01*
X6247892Y-5630316D01*
X6235700Y-5629452D01*
X6223508Y-5630316D01*
X6211570Y-5632907D01*
X6200140Y-5637174D01*
X6189421Y-5643016D01*
X6179667Y-5650331D01*
X6171031Y-5658967D01*
X6163716Y-5668721D01*
X6157874Y-5679440D01*
X6153607Y-5690870D01*
X6151016Y-5702808D01*
X6150152Y-5715000D01*
X6151016Y-5727192D01*
X6152997Y-5736488D01*
X6153200Y-5739841D01*
X6152235Y-5743092D01*
X6150254Y-5745835D01*
X5492800Y-6403289D01*
X5489752Y-6405372D01*
X5486247Y-6406286D01*
X5482590Y-6405829D01*
X5479338Y-6404152D01*
X5476900Y-6401409D01*
X5470753Y-6391249D01*
X5462473Y-6381089D01*
X5452922Y-6372148D01*
X5442204Y-6364630D01*
X5430621Y-6358585D01*
X5418277Y-6354216D01*
X5405475Y-6351574D01*
X5392420Y-6350660D01*
X5379364Y-6351574D01*
X5366562Y-6354216D01*
X5354218Y-6358585D01*
X5342636Y-6364630D01*
X5331917Y-6372148D01*
X5322366Y-6381089D01*
X5314086Y-6391249D01*
X5307330Y-6402425D01*
X5302097Y-6414414D01*
X5298541Y-6427012D01*
X5296763Y-6439966D01*
X5296763Y-6453073D01*
X5298541Y-6466027D01*
X5302097Y-6478625D01*
X5307330Y-6490614D01*
X5314086Y-6501790D01*
X5322366Y-6511950D01*
X5331917Y-6520891D01*
X5342636Y-6528409D01*
X5354218Y-6534454D01*
X5366562Y-6538823D01*
X5379364Y-6541465D01*
G37*
G36*
X4533900Y-6524447D02*
G01*
X4546092Y-6523583D01*
X4558030Y-6520992D01*
X4569460Y-6516725D01*
X4580178Y-6510883D01*
X4589932Y-6503568D01*
X4598568Y-6494932D01*
X4605883Y-6485178D01*
X4611725Y-6474460D01*
X4615992Y-6463030D01*
X4618583Y-6451092D01*
X4619447Y-6438900D01*
X4618583Y-6426708D01*
X4616602Y-6417411D01*
X4616399Y-6414058D01*
X4617364Y-6410807D01*
X4619345Y-6408064D01*
X4788204Y-6239205D01*
X4791506Y-6236970D01*
X4795418Y-6236208D01*
X4800396Y-6236208D01*
X4803800Y-6236817D01*
X4806848Y-6238494D01*
X4809083Y-6241084D01*
X4816246Y-6252870D01*
X4824526Y-6263030D01*
X4834077Y-6271971D01*
X4844796Y-6279489D01*
X4856378Y-6285534D01*
X4868722Y-6289903D01*
X4881524Y-6292545D01*
X4894580Y-6293459D01*
X4907635Y-6292545D01*
X4920437Y-6289903D01*
X4932781Y-6285534D01*
X4944364Y-6279489D01*
X4955082Y-6271971D01*
X4964633Y-6263030D01*
X4972913Y-6252870D01*
X4979670Y-6241694D01*
X4984902Y-6229705D01*
X4988458Y-6217107D01*
X4990236Y-6204153D01*
X4990236Y-6191046D01*
X4988458Y-6178092D01*
X4984902Y-6165494D01*
X4979670Y-6153505D01*
X4972913Y-6142329D01*
X4964633Y-6132169D01*
X4955082Y-6123228D01*
X4944364Y-6115710D01*
X4932781Y-6109665D01*
X4920437Y-6105296D01*
X4907635Y-6102654D01*
X4894580Y-6101740D01*
X4881524Y-6102654D01*
X4868722Y-6105296D01*
X4856378Y-6109665D01*
X4844796Y-6115710D01*
X4834077Y-6123228D01*
X4824526Y-6132169D01*
X4816246Y-6142329D01*
X4809083Y-6154115D01*
X4806848Y-6156706D01*
X4803851Y-6158382D01*
X4800447Y-6158992D01*
X4775708Y-6158992D01*
X4767681Y-6159804D01*
X4760468Y-6161989D01*
X4753762Y-6165545D01*
X4747564Y-6170676D01*
X4564735Y-6353454D01*
X4561992Y-6355435D01*
X4558741Y-6356400D01*
X4555388Y-6356197D01*
X4546092Y-6354216D01*
X4533900Y-6353352D01*
X4521708Y-6354216D01*
X4509770Y-6356807D01*
X4498340Y-6361074D01*
X4487621Y-6366916D01*
X4477867Y-6374231D01*
X4469231Y-6382867D01*
X4461916Y-6392621D01*
X4456074Y-6403340D01*
X4451807Y-6414770D01*
X4449216Y-6426708D01*
X4448352Y-6438900D01*
X4449216Y-6451092D01*
X4451807Y-6463030D01*
X4456074Y-6474460D01*
X4461916Y-6485178D01*
X4469231Y-6494932D01*
X4477867Y-6503568D01*
X4487621Y-6510883D01*
X4498340Y-6516725D01*
X4509770Y-6520992D01*
X4521708Y-6523583D01*
G37*
G36*
X10045700Y-6448247D02*
G01*
X10057892Y-6447383D01*
X10069830Y-6444792D01*
X10081260Y-6440525D01*
X10091978Y-6434683D01*
X10101732Y-6427368D01*
X10110368Y-6418732D01*
X10117683Y-6408978D01*
X10123525Y-6398260D01*
X10127792Y-6386830D01*
X10130383Y-6374892D01*
X10131247Y-6362700D01*
X10130383Y-6350508D01*
X10127792Y-6338570D01*
X10123525Y-6327140D01*
X10117683Y-6316421D01*
X10111740Y-6308496D01*
X10110216Y-6305600D01*
X10109708Y-6302400D01*
X10109708Y-5873394D01*
X10110368Y-5869838D01*
X10112197Y-5866739D01*
X10114991Y-5864504D01*
X10117378Y-5863183D01*
X10127132Y-5855868D01*
X10135768Y-5847232D01*
X10143083Y-5837478D01*
X10148925Y-5826760D01*
X10153192Y-5815330D01*
X10155783Y-5803392D01*
X10156647Y-5791200D01*
X10155783Y-5779008D01*
X10153192Y-5767070D01*
X10148925Y-5755640D01*
X10143083Y-5744921D01*
X10135768Y-5735167D01*
X10127132Y-5726531D01*
X10117378Y-5719216D01*
X10114991Y-5717946D01*
X10112197Y-5715660D01*
X10110368Y-5712561D01*
X10109708Y-5709005D01*
X10109708Y-5385308D01*
X10108895Y-5377281D01*
X10106710Y-5370068D01*
X10103154Y-5363362D01*
X10098024Y-5357164D01*
X10069322Y-5328462D01*
X10067188Y-5325313D01*
X10066375Y-5321604D01*
X10066934Y-5317896D01*
X10072116Y-5303316D01*
X10075265Y-5288889D01*
X10076637Y-5274208D01*
X10076180Y-5259425D01*
X10073894Y-5244846D01*
X10069830Y-5230672D01*
X10064089Y-5217058D01*
X10056723Y-5204307D01*
X10047833Y-5192522D01*
X10037572Y-5181904D01*
X10026040Y-5172659D01*
X10013492Y-5164886D01*
X10000081Y-5158740D01*
X9986060Y-5154269D01*
X9971532Y-5151526D01*
X9956800Y-5150612D01*
X9942068Y-5151526D01*
X9927539Y-5154269D01*
X9913518Y-5158740D01*
X9900107Y-5164886D01*
X9887559Y-5172659D01*
X9876028Y-5181904D01*
X9865766Y-5192522D01*
X9856876Y-5204307D01*
X9849510Y-5217058D01*
X9843770Y-5230672D01*
X9839706Y-5244846D01*
X9837420Y-5259425D01*
X9837013Y-5274208D01*
X9838334Y-5288889D01*
X9841484Y-5303316D01*
X9846411Y-5317236D01*
X9853015Y-5330444D01*
X9861143Y-5342737D01*
X9870744Y-5353964D01*
X9881666Y-5363870D01*
X9893706Y-5372404D01*
X9906711Y-5379415D01*
X9920478Y-5384749D01*
X9934752Y-5388305D01*
X9949434Y-5390134D01*
X9964166Y-5390134D01*
X9978847Y-5388305D01*
X9993122Y-5384749D01*
X10003739Y-5380634D01*
X10007600Y-5379923D01*
X10011359Y-5380736D01*
X10014610Y-5382920D01*
X10029494Y-5397804D01*
X10031730Y-5401106D01*
X10032492Y-5405018D01*
X10032492Y-5709005D01*
X10031831Y-5712561D01*
X10030002Y-5715660D01*
X10027208Y-5717946D01*
X10024821Y-5719216D01*
X10015067Y-5726531D01*
X10006431Y-5735167D01*
X9999116Y-5744921D01*
X9993274Y-5755640D01*
X9989007Y-5767070D01*
X9986416Y-5779008D01*
X9985552Y-5791200D01*
X9986416Y-5803392D01*
X9989007Y-5815330D01*
X9993274Y-5826760D01*
X9999116Y-5837478D01*
X10006431Y-5847232D01*
X10015067Y-5855868D01*
X10024821Y-5863183D01*
X10027208Y-5864504D01*
X10030002Y-5866739D01*
X10031831Y-5869838D01*
X10032492Y-5873394D01*
X10032492Y-6270040D01*
X10031933Y-6273393D01*
X10030256Y-6276390D01*
X10027666Y-6278676D01*
X10024516Y-6279946D01*
X10021570Y-6280607D01*
X10010140Y-6284874D01*
X9999421Y-6290716D01*
X9989667Y-6298031D01*
X9981031Y-6306667D01*
X9973716Y-6316421D01*
X9967874Y-6327140D01*
X9963607Y-6338570D01*
X9961016Y-6350508D01*
X9960152Y-6362700D01*
X9961016Y-6374892D01*
X9963607Y-6386830D01*
X9967874Y-6398260D01*
X9973716Y-6408978D01*
X9981031Y-6418732D01*
X9989667Y-6427368D01*
X9999421Y-6434683D01*
X10010140Y-6440525D01*
X10021570Y-6444792D01*
X10033508Y-6447383D01*
G37*
G36*
X4236262Y-6145784D02*
G01*
X4315561Y-6145784D01*
X4328972Y-6144869D01*
X4341774Y-6142228D01*
X4354118Y-6137859D01*
X4365701Y-6131814D01*
X4376420Y-6124295D01*
X4385970Y-6115354D01*
X4394250Y-6105194D01*
X4401058Y-6094018D01*
X4406239Y-6082030D01*
X4409795Y-6069431D01*
X4411573Y-6056426D01*
X4411573Y-6043371D01*
X4409795Y-6030366D01*
X4406239Y-6017768D01*
X4401058Y-6005779D01*
X4395216Y-5996178D01*
X4393793Y-5991961D01*
X4394301Y-5987491D01*
X4396689Y-5983732D01*
X4776724Y-5603646D01*
X4781854Y-5597448D01*
X4785410Y-5590743D01*
X4787595Y-5583529D01*
X4788408Y-5575503D01*
X4788408Y-5568594D01*
X4789170Y-5564733D01*
X4791354Y-5561482D01*
X4794605Y-5559247D01*
X4803241Y-5555589D01*
X4815992Y-5548223D01*
X4827778Y-5539333D01*
X4838395Y-5529072D01*
X4847640Y-5517540D01*
X4855413Y-5504992D01*
X4861560Y-5491581D01*
X4866030Y-5477560D01*
X4868773Y-5463032D01*
X4869688Y-5448300D01*
X4868773Y-5433568D01*
X4866030Y-5419039D01*
X4861560Y-5405018D01*
X4855413Y-5391607D01*
X4847640Y-5379059D01*
X4838395Y-5367528D01*
X4827778Y-5357266D01*
X4815992Y-5348376D01*
X4803241Y-5341010D01*
X4789627Y-5335270D01*
X4775454Y-5331206D01*
X4760874Y-5328920D01*
X4746091Y-5328513D01*
X4731410Y-5329834D01*
X4716983Y-5332984D01*
X4703064Y-5337911D01*
X4689856Y-5344515D01*
X4677562Y-5352643D01*
X4666335Y-5362244D01*
X4656429Y-5373166D01*
X4647895Y-5385206D01*
X4640884Y-5398211D01*
X4635550Y-5411978D01*
X4631994Y-5426252D01*
X4630166Y-5440934D01*
X4630166Y-5455666D01*
X4631994Y-5470347D01*
X4635550Y-5484622D01*
X4640884Y-5498388D01*
X4647895Y-5511393D01*
X4656429Y-5523433D01*
X4666335Y-5534355D01*
X4677562Y-5543956D01*
X4689856Y-5552084D01*
X4696764Y-5555538D01*
X4699762Y-5557875D01*
X4701743Y-5561126D01*
X4702352Y-5564886D01*
X4701540Y-5568645D01*
X4699406Y-5571794D01*
X4418736Y-5852464D01*
X4415434Y-5854700D01*
X4411522Y-5855462D01*
X4407611Y-5854649D01*
X4404309Y-5852414D01*
X4402124Y-5849061D01*
X4401413Y-5845149D01*
X4402226Y-5841238D01*
X4406239Y-5831992D01*
X4409795Y-5819394D01*
X4411573Y-5806440D01*
X4411573Y-5793333D01*
X4409795Y-5780379D01*
X4406239Y-5767781D01*
X4401058Y-5755792D01*
X4394301Y-5744667D01*
X4393031Y-5741416D01*
X4392930Y-5737910D01*
X4393996Y-5734608D01*
X4396790Y-5729376D01*
X4398975Y-5722162D01*
X4399788Y-5714136D01*
X4399788Y-5385663D01*
X4398975Y-5377637D01*
X4396790Y-5370423D01*
X4393996Y-5365191D01*
X4392930Y-5361838D01*
X4393031Y-5358384D01*
X4394301Y-5355132D01*
X4401413Y-5343398D01*
X4403699Y-5340756D01*
X4406696Y-5339080D01*
X4410100Y-5338521D01*
X4637379Y-5338521D01*
X4645406Y-5337708D01*
X4652619Y-5335524D01*
X4659274Y-5331968D01*
X4665522Y-5326837D01*
X4924348Y-5067960D01*
X4929479Y-5061762D01*
X4933035Y-5055057D01*
X4935220Y-5047843D01*
X4936032Y-5039817D01*
X4936032Y-4899355D01*
X4936794Y-4895443D01*
X4939030Y-4892141D01*
X4942281Y-4889957D01*
X4946192Y-4889195D01*
X5686501Y-4889195D01*
X5690311Y-4889906D01*
X5693613Y-4892040D01*
X5695797Y-4895240D01*
X5696661Y-4898999D01*
X5696051Y-4902860D01*
X5694019Y-4906162D01*
X5685129Y-4915966D01*
X5676595Y-4928006D01*
X5669584Y-4941011D01*
X5664250Y-4954778D01*
X5660694Y-4969052D01*
X5658866Y-4983734D01*
X5658866Y-4998466D01*
X5660694Y-5013147D01*
X5664250Y-5027422D01*
X5669584Y-5041188D01*
X5676595Y-5054193D01*
X5685129Y-5066233D01*
X5695035Y-5077155D01*
X5706262Y-5086756D01*
X5718556Y-5094884D01*
X5736640Y-5104079D01*
X5739028Y-5107482D01*
X5739892Y-5111546D01*
X5739892Y-5323382D01*
X5739028Y-5327446D01*
X5736640Y-5330799D01*
X5733084Y-5332984D01*
X5719064Y-5337911D01*
X5705856Y-5344515D01*
X5693562Y-5352643D01*
X5682335Y-5362244D01*
X5672429Y-5373166D01*
X5663895Y-5385206D01*
X5656884Y-5398211D01*
X5651550Y-5411978D01*
X5647994Y-5426252D01*
X5646166Y-5440934D01*
X5646166Y-5455666D01*
X5647994Y-5470347D01*
X5651550Y-5484622D01*
X5656884Y-5498388D01*
X5663895Y-5511393D01*
X5672429Y-5523433D01*
X5682335Y-5534355D01*
X5693562Y-5543956D01*
X5705856Y-5552084D01*
X5719064Y-5558688D01*
X5732983Y-5563616D01*
X5747410Y-5566765D01*
X5762091Y-5568137D01*
X5776874Y-5567680D01*
X5791454Y-5565394D01*
X5805627Y-5561330D01*
X5819241Y-5555589D01*
X5831992Y-5548223D01*
X5843778Y-5539333D01*
X5854395Y-5529072D01*
X5863640Y-5517540D01*
X5871768Y-5504434D01*
X5874004Y-5501843D01*
X5877001Y-5500166D01*
X5880404Y-5499608D01*
X6153505Y-5499608D01*
X6157061Y-5500268D01*
X6160160Y-5502097D01*
X6162446Y-5504891D01*
X6163716Y-5507278D01*
X6171031Y-5517032D01*
X6179667Y-5525668D01*
X6189421Y-5532983D01*
X6200140Y-5538825D01*
X6211570Y-5543092D01*
X6223508Y-5545683D01*
X6235700Y-5546547D01*
X6247892Y-5545683D01*
X6259830Y-5543092D01*
X6271260Y-5538825D01*
X6281978Y-5532983D01*
X6291732Y-5525668D01*
X6300368Y-5517032D01*
X6307683Y-5507278D01*
X6313525Y-5496560D01*
X6317792Y-5485130D01*
X6320383Y-5473192D01*
X6321247Y-5461000D01*
X6320383Y-5448808D01*
X6317792Y-5436870D01*
X6313525Y-5425440D01*
X6307683Y-5414721D01*
X6300368Y-5404967D01*
X6291732Y-5396331D01*
X6281978Y-5389016D01*
X6271260Y-5383174D01*
X6259830Y-5378907D01*
X6247892Y-5376316D01*
X6235700Y-5375452D01*
X6223508Y-5376316D01*
X6211570Y-5378907D01*
X6200140Y-5383174D01*
X6189421Y-5389016D01*
X6179667Y-5396331D01*
X6171031Y-5404967D01*
X6163716Y-5414721D01*
X6162446Y-5417108D01*
X6160160Y-5419902D01*
X6157061Y-5421731D01*
X6153505Y-5422392D01*
X5890514Y-5422392D01*
X5886399Y-5421528D01*
X5882944Y-5418988D01*
X5880862Y-5415330D01*
X5877560Y-5405018D01*
X5871413Y-5391607D01*
X5863640Y-5379059D01*
X5854395Y-5367528D01*
X5843778Y-5357266D01*
X5831992Y-5348376D01*
X5822188Y-5342686D01*
X5819495Y-5340451D01*
X5817717Y-5337403D01*
X5817108Y-5333898D01*
X5817108Y-5111394D01*
X5817870Y-5107533D01*
X5820054Y-5104282D01*
X5823305Y-5102047D01*
X5831941Y-5098389D01*
X5844692Y-5091023D01*
X5856478Y-5082133D01*
X5867095Y-5071872D01*
X5876340Y-5060340D01*
X5884113Y-5047792D01*
X5890260Y-5034381D01*
X5894730Y-5020360D01*
X5897473Y-5005832D01*
X5898388Y-4991100D01*
X5897473Y-4976368D01*
X5894730Y-4961839D01*
X5890260Y-4947818D01*
X5884113Y-4934407D01*
X5876340Y-4921859D01*
X5867095Y-4910328D01*
X5863234Y-4906619D01*
X5860999Y-4903317D01*
X5860135Y-4899456D01*
X5860897Y-4895494D01*
X5863082Y-4892192D01*
X5866384Y-4889957D01*
X5870295Y-4889195D01*
X5945733Y-4889195D01*
X5949645Y-4889957D01*
X5952947Y-4892141D01*
X6190030Y-5129225D01*
X6196279Y-5134356D01*
X6202934Y-5137912D01*
X6210147Y-5140096D01*
X6218174Y-5140909D01*
X6415684Y-5140909D01*
X6423710Y-5140096D01*
X6430924Y-5137912D01*
X6437630Y-5134356D01*
X6443827Y-5129225D01*
X6450533Y-5122570D01*
X6455664Y-5116322D01*
X6459220Y-5109667D01*
X6461404Y-5102453D01*
X6462217Y-5094427D01*
X6462217Y-4868316D01*
X6461404Y-4860290D01*
X6459220Y-4853076D01*
X6455664Y-4846421D01*
X6450533Y-4840173D01*
X6417005Y-4806645D01*
X6415024Y-4803851D01*
X6414058Y-4800549D01*
X6414312Y-4797094D01*
X6416903Y-4786274D01*
X6417767Y-4775200D01*
X6416903Y-4764125D01*
X6414312Y-4753305D01*
X6410045Y-4743043D01*
X6404254Y-4733544D01*
X6397040Y-4725060D01*
X6388557Y-4717846D01*
X6379057Y-4712055D01*
X6368796Y-4707788D01*
X6358280Y-4705248D01*
X6354267Y-4703267D01*
X6351473Y-4699762D01*
X6350508Y-4695393D01*
X6350508Y-4643018D01*
X6351270Y-4639106D01*
X6353505Y-4635804D01*
X6863689Y-4125620D01*
X6866940Y-4123436D01*
X6870700Y-4122623D01*
X6874560Y-4123334D01*
X6885178Y-4127449D01*
X6899452Y-4131005D01*
X6914134Y-4132834D01*
X6928866Y-4132834D01*
X6943547Y-4131005D01*
X6957822Y-4127449D01*
X6971588Y-4122115D01*
X6984593Y-4115104D01*
X6996633Y-4106570D01*
X7007555Y-4096664D01*
X7017156Y-4085437D01*
X7025284Y-4073144D01*
X7031888Y-4059936D01*
X7036816Y-4046016D01*
X7039965Y-4031589D01*
X7041337Y-4016908D01*
X7040880Y-4002125D01*
X7038594Y-3987546D01*
X7034530Y-3973372D01*
X7028789Y-3959758D01*
X7021423Y-3947007D01*
X7012533Y-3935222D01*
X7002272Y-3924604D01*
X6990740Y-3915359D01*
X6978192Y-3907586D01*
X6964781Y-3901440D01*
X6950760Y-3896969D01*
X6936231Y-3894226D01*
X6921500Y-3893312D01*
X6906768Y-3894226D01*
X6892239Y-3896969D01*
X6878218Y-3901440D01*
X6864807Y-3907586D01*
X6852259Y-3915359D01*
X6840728Y-3924604D01*
X6830466Y-3935222D01*
X6821576Y-3947007D01*
X6814210Y-3959758D01*
X6808470Y-3973372D01*
X6804406Y-3987546D01*
X6802120Y-4002125D01*
X6801713Y-4016908D01*
X6803034Y-4031589D01*
X6806184Y-4046016D01*
X6811365Y-4060596D01*
X6811924Y-4064304D01*
X6811111Y-4068013D01*
X6808978Y-4071162D01*
X6284976Y-4595164D01*
X6279845Y-4601362D01*
X6276289Y-4608068D01*
X6274104Y-4615281D01*
X6273292Y-4623308D01*
X6273292Y-4695393D01*
X6272326Y-4699762D01*
X6269532Y-4703267D01*
X6265519Y-4705248D01*
X6255004Y-4707788D01*
X6244742Y-4712055D01*
X6235242Y-4717846D01*
X6226759Y-4725060D01*
X6219545Y-4733544D01*
X6213754Y-4743043D01*
X6210096Y-4751832D01*
X6207912Y-4755134D01*
X6204610Y-4757369D01*
X6200698Y-4758131D01*
X6196838Y-4757369D01*
X6193536Y-4755134D01*
X5910275Y-4471873D01*
X5908751Y-4469942D01*
X5907735Y-4467758D01*
X5902960Y-4452467D01*
X5896813Y-4439107D01*
X5889040Y-4426559D01*
X5879795Y-4415028D01*
X5869178Y-4404766D01*
X5857392Y-4395876D01*
X5844641Y-4388510D01*
X5836005Y-4384852D01*
X5832754Y-4382617D01*
X5830570Y-4379366D01*
X5829808Y-4375505D01*
X5829808Y-4267708D01*
X5828995Y-4259681D01*
X5826810Y-4252468D01*
X5823254Y-4245762D01*
X5818124Y-4239564D01*
X5584545Y-4005935D01*
X5582564Y-4003192D01*
X5581599Y-3999941D01*
X5581802Y-3996588D01*
X5583783Y-3987292D01*
X5584647Y-3975100D01*
X5583783Y-3962908D01*
X5581192Y-3950970D01*
X5576925Y-3939540D01*
X5571083Y-3928821D01*
X5563768Y-3919067D01*
X5555132Y-3910431D01*
X5545378Y-3903116D01*
X5534660Y-3897274D01*
X5523230Y-3893007D01*
X5511292Y-3890416D01*
X5499100Y-3889552D01*
X5486908Y-3890416D01*
X5474970Y-3893007D01*
X5463540Y-3897274D01*
X5452821Y-3903116D01*
X5443067Y-3910431D01*
X5434431Y-3919067D01*
X5427116Y-3928821D01*
X5421274Y-3939540D01*
X5417007Y-3950970D01*
X5414416Y-3962908D01*
X5413552Y-3975100D01*
X5414416Y-3987292D01*
X5417007Y-3999229D01*
X5421274Y-4010660D01*
X5427116Y-4021378D01*
X5434431Y-4031132D01*
X5443067Y-4039768D01*
X5452821Y-4047083D01*
X5463540Y-4052925D01*
X5474970Y-4057192D01*
X5486908Y-4059783D01*
X5499100Y-4060647D01*
X5511292Y-4059783D01*
X5520588Y-4057802D01*
X5523941Y-4057599D01*
X5527192Y-4058564D01*
X5529935Y-4060545D01*
X5749594Y-4280204D01*
X5751830Y-4283506D01*
X5752592Y-4287418D01*
X5752592Y-4375353D01*
X5751728Y-4379417D01*
X5749340Y-4382820D01*
X5731256Y-4392015D01*
X5718962Y-4400143D01*
X5707735Y-4409744D01*
X5697829Y-4420666D01*
X5689295Y-4432706D01*
X5682284Y-4445711D01*
X5676950Y-4459478D01*
X5673394Y-4473752D01*
X5671566Y-4488434D01*
X5671566Y-4503166D01*
X5673394Y-4517847D01*
X5676950Y-4532122D01*
X5682284Y-4545888D01*
X5689295Y-4558893D01*
X5697829Y-4570933D01*
X5707735Y-4581855D01*
X5718962Y-4591456D01*
X5731256Y-4599584D01*
X5744464Y-4606188D01*
X5758383Y-4611116D01*
X5772810Y-4614265D01*
X5787491Y-4615637D01*
X5802274Y-4615180D01*
X5816854Y-4612894D01*
X5831027Y-4608830D01*
X5844641Y-4603089D01*
X5857392Y-4595723D01*
X5869178Y-4586833D01*
X5879795Y-4576572D01*
X5884265Y-4570984D01*
X5887516Y-4568342D01*
X5891631Y-4567224D01*
X5895797Y-4567885D01*
X5899353Y-4570171D01*
X6205474Y-4876292D01*
X6207455Y-4879086D01*
X6208369Y-4882438D01*
X6208166Y-4885842D01*
X6206896Y-4891125D01*
X6206032Y-4902200D01*
X6206896Y-4913274D01*
X6209487Y-4924094D01*
X6213754Y-4934356D01*
X6219545Y-4943856D01*
X6221780Y-4946497D01*
X6223863Y-4950307D01*
X6224117Y-4954625D01*
X6222542Y-4958638D01*
X6219494Y-4961686D01*
X6215786Y-4963972D01*
X6211671Y-4968087D01*
X6208623Y-4972964D01*
X6206693Y-4978450D01*
X6205982Y-4984750D01*
X6205982Y-5000345D01*
X6265570Y-5000345D01*
X6265570Y-4983175D01*
X6266383Y-4979111D01*
X6268821Y-4975707D01*
X6272377Y-4973574D01*
X6277305Y-4973116D01*
X6346494Y-4973116D01*
X6351422Y-4973574D01*
X6354978Y-4975707D01*
X6357416Y-4979111D01*
X6358229Y-4983175D01*
X6358229Y-5000345D01*
X6374841Y-5000345D01*
X6378702Y-5001107D01*
X6382004Y-5003342D01*
X6384188Y-5006644D01*
X6385001Y-5010505D01*
X6385001Y-5047894D01*
X6384188Y-5051755D01*
X6382004Y-5055057D01*
X6378702Y-5057292D01*
X6374841Y-5058054D01*
X6357213Y-5058054D01*
X6354927Y-5061051D01*
X6351778Y-5062982D01*
X6348069Y-5063693D01*
X6275730Y-5063693D01*
X6272022Y-5062982D01*
X6268872Y-5061051D01*
X6266586Y-5058054D01*
X6232245Y-5058054D01*
X6228384Y-5057292D01*
X6225082Y-5055057D01*
X5993587Y-4823612D01*
X5987389Y-4818481D01*
X5980684Y-4814925D01*
X5973470Y-4812741D01*
X5965444Y-4811979D01*
X4946192Y-4811979D01*
X4942281Y-4811166D01*
X4939030Y-4808982D01*
X4936794Y-4805680D01*
X4936032Y-4801819D01*
X4936032Y-4618532D01*
X4935220Y-4610506D01*
X4933035Y-4603292D01*
X4929479Y-4596587D01*
X4924348Y-4590389D01*
X4887620Y-4553610D01*
X4885334Y-4550206D01*
X4884623Y-4546142D01*
X4885537Y-4542180D01*
X4886960Y-4539081D01*
X4891430Y-4525060D01*
X4894173Y-4510532D01*
X4895088Y-4495800D01*
X4894173Y-4481068D01*
X4891430Y-4466539D01*
X4886960Y-4452518D01*
X4880813Y-4439107D01*
X4873040Y-4426559D01*
X4863795Y-4415028D01*
X4853178Y-4404766D01*
X4841392Y-4395876D01*
X4828641Y-4388510D01*
X4815027Y-4382770D01*
X4800854Y-4378706D01*
X4786274Y-4376420D01*
X4771491Y-4376013D01*
X4756810Y-4377334D01*
X4742383Y-4380484D01*
X4728464Y-4385411D01*
X4715256Y-4392015D01*
X4702962Y-4400143D01*
X4691735Y-4409744D01*
X4681829Y-4420666D01*
X4673295Y-4432706D01*
X4666284Y-4445711D01*
X4660950Y-4459478D01*
X4657394Y-4473752D01*
X4655566Y-4488434D01*
X4655566Y-4503166D01*
X4657394Y-4517847D01*
X4660950Y-4532122D01*
X4666284Y-4545888D01*
X4673295Y-4558893D01*
X4681829Y-4570933D01*
X4691735Y-4581855D01*
X4702962Y-4591456D01*
X4715256Y-4599584D01*
X4728464Y-4606188D01*
X4742383Y-4611116D01*
X4756810Y-4614265D01*
X4771491Y-4615637D01*
X4786274Y-4615180D01*
X4800854Y-4612894D01*
X4815027Y-4608830D01*
X4821834Y-4605985D01*
X4825746Y-4605172D01*
X4829657Y-4605934D01*
X4832959Y-4608169D01*
X4855819Y-4631029D01*
X4858054Y-4634331D01*
X4858816Y-4638243D01*
X4858816Y-4893818D01*
X4858054Y-4897678D01*
X4855870Y-4900980D01*
X4852619Y-4903216D01*
X4848758Y-4903978D01*
X4844897Y-4903266D01*
X4828692Y-4891176D01*
X4815941Y-4883810D01*
X4802327Y-4878070D01*
X4788154Y-4874006D01*
X4773574Y-4871720D01*
X4758791Y-4871313D01*
X4744110Y-4872634D01*
X4729683Y-4875784D01*
X4715764Y-4880711D01*
X4702556Y-4887315D01*
X4690262Y-4895443D01*
X4679035Y-4905044D01*
X4669129Y-4915966D01*
X4660595Y-4928006D01*
X4653584Y-4941011D01*
X4651654Y-4945989D01*
X4649470Y-4949393D01*
X4646168Y-4951679D01*
X4642205Y-4952492D01*
X4335221Y-4952492D01*
X4327194Y-4953304D01*
X4324908Y-4953965D01*
X4321302Y-4954371D01*
X4315561Y-4954016D01*
X4236262Y-4954016D01*
X4222851Y-4954930D01*
X4210050Y-4957572D01*
X4197705Y-4961940D01*
X4186072Y-4967986D01*
X4175404Y-4975504D01*
X4165803Y-4984445D01*
X4157573Y-4994605D01*
X4150766Y-5005781D01*
X4145534Y-5017770D01*
X4142028Y-5030368D01*
X4140250Y-5043373D01*
X4140250Y-5056428D01*
X4142028Y-5069433D01*
X4145534Y-5082032D01*
X4150766Y-5094020D01*
X4157573Y-5105196D01*
X4165803Y-5115356D01*
X4175404Y-5124297D01*
X4186072Y-5131816D01*
X4197705Y-5137861D01*
X4210050Y-5142230D01*
X4222851Y-5144871D01*
X4236262Y-5145786D01*
X4315561Y-5145786D01*
X4328972Y-5144871D01*
X4341774Y-5142230D01*
X4354118Y-5137861D01*
X4365701Y-5131816D01*
X4376420Y-5124297D01*
X4385970Y-5115356D01*
X4394250Y-5105196D01*
X4401058Y-5094020D01*
X4406239Y-5082032D01*
X4409795Y-5069433D01*
X4411573Y-5056428D01*
X4411573Y-5043373D01*
X4411268Y-5041239D01*
X4411624Y-5036972D01*
X4413656Y-5033213D01*
X4417110Y-5030622D01*
X4421327Y-5029708D01*
X4642205Y-5029708D01*
X4646168Y-5030520D01*
X4649470Y-5032806D01*
X4651654Y-5036210D01*
X4653584Y-5041188D01*
X4660595Y-5054193D01*
X4669129Y-5066233D01*
X4679035Y-5077155D01*
X4690262Y-5086756D01*
X4702556Y-5094884D01*
X4715764Y-5101488D01*
X4729683Y-5106416D01*
X4744110Y-5109565D01*
X4749546Y-5110073D01*
X4753203Y-5111089D01*
X4756200Y-5113426D01*
X4758182Y-5116728D01*
X4758791Y-5120487D01*
X4757928Y-5124196D01*
X4755794Y-5127345D01*
X4624832Y-5258308D01*
X4621530Y-5260492D01*
X4617669Y-5261305D01*
X4410100Y-5261305D01*
X4406696Y-5260695D01*
X4403648Y-5259019D01*
X4401413Y-5256377D01*
X4394250Y-5244592D01*
X4385970Y-5234432D01*
X4376420Y-5225542D01*
X4365701Y-5217972D01*
X4354118Y-5211978D01*
X4341774Y-5207558D01*
X4328972Y-5204917D01*
X4315561Y-5204002D01*
X4236262Y-5204002D01*
X4222851Y-5204917D01*
X4210050Y-5207558D01*
X4197705Y-5211978D01*
X4186072Y-5217972D01*
X4175404Y-5225542D01*
X4165803Y-5234432D01*
X4157573Y-5244592D01*
X4150766Y-5255768D01*
X4145534Y-5267807D01*
X4142028Y-5280406D01*
X4140250Y-5293360D01*
X4140250Y-5306466D01*
X4142028Y-5319420D01*
X4145534Y-5332018D01*
X4150766Y-5344007D01*
X4157573Y-5355183D01*
X4165803Y-5365343D01*
X4175404Y-5374284D01*
X4186072Y-5381802D01*
X4197705Y-5387848D01*
X4210050Y-5392216D01*
X4222851Y-5394909D01*
X4236262Y-5395823D01*
X4312412Y-5395823D01*
X4316323Y-5396585D01*
X4319574Y-5398770D01*
X4321810Y-5402072D01*
X4322572Y-5405983D01*
X4322572Y-5466537D01*
X4321708Y-5470601D01*
X4319371Y-5473954D01*
X4315815Y-5476138D01*
X4311751Y-5476697D01*
X4307535Y-5475478D01*
X4296359Y-5471668D01*
X4284726Y-5469483D01*
X4272940Y-5469077D01*
X4261205Y-5470347D01*
X4249775Y-5473344D01*
X4238904Y-5477967D01*
X4228846Y-5484114D01*
X4219752Y-5491683D01*
X4211878Y-5500471D01*
X4205376Y-5510326D01*
X4200347Y-5520994D01*
X4196943Y-5532323D01*
X4195216Y-5544007D01*
X4195216Y-5555792D01*
X4196943Y-5567476D01*
X4200347Y-5578805D01*
X4205376Y-5589473D01*
X4211878Y-5599328D01*
X4219752Y-5608116D01*
X4228846Y-5615686D01*
X4238904Y-5621832D01*
X4249775Y-5626455D01*
X4261205Y-5629452D01*
X4272940Y-5630722D01*
X4284726Y-5630316D01*
X4296359Y-5628132D01*
X4307789Y-5624220D01*
X4311751Y-5623102D01*
X4315815Y-5623712D01*
X4319371Y-5625846D01*
X4321708Y-5629198D01*
X4322572Y-5633262D01*
X4322572Y-5693816D01*
X4321810Y-5697728D01*
X4319574Y-5701030D01*
X4316323Y-5703214D01*
X4312412Y-5703976D01*
X4236262Y-5703976D01*
X4222851Y-5704890D01*
X4210050Y-5707583D01*
X4197705Y-5711952D01*
X4186072Y-5717997D01*
X4175404Y-5725515D01*
X4165803Y-5734456D01*
X4157573Y-5744616D01*
X4150766Y-5755792D01*
X4145534Y-5767781D01*
X4142028Y-5780379D01*
X4140250Y-5793333D01*
X4140250Y-5806440D01*
X4142028Y-5819394D01*
X4145534Y-5831992D01*
X4150766Y-5844032D01*
X4157573Y-5855208D01*
X4165803Y-5865368D01*
X4175404Y-5874258D01*
X4186072Y-5881827D01*
X4197705Y-5887821D01*
X4210050Y-5892241D01*
X4222851Y-5894882D01*
X4236262Y-5895797D01*
X4315561Y-5895797D01*
X4328972Y-5894882D01*
X4341774Y-5892241D01*
X4354118Y-5887821D01*
X4356608Y-5886551D01*
X4360519Y-5885434D01*
X4364583Y-5885992D01*
X4368088Y-5888024D01*
X4370527Y-5891326D01*
X4371441Y-5895340D01*
X4370679Y-5899353D01*
X4368444Y-5902756D01*
X4320184Y-5951016D01*
X4316882Y-5953201D01*
X4313021Y-5954014D01*
X4236262Y-5954014D01*
X4222851Y-5954928D01*
X4210050Y-5957570D01*
X4197705Y-5961938D01*
X4186072Y-5967984D01*
X4175404Y-5975502D01*
X4165803Y-5984443D01*
X4157573Y-5994603D01*
X4150766Y-6005779D01*
X4145534Y-6017768D01*
X4142028Y-6030366D01*
X4140250Y-6043371D01*
X4140250Y-6056426D01*
X4142028Y-6069431D01*
X4145534Y-6082030D01*
X4150766Y-6094018D01*
X4157573Y-6105194D01*
X4165803Y-6115354D01*
X4175404Y-6124295D01*
X4186072Y-6131814D01*
X4197705Y-6137859D01*
X4210050Y-6142228D01*
X4222851Y-6144869D01*
G37*
G36*
X3772966Y-6130747D02*
G01*
X3784752Y-6130290D01*
X3796334Y-6128156D01*
X3807510Y-6124346D01*
X3818026Y-6118961D01*
X3827627Y-6112052D01*
X3836162Y-6103874D01*
X3843375Y-6094526D01*
X3849115Y-6084214D01*
X3853332Y-6073190D01*
X3855923Y-6061659D01*
X3856786Y-6049924D01*
X3855923Y-6038138D01*
X3853332Y-6026607D01*
X3849115Y-6015583D01*
X3843375Y-6005271D01*
X3836162Y-5995924D01*
X3827627Y-5987745D01*
X3818026Y-5980836D01*
X3807510Y-5975451D01*
X3796334Y-5971641D01*
X3784752Y-5969508D01*
X3772966Y-5969050D01*
X3761232Y-5970371D01*
X3749801Y-5973368D01*
X3738930Y-5977991D01*
X3728821Y-5984138D01*
X3719779Y-5991656D01*
X3711905Y-6000445D01*
X3705351Y-6010300D01*
X3700373Y-6021019D01*
X3696970Y-6032296D01*
X3695242Y-6043980D01*
X3695242Y-6055817D01*
X3696970Y-6067501D01*
X3700373Y-6078778D01*
X3705351Y-6089497D01*
X3711905Y-6099352D01*
X3719779Y-6108141D01*
X3728821Y-6115659D01*
X3738930Y-6121857D01*
X3749801Y-6126429D01*
X3761232Y-6129426D01*
G37*
G36*
X5351068Y-6034989D02*
G01*
X5351068Y-5990031D01*
X5306110Y-5990031D01*
X5307330Y-5992774D01*
X5314086Y-6003950D01*
X5322366Y-6014110D01*
X5331917Y-6023051D01*
X5342636Y-6030569D01*
G37*
G36*
X5433771Y-6034989D02*
G01*
X5442204Y-6030569D01*
X5452922Y-6023051D01*
X5462473Y-6014110D01*
X5470753Y-6003950D01*
X5477510Y-5992774D01*
X5478729Y-5990031D01*
X5433771Y-5990031D01*
G37*
G36*
X6515100Y-6025388D02*
G01*
X6529831Y-6024473D01*
X6544360Y-6021730D01*
X6558381Y-6017260D01*
X6571792Y-6011113D01*
X6584340Y-6003340D01*
X6595872Y-5994095D01*
X6606133Y-5983478D01*
X6615023Y-5971692D01*
X6622389Y-5958941D01*
X6626047Y-5950305D01*
X6628282Y-5947054D01*
X6631533Y-5944870D01*
X6635394Y-5944108D01*
X6666992Y-5944108D01*
X6675018Y-5943295D01*
X6682231Y-5941110D01*
X6688937Y-5937554D01*
X6695135Y-5932424D01*
X6800189Y-5827420D01*
X6803593Y-5825134D01*
X6807657Y-5824423D01*
X6811619Y-5825337D01*
X6814718Y-5826760D01*
X6828739Y-5831230D01*
X6843268Y-5833973D01*
X6858000Y-5834888D01*
X6872731Y-5833973D01*
X6887260Y-5831230D01*
X6901281Y-5826760D01*
X6914692Y-5820613D01*
X6927240Y-5812840D01*
X6938772Y-5803595D01*
X6949033Y-5792978D01*
X6957923Y-5781192D01*
X6965289Y-5768441D01*
X6971030Y-5754827D01*
X6975094Y-5740654D01*
X6977380Y-5726074D01*
X6977837Y-5711291D01*
X6976465Y-5696610D01*
X6973316Y-5682183D01*
X6968388Y-5668264D01*
X6961784Y-5655056D01*
X6953656Y-5642762D01*
X6944055Y-5631535D01*
X6933133Y-5621629D01*
X6921093Y-5613095D01*
X6908088Y-5606084D01*
X6894322Y-5600750D01*
X6880047Y-5597194D01*
X6865366Y-5595366D01*
X6850634Y-5595366D01*
X6835952Y-5597194D01*
X6821678Y-5600750D01*
X6807911Y-5606084D01*
X6794906Y-5613095D01*
X6782866Y-5621629D01*
X6771944Y-5631535D01*
X6762343Y-5642762D01*
X6754215Y-5655056D01*
X6747611Y-5668264D01*
X6742684Y-5682183D01*
X6739534Y-5696610D01*
X6738213Y-5711291D01*
X6738620Y-5726074D01*
X6740906Y-5740654D01*
X6744970Y-5754827D01*
X6747814Y-5761634D01*
X6748627Y-5765546D01*
X6747865Y-5769457D01*
X6745630Y-5772759D01*
X6654495Y-5863894D01*
X6651193Y-5866130D01*
X6647281Y-5866892D01*
X6635546Y-5866892D01*
X6631482Y-5866028D01*
X6628079Y-5863640D01*
X6618884Y-5845556D01*
X6610756Y-5833262D01*
X6601155Y-5822035D01*
X6590233Y-5812129D01*
X6578193Y-5803595D01*
X6565188Y-5796584D01*
X6551422Y-5791250D01*
X6537147Y-5787694D01*
X6522466Y-5785866D01*
X6507734Y-5785866D01*
X6493052Y-5787694D01*
X6478778Y-5791250D01*
X6465011Y-5796584D01*
X6452006Y-5803595D01*
X6439966Y-5812129D01*
X6429044Y-5822035D01*
X6419443Y-5833262D01*
X6411315Y-5845556D01*
X6404711Y-5858764D01*
X6399784Y-5872683D01*
X6396634Y-5887110D01*
X6395313Y-5901791D01*
X6395720Y-5916574D01*
X6398006Y-5931154D01*
X6402070Y-5945327D01*
X6407810Y-5958941D01*
X6415176Y-5971692D01*
X6424066Y-5983478D01*
X6434328Y-5994095D01*
X6445859Y-6003340D01*
X6458407Y-6011113D01*
X6471818Y-6017260D01*
X6485839Y-6021730D01*
X6500368Y-6024473D01*
G37*
G36*
X5433771Y-5907328D02*
G01*
X5478729Y-5907328D01*
X5477510Y-5904585D01*
X5470753Y-5893409D01*
X5462473Y-5883249D01*
X5452922Y-5874308D01*
X5442204Y-5866790D01*
X5433771Y-5862370D01*
G37*
G36*
X5306110Y-5907328D02*
G01*
X5351068Y-5907328D01*
X5351068Y-5862370D01*
X5342636Y-5866790D01*
X5331917Y-5874308D01*
X5322366Y-5883249D01*
X5314086Y-5893409D01*
X5307330Y-5904585D01*
G37*
G36*
X9853320Y-5868670D02*
G01*
X9863378Y-5863183D01*
X9873132Y-5855868D01*
X9881768Y-5847232D01*
X9889083Y-5837478D01*
X9894570Y-5827420D01*
X9853320Y-5827420D01*
G37*
G36*
X9780930Y-5868670D02*
G01*
X9780930Y-5827420D01*
X9739630Y-5827420D01*
X9745116Y-5837478D01*
X9752431Y-5847232D01*
X9761067Y-5855868D01*
X9770821Y-5863183D01*
G37*
G36*
X9853320Y-5755030D02*
G01*
X9894570Y-5755030D01*
X9889083Y-5744921D01*
X9881768Y-5735167D01*
X9873132Y-5726531D01*
X9863378Y-5719216D01*
X9853320Y-5713730D01*
G37*
G36*
X9739630Y-5755030D02*
G01*
X9780930Y-5755030D01*
X9780930Y-5713730D01*
X9770821Y-5719216D01*
X9761067Y-5726531D01*
X9752431Y-5735167D01*
X9745116Y-5744921D01*
G37*
G36*
X3817264Y-5676239D02*
G01*
X3820007Y-5675020D01*
X3831183Y-5668213D01*
X3841343Y-5659983D01*
X3850284Y-5650433D01*
X3857802Y-5639714D01*
X3863848Y-5628081D01*
X3868216Y-5615787D01*
X3869182Y-5611266D01*
X3817264Y-5611266D01*
G37*
G36*
X3734562Y-5676239D02*
G01*
X3734562Y-5611266D01*
X3682644Y-5611266D01*
X3683558Y-5615787D01*
X3687978Y-5628081D01*
X3693972Y-5639714D01*
X3701542Y-5650433D01*
X3710432Y-5659983D01*
X3720592Y-5668213D01*
X3731768Y-5675020D01*
G37*
G36*
X3817264Y-5488533D02*
G01*
X3869182Y-5488533D01*
X3868216Y-5484012D01*
X3863848Y-5471718D01*
X3857802Y-5460085D01*
X3850284Y-5449366D01*
X3841343Y-5439816D01*
X3831183Y-5431586D01*
X3820007Y-5424779D01*
X3817264Y-5423560D01*
G37*
G36*
X3682644Y-5488533D02*
G01*
X3734562Y-5488533D01*
X3734562Y-5423560D01*
X3731768Y-5424779D01*
X3720592Y-5431586D01*
X3710432Y-5439816D01*
X3701542Y-5449366D01*
X3693972Y-5460085D01*
X3687978Y-5471718D01*
X3683558Y-5484012D01*
G37*
G36*
X3772966Y-5130749D02*
G01*
X3784752Y-5130292D01*
X3796334Y-5128158D01*
X3807510Y-5124348D01*
X3818026Y-5118963D01*
X3827627Y-5112054D01*
X3836162Y-5103876D01*
X3843375Y-5094528D01*
X3849115Y-5084216D01*
X3853332Y-5073192D01*
X3855923Y-5061661D01*
X3856786Y-5049926D01*
X3855923Y-5038140D01*
X3853332Y-5026609D01*
X3849115Y-5015585D01*
X3843375Y-5005273D01*
X3836162Y-4995926D01*
X3827627Y-4987747D01*
X3818026Y-4980838D01*
X3807510Y-4975453D01*
X3796334Y-4971643D01*
X3784752Y-4969510D01*
X3772966Y-4969052D01*
X3761232Y-4970373D01*
X3749801Y-4973370D01*
X3738930Y-4977993D01*
X3728821Y-4984140D01*
X3719779Y-4991658D01*
X3711905Y-5000447D01*
X3705351Y-5010302D01*
X3700373Y-5021021D01*
X3696970Y-5032298D01*
X3695242Y-5043982D01*
X3695242Y-5055819D01*
X3696970Y-5067503D01*
X3700373Y-5078780D01*
X3705351Y-5089499D01*
X3711905Y-5099354D01*
X3719779Y-5108143D01*
X3728821Y-5115661D01*
X3738930Y-5121859D01*
X3749801Y-5126431D01*
X3761232Y-5129428D01*
G37*
G36*
X9029700Y-4708347D02*
G01*
X9041892Y-4707483D01*
X9053830Y-4704892D01*
X9065260Y-4700625D01*
X9075978Y-4694783D01*
X9085732Y-4687468D01*
X9094368Y-4678832D01*
X9101683Y-4669078D01*
X9103004Y-4666691D01*
X9105239Y-4663897D01*
X9108338Y-4662068D01*
X9111894Y-4661408D01*
X9587992Y-4661408D01*
X9596018Y-4660595D01*
X9603232Y-4658410D01*
X9609937Y-4654854D01*
X9616135Y-4649724D01*
X9898989Y-4366920D01*
X9902240Y-4364736D01*
X9906000Y-4363923D01*
X9909860Y-4364634D01*
X9920478Y-4368749D01*
X9934752Y-4372305D01*
X9949434Y-4374134D01*
X9964166Y-4374134D01*
X9978847Y-4372305D01*
X9993122Y-4368749D01*
X10006888Y-4363415D01*
X10019893Y-4356404D01*
X10031933Y-4347870D01*
X10042855Y-4337964D01*
X10052456Y-4326737D01*
X10060584Y-4314444D01*
X10067188Y-4301236D01*
X10072116Y-4287316D01*
X10075265Y-4272889D01*
X10076637Y-4258208D01*
X10076180Y-4243425D01*
X10073894Y-4228846D01*
X10069830Y-4214672D01*
X10064089Y-4201058D01*
X10056723Y-4188307D01*
X10047833Y-4176522D01*
X10037572Y-4165904D01*
X10026040Y-4156659D01*
X10013492Y-4148886D01*
X10000691Y-4142994D01*
X9997795Y-4141012D01*
X9995763Y-4138117D01*
X9994595Y-4132681D01*
X9992410Y-4125468D01*
X9988854Y-4118762D01*
X9983724Y-4112564D01*
X9337141Y-3465931D01*
X9334906Y-3462528D01*
X9334144Y-3458565D01*
X9335058Y-3454603D01*
X9337903Y-3448253D01*
X9342424Y-3433724D01*
X9345168Y-3418789D01*
X9346082Y-3403600D01*
X9345168Y-3388410D01*
X9342424Y-3373475D01*
X9337903Y-3358946D01*
X9331655Y-3345078D01*
X9323781Y-3332073D01*
X9314434Y-3320135D01*
X9303664Y-3309365D01*
X9291726Y-3300018D01*
X9278721Y-3292144D01*
X9264853Y-3285896D01*
X9250324Y-3281375D01*
X9235389Y-3278632D01*
X9220200Y-3277717D01*
X9205010Y-3278632D01*
X9190075Y-3281375D01*
X9175546Y-3285896D01*
X9161678Y-3292144D01*
X9148673Y-3300018D01*
X9136735Y-3309365D01*
X9125966Y-3320135D01*
X9116618Y-3332073D01*
X9108744Y-3345078D01*
X9102496Y-3358946D01*
X9097975Y-3373475D01*
X9095232Y-3388410D01*
X9094317Y-3403600D01*
X9095232Y-3418789D01*
X9097975Y-3433724D01*
X9102496Y-3448253D01*
X9108744Y-3462121D01*
X9116618Y-3475126D01*
X9125966Y-3487064D01*
X9136735Y-3497834D01*
X9148673Y-3507181D01*
X9161678Y-3515055D01*
X9175546Y-3521303D01*
X9190075Y-3525824D01*
X9205010Y-3528568D01*
X9220200Y-3529482D01*
X9235389Y-3528568D01*
X9250324Y-3525824D01*
X9264853Y-3521303D01*
X9271203Y-3518458D01*
X9275165Y-3517544D01*
X9279128Y-3518306D01*
X9282531Y-3520541D01*
X9897668Y-4135678D01*
X9899751Y-4138676D01*
X9900666Y-4142232D01*
X9900208Y-4145838D01*
X9898583Y-4149090D01*
X9895840Y-4151528D01*
X9887559Y-4156659D01*
X9876028Y-4165904D01*
X9865766Y-4176522D01*
X9856876Y-4188307D01*
X9849510Y-4201058D01*
X9843770Y-4214672D01*
X9839706Y-4228846D01*
X9837420Y-4243425D01*
X9837013Y-4258208D01*
X9838334Y-4272889D01*
X9841484Y-4287316D01*
X9846665Y-4301896D01*
X9847224Y-4305604D01*
X9846411Y-4309313D01*
X9844278Y-4312462D01*
X9575495Y-4581194D01*
X9572193Y-4583430D01*
X9568281Y-4584192D01*
X9111894Y-4584192D01*
X9108338Y-4583531D01*
X9105239Y-4581702D01*
X9103004Y-4578908D01*
X9101683Y-4576521D01*
X9094368Y-4566767D01*
X9085732Y-4558131D01*
X9075978Y-4550816D01*
X9065260Y-4544974D01*
X9053830Y-4540707D01*
X9041892Y-4538116D01*
X9029700Y-4537252D01*
X9017508Y-4538116D01*
X9005570Y-4540707D01*
X8994140Y-4544974D01*
X8983421Y-4550816D01*
X8973667Y-4558131D01*
X8965031Y-4566767D01*
X8957716Y-4576521D01*
X8951874Y-4587240D01*
X8947607Y-4598670D01*
X8945016Y-4610608D01*
X8944152Y-4622800D01*
X8945016Y-4634992D01*
X8947607Y-4646930D01*
X8951874Y-4658360D01*
X8957716Y-4669078D01*
X8965031Y-4678832D01*
X8973667Y-4687468D01*
X8983421Y-4694783D01*
X8994140Y-4700625D01*
X9005570Y-4704892D01*
X9017508Y-4707483D01*
G37*
G36*
X8739530Y-4700270D02*
G01*
X8739530Y-4659020D01*
X8698230Y-4659020D01*
X8703716Y-4669078D01*
X8711031Y-4678832D01*
X8719667Y-4687468D01*
X8729421Y-4694783D01*
G37*
G36*
X8811920Y-4700270D02*
G01*
X8821978Y-4694783D01*
X8831732Y-4687468D01*
X8840368Y-4678832D01*
X8847683Y-4669078D01*
X8853170Y-4659020D01*
X8811920Y-4659020D01*
G37*
G36*
X3552037Y-4602175D02*
G01*
X3552037Y-4554829D01*
X3504742Y-4554829D01*
X3505403Y-4556404D01*
X3512362Y-4568139D01*
X3520795Y-4578858D01*
X3530600Y-4588357D01*
X3541572Y-4596434D01*
G37*
G36*
X3640937Y-4602022D02*
G01*
X3645560Y-4599889D01*
X3657041Y-4592574D01*
X3667455Y-4583785D01*
X3676599Y-4573676D01*
X3684320Y-4562398D01*
X3688181Y-4554829D01*
X3640937Y-4554829D01*
G37*
G36*
X8698230Y-4586630D02*
G01*
X8739530Y-4586630D01*
X8739530Y-4545330D01*
X8729421Y-4550816D01*
X8719667Y-4558131D01*
X8711031Y-4566767D01*
X8703716Y-4576521D01*
G37*
G36*
X8811920Y-4586630D02*
G01*
X8853170Y-4586630D01*
X8847683Y-4576521D01*
X8840368Y-4566767D01*
X8831732Y-4558131D01*
X8821978Y-4550816D01*
X8811920Y-4545330D01*
G37*
G36*
X3504742Y-4465929D02*
G01*
X3552037Y-4465929D01*
X3552037Y-4439412D01*
X3552799Y-4435551D01*
X3554984Y-4432300D01*
X3558184Y-4430064D01*
X3561994Y-4429252D01*
X3566261Y-4430064D01*
X3579520Y-4433265D01*
X3593084Y-4434636D01*
X3606749Y-4434179D01*
X3620160Y-4431893D01*
X3627780Y-4429506D01*
X3631539Y-4429099D01*
X3635197Y-4430064D01*
X3638245Y-4432300D01*
X3640277Y-4435500D01*
X3640937Y-4439208D01*
X3640937Y-4465929D01*
X3688181Y-4465929D01*
X3684320Y-4458360D01*
X3676599Y-4447133D01*
X3667455Y-4437024D01*
X3658311Y-4429252D01*
X3655618Y-4425746D01*
X3654704Y-4421479D01*
X3655618Y-4417212D01*
X3658311Y-4413707D01*
X3667455Y-4405985D01*
X3676599Y-4395876D01*
X3684320Y-4384598D01*
X3690467Y-4372457D01*
X3694937Y-4359554D01*
X3697681Y-4346194D01*
X3698595Y-4332579D01*
X3697681Y-4318965D01*
X3694937Y-4305604D01*
X3692702Y-4299102D01*
X3692144Y-4295343D01*
X3693007Y-4291685D01*
X3695090Y-4288586D01*
X3903522Y-4080205D01*
X3906824Y-4077970D01*
X3910685Y-4077208D01*
X4032453Y-4077208D01*
X4036517Y-4078071D01*
X4039920Y-4080459D01*
X4049115Y-4098544D01*
X4057243Y-4110837D01*
X4066844Y-4122064D01*
X4077766Y-4131970D01*
X4089806Y-4140504D01*
X4102811Y-4147515D01*
X4116578Y-4152849D01*
X4130852Y-4156405D01*
X4145534Y-4158234D01*
X4160265Y-4158234D01*
X4174947Y-4156405D01*
X4189222Y-4152849D01*
X4202988Y-4147515D01*
X4215993Y-4140504D01*
X4228033Y-4131970D01*
X4238955Y-4122064D01*
X4248556Y-4110837D01*
X4256684Y-4098544D01*
X4263288Y-4085336D01*
X4268216Y-4071416D01*
X4271365Y-4056989D01*
X4272686Y-4042308D01*
X4272280Y-4027525D01*
X4271924Y-4025442D01*
X4272178Y-4021074D01*
X4274261Y-4017264D01*
X4277715Y-4014622D01*
X4281982Y-4013708D01*
X5162905Y-4013708D01*
X5166461Y-4014368D01*
X5169560Y-4016197D01*
X5171846Y-4018991D01*
X5173116Y-4021378D01*
X5180431Y-4031132D01*
X5189067Y-4039768D01*
X5198821Y-4047083D01*
X5209540Y-4052925D01*
X5220970Y-4057192D01*
X5232908Y-4059783D01*
X5245100Y-4060647D01*
X5257292Y-4059783D01*
X5269230Y-4057192D01*
X5280660Y-4052925D01*
X5291378Y-4047083D01*
X5301132Y-4039768D01*
X5309768Y-4031132D01*
X5317083Y-4021378D01*
X5322925Y-4010660D01*
X5327192Y-3999229D01*
X5329783Y-3987292D01*
X5330647Y-3975100D01*
X5329783Y-3962908D01*
X5327192Y-3950970D01*
X5322925Y-3939540D01*
X5317083Y-3928821D01*
X5309768Y-3919067D01*
X5301132Y-3910431D01*
X5291378Y-3903116D01*
X5280660Y-3897274D01*
X5269230Y-3893007D01*
X5257292Y-3890416D01*
X5245100Y-3889552D01*
X5232908Y-3890416D01*
X5220970Y-3893007D01*
X5209540Y-3897274D01*
X5198821Y-3903116D01*
X5189067Y-3910431D01*
X5180431Y-3919067D01*
X5173116Y-3928821D01*
X5171846Y-3931208D01*
X5169560Y-3934002D01*
X5166461Y-3935831D01*
X5162905Y-3936492D01*
X4218127Y-3936492D01*
X4215384Y-3936085D01*
X4212793Y-3934968D01*
X4209592Y-3932986D01*
X4196181Y-3926840D01*
X4182160Y-3922369D01*
X4167632Y-3919626D01*
X4152900Y-3918712D01*
X4138168Y-3919626D01*
X4123639Y-3922369D01*
X4109618Y-3926840D01*
X4096207Y-3932986D01*
X4083659Y-3940759D01*
X4072128Y-3950004D01*
X4061866Y-3960622D01*
X4052976Y-3972407D01*
X4045610Y-3985158D01*
X4041952Y-3993794D01*
X4039717Y-3997045D01*
X4036466Y-3999229D01*
X4032605Y-3999992D01*
X3890975Y-3999992D01*
X3882948Y-4000804D01*
X3875735Y-4002989D01*
X3869080Y-4006545D01*
X3862832Y-4011676D01*
X3640582Y-4233926D01*
X3637534Y-4236008D01*
X3634028Y-4236872D01*
X3630371Y-4236466D01*
X3620160Y-4233265D01*
X3606749Y-4231030D01*
X3593084Y-4230573D01*
X3579520Y-4231944D01*
X3566261Y-4235094D01*
X3553510Y-4239971D01*
X3541572Y-4246524D01*
X3530600Y-4254652D01*
X3520795Y-4264101D01*
X3512362Y-4274820D01*
X3505403Y-4286554D01*
X3500069Y-4299102D01*
X3496462Y-4312259D01*
X3494633Y-4325772D01*
X3494633Y-4339386D01*
X3496462Y-4352899D01*
X3500069Y-4366056D01*
X3505403Y-4378604D01*
X3512362Y-4390339D01*
X3520795Y-4401058D01*
X3530600Y-4410557D01*
X3534359Y-4413300D01*
X3536899Y-4416094D01*
X3538321Y-4419600D01*
X3538321Y-4423359D01*
X3536899Y-4426915D01*
X3534359Y-4429658D01*
X3530600Y-4432452D01*
X3520795Y-4441901D01*
X3512362Y-4452620D01*
X3505403Y-4464354D01*
G37*
G36*
X8051038Y-3753865D02*
G01*
X8051038Y-3710736D01*
X8007959Y-3710736D01*
X8011210Y-3717340D01*
X8018272Y-3727856D01*
X8026755Y-3737254D01*
X8036509Y-3745433D01*
X8047228Y-3752138D01*
G37*
G36*
X8128762Y-3753865D02*
G01*
X8132572Y-3752138D01*
X8143341Y-3745433D01*
X8153044Y-3737254D01*
X8161528Y-3727856D01*
X8168589Y-3717340D01*
X8171840Y-3710736D01*
X8128762Y-3710736D01*
G37*
G36*
X8007807Y-3633063D02*
G01*
X8051038Y-3633063D01*
X8051038Y-3589883D01*
X8041741Y-3594811D01*
X8031480Y-3602278D01*
X8022386Y-3611067D01*
X8014563Y-3621074D01*
X8008213Y-3632047D01*
G37*
G36*
X8128762Y-3633063D02*
G01*
X8171992Y-3633063D01*
X8171586Y-3632047D01*
X8165236Y-3621074D01*
X8157464Y-3611067D01*
X8148320Y-3602278D01*
X8138058Y-3594811D01*
X8128762Y-3589883D01*
G37*
G36*
X5065420Y-3354070D02*
G01*
X5075478Y-3348583D01*
X5085232Y-3341268D01*
X5093868Y-3332632D01*
X5101183Y-3322878D01*
X5106670Y-3312820D01*
X5065420Y-3312820D01*
G37*
G36*
X4993030Y-3354070D02*
G01*
X4993030Y-3312820D01*
X4951730Y-3312820D01*
X4957216Y-3322878D01*
X4964531Y-3332632D01*
X4973167Y-3341268D01*
X4982921Y-3348583D01*
G37*
G36*
X8051038Y-3293516D02*
G01*
X8051038Y-3250336D01*
X8007807Y-3250336D01*
X8008213Y-3251352D01*
X8014563Y-3262325D01*
X8022336Y-3272332D01*
X8031480Y-3281121D01*
X8041741Y-3288588D01*
G37*
G36*
X8128762Y-3293516D02*
G01*
X8138058Y-3288588D01*
X8148320Y-3281121D01*
X8157413Y-3272332D01*
X8165236Y-3262325D01*
X8171586Y-3251352D01*
X8171992Y-3250336D01*
X8128762Y-3250336D01*
G37*
G36*
X4951730Y-3240430D02*
G01*
X4993030Y-3240430D01*
X4993030Y-3199130D01*
X4982921Y-3204616D01*
X4973167Y-3211931D01*
X4964531Y-3220567D01*
X4957216Y-3230321D01*
G37*
G36*
X5065420Y-3240430D02*
G01*
X5106670Y-3240430D01*
X5101183Y-3230321D01*
X5093868Y-3220567D01*
X5085232Y-3211931D01*
X5075478Y-3204616D01*
X5065420Y-3199130D01*
G37*
G36*
X8007959Y-3172663D02*
G01*
X8051038Y-3172663D01*
X8051038Y-3129534D01*
X8047228Y-3131261D01*
X8036458Y-3137966D01*
X8026755Y-3146145D01*
X8018272Y-3155543D01*
X8011210Y-3166059D01*
G37*
G36*
X8128762Y-3172663D02*
G01*
X8171840Y-3172663D01*
X8168589Y-3166059D01*
X8161528Y-3155543D01*
X8153044Y-3146145D01*
X8143290Y-3137966D01*
X8132572Y-3131261D01*
X8128762Y-3129534D01*
G37*

%LPD*%
G36*
X6164884Y-8347202D02*
G01*
X6160973Y-8346389D01*
X6157671Y-8344153D01*
X6155436Y-8340801D01*
X6154724Y-8336889D01*
X6155588Y-8332978D01*
X6157874Y-8329675D01*
X6161227Y-8327542D01*
X6166256Y-8325612D01*
X6178092Y-8319109D01*
X6188913Y-8311134D01*
X6198616Y-8301736D01*
X6206998Y-8291169D01*
X6213856Y-8279587D01*
X6219088Y-8267192D01*
X6222644Y-8254187D01*
X6224473Y-8240826D01*
X6224473Y-8227364D01*
X6222644Y-8214004D01*
X6219088Y-8200999D01*
X6213856Y-8188604D01*
X6209893Y-8181949D01*
X6208572Y-8177936D01*
X6208979Y-8173669D01*
X6211062Y-8170011D01*
X6214516Y-8167471D01*
X6218631Y-8166608D01*
X7245705Y-8166608D01*
X7249261Y-8167268D01*
X7252360Y-8169097D01*
X7254646Y-8171891D01*
X7255916Y-8174278D01*
X7263231Y-8184032D01*
X7271867Y-8192668D01*
X7281621Y-8199983D01*
X7292340Y-8205825D01*
X7303770Y-8210092D01*
X7315708Y-8212683D01*
X7327900Y-8213547D01*
X7340092Y-8212683D01*
X7352030Y-8210092D01*
X7363459Y-8205825D01*
X7374178Y-8199983D01*
X7383932Y-8192668D01*
X7392568Y-8184032D01*
X7399883Y-8174278D01*
X7405725Y-8163559D01*
X7409992Y-8152130D01*
X7412583Y-8140192D01*
X7413447Y-8128000D01*
X7412583Y-8115808D01*
X7409992Y-8103870D01*
X7405725Y-8092440D01*
X7399883Y-8081721D01*
X7392568Y-8071967D01*
X7383932Y-8063331D01*
X7374178Y-8056016D01*
X7363459Y-8050174D01*
X7352030Y-8045907D01*
X7340092Y-8043316D01*
X7327900Y-8042452D01*
X7315708Y-8043316D01*
X7303770Y-8045907D01*
X7292340Y-8050174D01*
X7281621Y-8056016D01*
X7271867Y-8063331D01*
X7263231Y-8071967D01*
X7255916Y-8081721D01*
X7254646Y-8084108D01*
X7252360Y-8086902D01*
X7249261Y-8088731D01*
X7245705Y-8089392D01*
X6214516Y-8089392D01*
X6210604Y-8088630D01*
X6207353Y-8086394D01*
X6205118Y-8083143D01*
X6204356Y-8079231D01*
X6204356Y-7654848D01*
X6205067Y-7651089D01*
X6207150Y-7647889D01*
X6210249Y-7645653D01*
X6214008Y-7644739D01*
X6217818Y-7645247D01*
X6221120Y-7647178D01*
X6226962Y-7652156D01*
X6239256Y-7660284D01*
X6252464Y-7666888D01*
X6266383Y-7671816D01*
X6280810Y-7674965D01*
X6295491Y-7676337D01*
X6310274Y-7675880D01*
X6324854Y-7673594D01*
X6339027Y-7669530D01*
X6352641Y-7663789D01*
X6365392Y-7656423D01*
X6377178Y-7647533D01*
X6387795Y-7637272D01*
X6397040Y-7625740D01*
X6404813Y-7613192D01*
X6410401Y-7601000D01*
X6412636Y-7597902D01*
X6415887Y-7595819D01*
X6419646Y-7595108D01*
X7917281Y-7595108D01*
X7921193Y-7595870D01*
X7924495Y-7598105D01*
X8213394Y-7887004D01*
X8215630Y-7890306D01*
X8216392Y-7894218D01*
X8216392Y-8020405D01*
X8215731Y-8023961D01*
X8213902Y-8027060D01*
X8211108Y-8029346D01*
X8208721Y-8030616D01*
X8198967Y-8037931D01*
X8190331Y-8046567D01*
X8183016Y-8056321D01*
X8177174Y-8067040D01*
X8172907Y-8078470D01*
X8170316Y-8090408D01*
X8169452Y-8102600D01*
X8170316Y-8114792D01*
X8172907Y-8126730D01*
X8177174Y-8138159D01*
X8183016Y-8148878D01*
X8190331Y-8158632D01*
X8198967Y-8167268D01*
X8208721Y-8174583D01*
X8219440Y-8180425D01*
X8230870Y-8184692D01*
X8242808Y-8187283D01*
X8255000Y-8188147D01*
X8267192Y-8187283D01*
X8279130Y-8184692D01*
X8290559Y-8180425D01*
X8301278Y-8174583D01*
X8311032Y-8167268D01*
X8319668Y-8158632D01*
X8326983Y-8148878D01*
X8332825Y-8138159D01*
X8337092Y-8126730D01*
X8339683Y-8114792D01*
X8340547Y-8102600D01*
X8339683Y-8090408D01*
X8337092Y-8078470D01*
X8332825Y-8067040D01*
X8326983Y-8056321D01*
X8319668Y-8046567D01*
X8311032Y-8037931D01*
X8301278Y-8030616D01*
X8298891Y-8029346D01*
X8296097Y-8027060D01*
X8294268Y-8023961D01*
X8293608Y-8020405D01*
X8293608Y-7874508D01*
X8292795Y-7866481D01*
X8290610Y-7859268D01*
X8287054Y-7852562D01*
X8281924Y-7846364D01*
X8084667Y-7649057D01*
X8082280Y-7645298D01*
X8081721Y-7640878D01*
X8083143Y-7636662D01*
X8086191Y-7633411D01*
X8090357Y-7631836D01*
X8102853Y-7632953D01*
X8299653Y-7632953D01*
X8307679Y-7632141D01*
X8314893Y-7629956D01*
X8321598Y-7626400D01*
X8327796Y-7621270D01*
X8376716Y-7572400D01*
X8381847Y-7566152D01*
X8385403Y-7559497D01*
X8387588Y-7552283D01*
X8388400Y-7544257D01*
X8388400Y-7048550D01*
X8387588Y-7040524D01*
X8385403Y-7033310D01*
X8381847Y-7026605D01*
X8376716Y-7020407D01*
X8238185Y-6881875D01*
X8231936Y-6876745D01*
X8225281Y-6873189D01*
X8214004Y-6869988D01*
X8211210Y-6868058D01*
X8209178Y-6865264D01*
X8208213Y-6861962D01*
X8207806Y-6858050D01*
X8205876Y-6852564D01*
X8202828Y-6847687D01*
X8198713Y-6843572D01*
X8195005Y-6841286D01*
X8191957Y-6838238D01*
X8190382Y-6834225D01*
X8190636Y-6829907D01*
X8192719Y-6826097D01*
X8194954Y-6823456D01*
X8200745Y-6813956D01*
X8205012Y-6803694D01*
X8207603Y-6792874D01*
X8208467Y-6781800D01*
X8207603Y-6770725D01*
X8205012Y-6759905D01*
X8200745Y-6749643D01*
X8194954Y-6740144D01*
X8187740Y-6731660D01*
X8181086Y-6726021D01*
X8178444Y-6722567D01*
X8177530Y-6718300D01*
X8178444Y-6714032D01*
X8181086Y-6710578D01*
X8187740Y-6704939D01*
X8194497Y-6696964D01*
X8198002Y-6694322D01*
X8202218Y-6693408D01*
X8228787Y-6693408D01*
X8236813Y-6692595D01*
X8244027Y-6690410D01*
X8250681Y-6686854D01*
X8256930Y-6681724D01*
X8664346Y-6274358D01*
X8667648Y-6272123D01*
X8671509Y-6271361D01*
X8977528Y-6271361D01*
X8985554Y-6270548D01*
X8992768Y-6268364D01*
X8999474Y-6264808D01*
X9005671Y-6259677D01*
X9037218Y-6228181D01*
X9039961Y-6226200D01*
X9043212Y-6225235D01*
X9046565Y-6225438D01*
X9055862Y-6227419D01*
X9068054Y-6228283D01*
X9080246Y-6227419D01*
X9092184Y-6224828D01*
X9103614Y-6220561D01*
X9114332Y-6214719D01*
X9116314Y-6213246D01*
X9120378Y-6211417D01*
X9124848Y-6211519D01*
X9128861Y-6213500D01*
X9131604Y-6217005D01*
X9132570Y-6221374D01*
X9132570Y-6606794D01*
X9131808Y-6610654D01*
X9129572Y-6613956D01*
X9126321Y-6616141D01*
X9122410Y-6616953D01*
X8747201Y-6616953D01*
X8739174Y-6617716D01*
X8731961Y-6619900D01*
X8725255Y-6623456D01*
X8719058Y-6628587D01*
X8623198Y-6724446D01*
X8620201Y-6726478D01*
X8616746Y-6727393D01*
X8613140Y-6726986D01*
X8609888Y-6725412D01*
X8606078Y-6722516D01*
X8596020Y-6717030D01*
X8596020Y-6758330D01*
X8599068Y-6758330D01*
X8602980Y-6759092D01*
X8606231Y-6761276D01*
X8608466Y-6764578D01*
X8609228Y-6768490D01*
X8609228Y-6820560D01*
X8608466Y-6824421D01*
X8606231Y-6827723D01*
X8602980Y-6829907D01*
X8599068Y-6830720D01*
X8596020Y-6830720D01*
X8596020Y-6872173D01*
X8599373Y-6871614D01*
X8603132Y-6872478D01*
X8606332Y-6874713D01*
X8608466Y-6877964D01*
X8609228Y-6881774D01*
X8609228Y-7869326D01*
X8608466Y-7873238D01*
X8606231Y-7876540D01*
X8597188Y-7885582D01*
X8592058Y-7891830D01*
X8588502Y-7898485D01*
X8586317Y-7905699D01*
X8585555Y-7913725D01*
X8585555Y-7987284D01*
X8586317Y-7995310D01*
X8588502Y-8002524D01*
X8592058Y-8009229D01*
X8597188Y-8015427D01*
X8634679Y-8052917D01*
X8636863Y-8056219D01*
X8637625Y-8060080D01*
X8636863Y-8063992D01*
X8635187Y-8068005D01*
X8632596Y-8078825D01*
X8631732Y-8089900D01*
X8632596Y-8100974D01*
X8635187Y-8111794D01*
X8639454Y-8122056D01*
X8645245Y-8131556D01*
X8647480Y-8134197D01*
X8649563Y-8138007D01*
X8649817Y-8142325D01*
X8648242Y-8146338D01*
X8645194Y-8149386D01*
X8641486Y-8151672D01*
X8637371Y-8155787D01*
X8634323Y-8160664D01*
X8632393Y-8166150D01*
X8631682Y-8172450D01*
X8631682Y-8188045D01*
X8691270Y-8188045D01*
X8691270Y-8170875D01*
X8692083Y-8166811D01*
X8694521Y-8163407D01*
X8698077Y-8161274D01*
X8703005Y-8160816D01*
X8772194Y-8160816D01*
X8777122Y-8161274D01*
X8780678Y-8163407D01*
X8783116Y-8166811D01*
X8783929Y-8170875D01*
X8783929Y-8188045D01*
X8843518Y-8188045D01*
X8843518Y-8172450D01*
X8842806Y-8166150D01*
X8840876Y-8160664D01*
X8837828Y-8155787D01*
X8833713Y-8151672D01*
X8830005Y-8149386D01*
X8826957Y-8146338D01*
X8825382Y-8142325D01*
X8825636Y-8138007D01*
X8827719Y-8134197D01*
X8829954Y-8131556D01*
X8835745Y-8122056D01*
X8840012Y-8111794D01*
X8842603Y-8100974D01*
X8843467Y-8089900D01*
X8842603Y-8078825D01*
X8840012Y-8068005D01*
X8835745Y-8057743D01*
X8829954Y-8048244D01*
X8822740Y-8039760D01*
X8816086Y-8034121D01*
X8813444Y-8030667D01*
X8812530Y-8026400D01*
X8813444Y-8022132D01*
X8816086Y-8018678D01*
X8822740Y-8013039D01*
X8829954Y-8004556D01*
X8835745Y-7995056D01*
X8840012Y-7984794D01*
X8842603Y-7973974D01*
X8843467Y-7962900D01*
X8842603Y-7951825D01*
X8840012Y-7941005D01*
X8835745Y-7930743D01*
X8829954Y-7921244D01*
X8822740Y-7912760D01*
X8814257Y-7905546D01*
X8804757Y-7899755D01*
X8794496Y-7895488D01*
X8783675Y-7892897D01*
X8772194Y-7891983D01*
X8766403Y-7891983D01*
X8762492Y-7891221D01*
X8759190Y-7889036D01*
X8757005Y-7885734D01*
X8756243Y-7881823D01*
X8756243Y-7380833D01*
X8757005Y-7376871D01*
X8759240Y-7373569D01*
X8762593Y-7371384D01*
X8766505Y-7370673D01*
X8770416Y-7371486D01*
X8773718Y-7373772D01*
X8775852Y-7377125D01*
X8781084Y-7390688D01*
X8788095Y-7403693D01*
X8796629Y-7415733D01*
X8806535Y-7426655D01*
X8817762Y-7436256D01*
X8830056Y-7444384D01*
X8848140Y-7453579D01*
X8850528Y-7456982D01*
X8851392Y-7461046D01*
X8851392Y-7517892D01*
X8852204Y-7525918D01*
X8854389Y-7533131D01*
X8857945Y-7539837D01*
X8863076Y-7546035D01*
X9120479Y-7803489D01*
X9122765Y-7806893D01*
X9123476Y-7810957D01*
X9122562Y-7814919D01*
X9121140Y-7818018D01*
X9116669Y-7832039D01*
X9113926Y-7846568D01*
X9113012Y-7861300D01*
X9113926Y-7876031D01*
X9116669Y-7890560D01*
X9121140Y-7904581D01*
X9127286Y-7917992D01*
X9131655Y-7925104D01*
X9133128Y-7929321D01*
X9132620Y-7933791D01*
X9130233Y-7937601D01*
X8825077Y-8242757D01*
X8821775Y-8244992D01*
X8817864Y-8245754D01*
X8783929Y-8245754D01*
X8783929Y-8279688D01*
X8783167Y-8283549D01*
X8780983Y-8286851D01*
X8723630Y-8344204D01*
X8720328Y-8346389D01*
X8716467Y-8347202D01*
G37*

%LPC*%
G36*
X8658148Y-8287816D02*
G01*
X8691270Y-8287816D01*
X8691270Y-8245754D01*
X8631682Y-8245754D01*
X8631682Y-8261350D01*
X8632393Y-8267649D01*
X8634323Y-8273135D01*
X8637371Y-8278012D01*
X8641486Y-8282127D01*
X8646363Y-8285175D01*
X8651849Y-8287105D01*
G37*
G36*
X7618120Y-8205470D02*
G01*
X7628178Y-8199983D01*
X7637932Y-8192668D01*
X7646568Y-8184032D01*
X7653883Y-8174278D01*
X7659370Y-8164220D01*
X7618120Y-8164220D01*
G37*
G36*
X7545730Y-8205470D02*
G01*
X7545730Y-8164220D01*
X7504430Y-8164220D01*
X7509916Y-8174278D01*
X7517231Y-8184032D01*
X7525867Y-8192668D01*
X7535621Y-8199983D01*
G37*
G36*
X7964830Y-8180070D02*
G01*
X7964830Y-8138820D01*
X7923530Y-8138820D01*
X7929016Y-8148878D01*
X7936331Y-8158632D01*
X7944967Y-8167268D01*
X7954721Y-8174583D01*
G37*
G36*
X8037220Y-8180070D02*
G01*
X8047278Y-8174583D01*
X8057032Y-8167268D01*
X8065668Y-8158632D01*
X8072983Y-8148878D01*
X8078470Y-8138820D01*
X8037220Y-8138820D01*
G37*
G36*
X7618120Y-8091830D02*
G01*
X7659370Y-8091830D01*
X7653883Y-8081721D01*
X7646568Y-8071967D01*
X7637932Y-8063331D01*
X7628178Y-8056016D01*
X7618120Y-8050530D01*
G37*
G36*
X7504430Y-8091830D02*
G01*
X7545730Y-8091830D01*
X7545730Y-8050530D01*
X7535621Y-8056016D01*
X7525867Y-8063331D01*
X7517231Y-8071967D01*
X7509916Y-8081721D01*
G37*
G36*
X8037220Y-8066430D02*
G01*
X8078470Y-8066430D01*
X8072983Y-8056321D01*
X8065668Y-8046567D01*
X8057032Y-8037931D01*
X8047278Y-8030616D01*
X8037220Y-8025130D01*
G37*
G36*
X7923530Y-8066430D02*
G01*
X7964830Y-8066430D01*
X7964830Y-8025130D01*
X7954721Y-8030616D01*
X7944967Y-8037931D01*
X7936331Y-8046567D01*
X7929016Y-8056321D01*
G37*
G36*
X6467652Y-7934807D02*
G01*
X6478066Y-7929118D01*
X6488938Y-7921091D01*
X6498590Y-7911744D01*
X6506972Y-7901178D01*
X6513830Y-7889595D01*
X6514541Y-7887919D01*
X6467652Y-7887919D01*
G37*
G36*
X6379921Y-7934706D02*
G01*
X6379921Y-7887919D01*
X6333185Y-7887919D01*
X6336995Y-7895488D01*
X6344615Y-7906613D01*
X6353657Y-7916570D01*
X6363970Y-7925308D01*
X6375298Y-7932521D01*
G37*
G36*
X6333185Y-7800238D02*
G01*
X6379921Y-7800238D01*
X6379921Y-7753451D01*
X6375298Y-7755585D01*
X6363970Y-7762849D01*
X6353657Y-7771536D01*
X6344615Y-7781544D01*
X6336995Y-7792669D01*
G37*
G36*
X6467652Y-7800238D02*
G01*
X6514541Y-7800238D01*
X6513830Y-7798562D01*
X6506972Y-7786979D01*
X6498590Y-7776413D01*
X6488938Y-7767015D01*
X6478066Y-7759039D01*
X6467652Y-7753299D01*
G37*
G36*
X8523630Y-6871970D02*
G01*
X8523630Y-6830720D01*
X8482330Y-6830720D01*
X8487816Y-6840778D01*
X8495131Y-6850532D01*
X8503767Y-6859168D01*
X8513521Y-6866483D01*
G37*
G36*
X8482330Y-6758330D02*
G01*
X8523630Y-6758330D01*
X8523630Y-6717030D01*
X8513521Y-6722516D01*
X8503767Y-6729831D01*
X8495131Y-6738467D01*
X8487816Y-6748221D01*
G37*

%LPD*%
D10*
X4275912Y-5799886D02*
G01*
X4361179Y-5714619D01*
X4361179Y-5385155D01*
X4275912Y-5299887D01*
X6311900Y-4775200D02*
G01*
X6311900Y-4622800D01*
X6921500Y-4013200D01*
X6311900Y-4775200D02*
G01*
X6330950Y-4775200D01*
X6423583Y-4867833D01*
X6423583Y-5094909D01*
X6416192Y-5102301D01*
X6217691Y-5102301D01*
X5965952Y-4850561D01*
X4897424Y-4850561D01*
X4275912Y-5299887D02*
G01*
X4637862Y-5299887D01*
X4897424Y-5040325D01*
X4897424Y-4850561D01*
X4897424Y-4850561D02*
G01*
X4897424Y-4618024D01*
X4775200Y-4495800D01*
X4762500Y-4991100D02*
G01*
X4334713Y-4991100D01*
X4275912Y-5049901D01*
X3277488Y-6997496D02*
G01*
X3277488Y-7861503D01*
X9220200Y-3403600D02*
G01*
X9956800Y-4140200D01*
X9956800Y-4254500D01*
X9029700Y-4622800D02*
G01*
X9588500Y-4622800D01*
X9956800Y-4254500D01*
X10045700Y-6616700D02*
G01*
X10045700Y-7226300D01*
X10160000Y-7340600D01*
X8737600Y-7962900D02*
G01*
X8717610Y-7942910D01*
X8717610Y-6755511D01*
X8775065Y-6698056D01*
X8858707Y-6698056D01*
X10155758Y-7995107D01*
X10289311Y-7995107D01*
X10381615Y-7902803D01*
X10381615Y-7562214D01*
X10160000Y-7340600D01*
X8737600Y-8089900D02*
G01*
X8726246Y-8089900D01*
X8624138Y-7987792D01*
X8624138Y-7913243D01*
X8647836Y-7889544D01*
X8647836Y-6754393D01*
X8746693Y-6655536D01*
X9171177Y-6655536D01*
X10248900Y-7861300D02*
G01*
X9171177Y-6783578D01*
X9171177Y-6655536D01*
X9171177Y-6655536D02*
G01*
X9171177Y-6106388D01*
X9104909Y-6040120D01*
X8916670Y-6040120D01*
X8814054Y-6142736D01*
X6299200Y-7556500D02*
G01*
X7937500Y-7556500D01*
X7937500Y-7556500D02*
G01*
X8001000Y-7493000D01*
X8255000Y-8102600D02*
G01*
X8255000Y-7874000D01*
X7937500Y-7556500D01*
X8210524Y-6908800D02*
G01*
X8349767Y-7048042D01*
X8349767Y-7544739D01*
X8300161Y-7594345D01*
X8102345Y-7594345D01*
X8001000Y-7493000D01*
X8102600Y-6908800D02*
G01*
X8210524Y-6908800D01*
X8991600Y-5029200D02*
G01*
X8902700Y-5029200D01*
X8343900Y-5588000D01*
X8651316Y-6232753D02*
G01*
X8978036Y-6232753D01*
X9068054Y-6142736D01*
X8102600Y-6654800D02*
G01*
X8229269Y-6654800D01*
X8651316Y-6232753D01*
X8651316Y-6232753D02*
G01*
X8651316Y-5895416D01*
X8343900Y-5588000D01*
X5803900Y-6819900D02*
G01*
X6451600Y-6819900D01*
X7086600Y-7454900D01*
X7429500Y-5956300D02*
G01*
X7429500Y-6133287D01*
X8060943Y-6764731D01*
X8060943Y-6764731D02*
G01*
X8078012Y-6781800D01*
X8102600Y-6781800D01*
X8060943Y-6764731D02*
G01*
X7985886Y-6839788D01*
X7985886Y-7401991D01*
X8255000Y-7493000D02*
G01*
X8163991Y-7401991D01*
X7985886Y-7401991D01*
X7985886Y-7401991D02*
G01*
X7139508Y-7401991D01*
X7086600Y-7454900D01*
X6165748Y-8128000D02*
G01*
X7327900Y-8128000D01*
X6123813Y-8234095D02*
G01*
X6165748Y-8192160D01*
X6165748Y-8128000D01*
X6165748Y-8128000D02*
G01*
X6165748Y-7506817D01*
X6250940Y-7421626D01*
X6799325Y-7421626D01*
X6832600Y-7454900D01*
X4787900Y-6819900D02*
G01*
X4660900Y-6819900D01*
X4533900Y-6692900D01*
X4894579Y-6197600D02*
G01*
X4775200Y-6197600D01*
X4533900Y-6438900D01*
X5765800Y-5448300D02*
G01*
X5778500Y-5435600D01*
X5778500Y-4991100D01*
X5765800Y-5448300D02*
G01*
X5778500Y-5461000D01*
X6235700Y-5461000D01*
X4152900Y-4038600D02*
G01*
X3890492Y-4038600D01*
X3596513Y-4332579D01*
X4152900Y-4038600D02*
G01*
X4216400Y-3975100D01*
X5245100Y-3975100D01*
X7429500Y-4013200D02*
G01*
X7948599Y-4013200D01*
X8089900Y-3871899D01*
X7429500Y-4940300D02*
G01*
X6870700Y-4940300D01*
X6858000Y-4953000D01*
X7721600Y-5029200D02*
G01*
X8089900Y-5397500D01*
X8089900Y-5588000D01*
X7429500Y-4940300D02*
G01*
X7632700Y-4940300D01*
X7721600Y-5029200D01*
X7429500Y-4940300D02*
G01*
X7429500Y-4013200D01*
X7645400Y-6972300D02*
G01*
X7294676Y-6621576D01*
X7294676Y-5906185D01*
X7612862Y-5588000D01*
X8089900Y-5588000D01*
X3596513Y-4510379D02*
G01*
X3650919Y-4564786D01*
X3650919Y-5424906D01*
X3775913Y-5549900D01*
X9817100Y-5791200D02*
G01*
X9817100Y-5664200D01*
X8775700Y-4622800D01*
X7581900Y-8128000D02*
G01*
X7298004Y-7844104D01*
X6423812Y-7844104D01*
X8775700Y-4622800D02*
G01*
X8775700Y-4357700D01*
X8089900Y-3671900D01*
X8089900Y-3671900D02*
G01*
X8024799Y-3606800D01*
X8024799Y-3276600D01*
X8024799Y-3276600D02*
G01*
X8089900Y-3211499D01*
X8024799Y-3276600D02*
G01*
X5029200Y-3276600D01*
X4241800Y-7427899D02*
G01*
X4711700Y-7427899D01*
X4711700Y-7416800D01*
X6311900Y-5029200D02*
G01*
X6203975Y-5029200D01*
X4941163Y-3545941D02*
G01*
X4231436Y-3545941D01*
X3481476Y-4295902D01*
X3481476Y-4395343D01*
X3596513Y-4510379D01*
X6203975Y-5029200D02*
G01*
X5902985Y-4728210D01*
X5843727Y-4728210D01*
X5372125Y-4256608D01*
X5372125Y-3976903D01*
X4941163Y-3545941D01*
X4941163Y-3545941D02*
G01*
X4941163Y-3364636D01*
X5029200Y-3276600D01*
X5286959Y-6095263D02*
G01*
X4426000Y-6095263D01*
X4369688Y-6151575D01*
X4189222Y-6151575D01*
X3775913Y-5738266D01*
X3775913Y-5549900D01*
X5392420Y-5948679D02*
G01*
X5286959Y-6054140D01*
X5286959Y-6095263D01*
X5286959Y-6095263D02*
G01*
X5286959Y-6493459D01*
X5461000Y-6667500D01*
X4927600Y-7200900D02*
G01*
X5283200Y-7556500D01*
X4711700Y-7416800D02*
G01*
X4927600Y-7200900D01*
X4927600Y-7200900D02*
G01*
X5461000Y-6667500D01*
X8001000Y-8102600D02*
G01*
X7975600Y-8128000D01*
X7581900Y-8128000D01*
X7581900Y-8128000D02*
G01*
X7367777Y-8342121D01*
X6068822Y-8342121D01*
X5283200Y-7556500D01*
X5461000Y-6667500D02*
G01*
X6515100Y-6667500D01*
X6515100Y-6667500D02*
G01*
X7086600Y-6667500D01*
X7645400Y-7226300D01*
X8559800Y-8202599D02*
G01*
X8100999Y-8202599D01*
X8001000Y-8102600D01*
X8559800Y-6794500D02*
G01*
X8559800Y-8202599D01*
X8559800Y-8202599D02*
G01*
X8574100Y-8216900D01*
X8737600Y-8216900D01*
X6921500Y-2997200D02*
G01*
X7429500Y-2997200D01*
X7429500Y-2997200D02*
G01*
X8075599Y-2997200D01*
X8089900Y-3011500D01*
X8890000Y-7340600D02*
G01*
X8813800Y-7264400D01*
X8813800Y-6794500D01*
X5029200Y-3022600D02*
G01*
X6896100Y-3022600D01*
X6921500Y-2997200D01*
X4152900Y-3022600D02*
G01*
X5029200Y-3022600D01*
X4152900Y-3022600D02*
G01*
X3430701Y-3744798D01*
X3430701Y-6416802D01*
X4241800Y-7227900D01*
X3886200Y-8064500D02*
G01*
X3886200Y-7583500D01*
X4241800Y-7227900D01*
X9232900Y-7861300D02*
G01*
X8890000Y-7518400D01*
X8890000Y-7340600D01*
X9232900Y-7861300D02*
G01*
X9232900Y-7889544D01*
X8736660Y-8385784D01*
X4207484Y-8385784D01*
X3886200Y-8064500D01*
X4902200Y-8064500D02*
G01*
X4902200Y-7480300D01*
X4965700Y-7416800D01*
X4749800Y-5448300D02*
G01*
X4749800Y-5576011D01*
X4275912Y-6049898D01*
X6515100Y-5905500D02*
G01*
X6667500Y-5905500D01*
X6858000Y-5715000D01*
X10071100Y-5791200D02*
G01*
X10071100Y-5384800D01*
X9956800Y-5270500D01*
X10045700Y-6362700D02*
G01*
X10071100Y-6337300D01*
X10071100Y-5791200D01*
X5392420Y-6446520D02*
G01*
X5504179Y-6446520D01*
X6235700Y-5715000D01*
X5791200Y-4495800D02*
G01*
X5791200Y-4381500D01*
X5791200Y-4381500D02*
G01*
X5791200Y-4267200D01*
X5499100Y-3975100D01*
X5791200Y-4381500D02*
G01*
X5791200Y-4407433D01*
X6285966Y-4902200D01*
X6311900Y-4902200D01*
D11*
G01*
X9956800Y-5270500D03*
G01*
X9956800Y-4254500D03*
D12*
G01*
X4241805Y-7227890D03*
G01*
X4241805Y-7427889D03*
G01*
X8089905Y-3011490D03*
G01*
X8089905Y-3211489D03*
G01*
X8089894Y-3871909D03*
G01*
X8089894Y-3671910D03*
D13*
G01*
X5029200Y-3276600D03*
G01*
X5029200Y-3022600D03*
G01*
X5245100Y-3975100D03*
G01*
X5499100Y-3975100D03*
G01*
X6235700Y-5461000D03*
G01*
X6235700Y-5715000D03*
G01*
X4533900Y-6438900D03*
G01*
X4533900Y-6692900D03*
G01*
X7581900Y-8128000D03*
G01*
X7327900Y-8128000D03*
G01*
X6832600Y-7454900D03*
G01*
X7086600Y-7454900D03*
G01*
X7645400Y-7226300D03*
G01*
X7645400Y-6972300D03*
G01*
X8343900Y-5588000D03*
G01*
X8089900Y-5588000D03*
G01*
X8001000Y-7493000D03*
G01*
X8255000Y-7493000D03*
G01*
X8001000Y-8102600D03*
G01*
X8255000Y-8102600D03*
G01*
X8814054Y-6142736D03*
G01*
X9068054Y-6142736D03*
G01*
X8559800Y-6794500D03*
G01*
X8813800Y-6794500D03*
G01*
X10045700Y-6616700D03*
G01*
X10045700Y-6362700D03*
G01*
X9817100Y-5791200D03*
G01*
X10071100Y-5791200D03*
G01*
X8775700Y-4622800D03*
G01*
X9029700Y-4622800D03*
D11*
G01*
X6858000Y-4953000D03*
G01*
X6858000Y-5715000D03*
G01*
X6515100Y-5905500D03*
G01*
X6515100Y-6667500D03*
D14*
G01*
X3277488Y-7861508D03*
G01*
X3277488Y-6997501D03*
D15*
G01*
X3775900Y-5549902D03*
D17*
G01*
X4275899Y-5049903D03*
G01*
X4275899Y-5299890D03*
G01*
X4275899Y-5799889D03*
G01*
X4275899Y-6049901D03*
D18*
G01*
X9220200Y-3403600D03*
D19*
G01*
X6123807Y-8234095D03*
G01*
X6423807Y-7844104D03*
D11*
G01*
X7721600Y-5029200D03*
G01*
X8991600Y-5029200D03*
G01*
X8890000Y-7340600D03*
G01*
X10160000Y-7340600D03*
D20*
G01*
X4965700Y-7416797D03*
G01*
X4711700Y-7416797D03*
D21*
G01*
X3596510Y-4332579D03*
G01*
X3596510Y-4510379D03*
D11*
G01*
X4902200Y-8064500D03*
G01*
X3886200Y-8064500D03*
G01*
X4152900Y-4038600D03*
G01*
X4152900Y-3022600D03*
G01*
X4775200Y-4495800D03*
G01*
X5791200Y-4495800D03*
G01*
X6921500Y-4013200D03*
G01*
X6921500Y-2997200D03*
G01*
X4762500Y-4991100D03*
G01*
X5778500Y-4991100D03*
G01*
X4749800Y-5448300D03*
G01*
X5765800Y-5448300D03*
G01*
X4787900Y-6819900D03*
G01*
X5803900Y-6819900D03*
G01*
X7429500Y-4013200D03*
G01*
X7429500Y-2997200D03*
G01*
X7429500Y-5956300D03*
G01*
X7429500Y-4940300D03*
G01*
X5283200Y-7556500D03*
G01*
X6299200Y-7556500D03*
G01*
X10248900Y-7861300D03*
G01*
X9232900Y-7861300D03*
D22*
G01*
X4894579Y-6197600D03*
G01*
X5392420Y-5948679D03*
G01*
X5392420Y-6446520D03*
D23*
G01*
X6311900Y-5029200D03*
D24*
G01*
X6311900Y-4902200D03*
G01*
X6311900Y-4775200D03*
G01*
X8102600Y-6654800D03*
G01*
X8102600Y-6781800D03*
D23*
G01*
X8102600Y-6908800D03*
G01*
X8737600Y-8216900D03*
D24*
G01*
X8737600Y-8089900D03*
G01*
X8737600Y-7962900D03*
M02*
